<svg id="Calque_1" data-name="Calque 1" xmlns="http://www.w3.org/2000/svg" width="9.97mm" height="9.97mm" viewBox="0 0 28.26 28.26"><title>Decongelation2</title><path d="M28.26,14.13A14.13,14.13,0,1,1,14.13,0,14.12,14.12,0,0,1,28.26,14.13Z" style="fill:#bfbfbf"/><path d="M20.76,13.72s-4.12,6.78,0,6.78,0-6.78,0-6.78" style="fill:#bee4f9"/><path d="M20.76,21a2.15,2.15,0,0,1-2-1c-1.1-2,1.33-6.07,1.61-6.54l.43-.69.41.69c.29.47,2.71,4.58,1.62,6.54a2.14,2.14,0,0,1-2,1m0-6.27c-.85,1.6-1.7,3.85-1.18,4.79.07.12.28.49,1.18.49s1.1-.37,1.17-.49c.53-.95-.33-3.19-1.17-4.79" style="fill:#3a2050"/><path d="M14.11,13.28S7.26,24.7,14.26,24.7s-.15-11.42-.15-11.42" style="fill:#bee4f9"/><path d="M14.26,25.19a3.34,3.34,0,0,1-3.19-1.54C9.27,20.46,13.5,13.33,13.69,13l.41-.68.43.68c.19.3,4.63,7.46,2.88,10.65a3.28,3.28,0,0,1-3.15,1.52m-.14-10.93c-1.27,2.32-3.32,6.91-2.19,8.91a2.42,2.42,0,0,0,2.33,1,2.37,2.37,0,0,0,2.29-1c1.1-2-1.09-6.61-2.43-8.94" style="fill:#3a2050"/><path d="M7.35,13.87S3.7,20.5,7.51,20.5s-.16-6.63-.16-6.63" style="fill:#bee4f9"/><path d="M7.51,21a2,2,0,0,1-1.9-.94c-1.12-1.89,1.06-6,1.32-6.43l.41-.75.44.74c.28.46,2.66,4.57,1.6,6.45A2,2,0,0,1,7.51,21m-.14-6.08c-.74,1.58-1.45,3.74-.92,4.64.07.11.27.45,1.06.45s1-.32,1-.43c.5-.88-.32-3.07-1.15-4.66" style="fill:#3a2050"/><path d="M24.59,12.79H3.67a.6.6,0,0,1,0-1.2H24.59a.6.6,0,1,1,0,1.2" style="fill:#3a2050"/><path d="M7.77,12.53a.61.61,0,0,1-.51-.28L5.35,9.42a.62.62,0,0,1,1-.69l1.9,2.83a.63.63,0,0,1-.17.86.6.6,0,0,1-.34.11" style="fill:#3a2050"/><path d="M14.06,12.67h0a.65.65,0,0,1-.52-.3l-5-8.22a.61.61,0,0,1,1-.64l4.46,7.38L19,3.36a.61.61,0,0,1,.85-.19A.63.63,0,0,1,20,4l-5.42,8.36a.61.61,0,0,1-.51.28" style="fill:#3a2050"/><path d="M21.38,8h-.05l-4.24-.28a.6.6,0,0,1-.51-.35L15,4a.63.63,0,0,1,.3-.83.62.62,0,0,1,.82.3L17.53,6.5l3.88.26a.62.62,0,0,1,0,1.23" style="fill:#3a2050"/><path d="M7.18,8.13a.61.61,0,0,1-.61-.59.62.62,0,0,1,.59-.64l3.6-.13L12.5,3.54a.61.61,0,0,1,.83-.25.62.62,0,0,1,.25.84L11.67,7.67a.62.62,0,0,1-.52.32L7.2,8.13h0" style="fill:#3a2050"/><path d="M20.35,12.67a.66.66,0,0,1-.35-.11.63.63,0,0,1-.16-.86l1.91-2.83a.6.6,0,0,1,.85-.17.63.63,0,0,1,.17.86l-1.91,2.83a.61.61,0,0,1-.51.28" style="fill:#3a2050"/><path d="M14.81,19.23s-2.09,4.08.28,3.91-.28-3.91-.28-3.91" style="fill:#fff"/></svg>