<svg id="Calque_1" data-name="Calque 1" xmlns="http://www.w3.org/2000/svg" width="9.91mm" height="9.91mm" viewBox="0 0 28.09 28.09"><title>Frire</title><path d="M28.39,14.14a14,14,0,1,1-14-14A14,14,0,0,1,28.39,14.14Z" transform="translate(-0.3 -0.1)" style="fill:#bfbfbf"/><polygon points="2.56 11.64 3.09 10.78 4.14 10.19 5.28 9.72 6.92 9.26 8.64 9.13 10.63 8.98 13.01 8.98 15.26 9.27 17.27 9.81 18.74 10.53 19.39 11.23 19.39 12.01 17.62 20.24 16.96 21.2 15.34 22.17 13.53 22.76 11.06 23 9.35 22.94 7.07 22.4 5.61 21.63 4.58 20.7 4.39 19.66 2.56 11.64" style="fill:#fff"/><path d="M26,10.51a.68.68,0,0,0-.68-.68.58.58,0,0,0-.18,0v0l-5.57,1.56-.06,1.69c-.27,1.26-1.38,5.87-1,4.24.41-1.88,2.26-4.52,4.07-5.16l3-1A.67.67,0,0,0,26,10.51Z" transform="translate(-0.3 -0.1)" style="fill:#3a2050"/><ellipse cx="11.02" cy="19.79" rx="6.6" ry="3.2" style="fill:#fff"/><path d="M11.32,23.28c-3.81,0-6.79-1.49-6.79-3.39s3-3.39,6.79-3.39,6.79,1.49,6.79,3.39S15.13,23.28,11.32,23.28Zm0-6.41c-3.54,0-6.42,1.36-6.42,3s2.88,3,6.42,3,6.42-1.35,6.42-3S14.86,16.87,11.32,16.87Z" transform="translate(-0.3 -0.1)" style="fill:#3a2050"/><rect x="7.45" y="15.91" width="13.64" height="0.27" transform="translate(-2.97 29.15) rotate(-86.27)" style="fill:#3a2050"/><polygon points="14.99 22.42 14.72 22.39 16.1 9.48 16.37 9.51 14.99 22.42" style="fill:#3a2050"/><polygon points="16.54 21.67 16.27 21.63 17.8 10.05 18.06 10.09 16.54 21.67" style="fill:#3a2050"/><polygon points="4.29 19.82 2.43 11.67 2.7 11.61 4.55 19.76 4.29 19.82" style="fill:#3a2050"/><rect x="11.04" y="8.92" width="0.27" height="14.08" style="fill:#3a2050"/><rect x="9.86" y="9.01" width="0.27" height="14.02" transform="translate(-0.43 -0.02) rotate(-0.46)" style="fill:#3a2050"/><polygon points="12.42 22.95 12.15 22.93 12.64 8.97 12.91 8.98 12.42 22.95" style="fill:#3a2050"/><rect x="8.53" y="9.23" width="0.27" height="13.68" transform="matrix(1, -0.06, 0.06, 1, -1.23, 0.44)" style="fill:#3a2050"/><polygon points="7.35 22.51 6.23 9.38 6.5 9.36 7.62 22.49 7.35 22.51" style="fill:#3a2050"/><polygon points="6.08 22 4.87 9.74 5.14 9.71 6.35 21.98 6.08 22" style="fill:#3a2050"/><rect x="4.64" y="10.33" width="0.27" height="11.2" transform="translate(-2.53 0.75) rotate(-8.22)" style="fill:#3a2050"/><path d="M11.33,17.82c-4.42,0-7.87-1.25-7.87-2.86s3.45-2.86,7.87-2.86,7.86,1.26,7.86,2.86S15.74,17.82,11.33,17.82Zm0-5.44c-4.12,0-7.59,1.18-7.59,2.58s3.47,2.58,7.59,2.58,7.59-1.18,7.59-2.58S15.44,12.38,11.33,12.38Z" transform="translate(-0.3 -0.1)" style="fill:#3a2050"/><path d="M11.3,20.54c-4.05,0-7.22-1.26-7.22-2.86s3.17-2.86,7.22-2.86,7.23,1.26,7.23,2.86S15.36,20.54,11.3,20.54Zm0-5.44c-3.76,0-7,1.18-7,2.58s3.19,2.58,7,2.58,7-1.18,7-2.58S15.07,15.1,11.3,15.1Z" transform="translate(-0.3 -0.1)" style="fill:#3a2050"/><path d="M11.32,14.87c-4.3,0-8.87-1.1-8.87-3.14S7,8.6,11.32,8.6s8.87,1.1,8.87,3.13S15.62,14.87,11.32,14.87Zm0-5.44c-5,0-8,1.34-8,2.3S6.34,14,11.32,14s8-1.34,8-2.31S16.3,9.43,11.32,9.43Z" transform="translate(-0.3 -0.1)" style="fill:#3a2050"/><rect x="14.41" y="15.9" width="8.82" height="0.27" transform="translate(-1.22 30.83) rotate(-77.47)" style="fill:#3a2050"/></svg>