<svg id="Calque_1" data-name="Calque 1" xmlns="http://www.w3.org/2000/svg" width="9.95mm" height="9.95mm" viewBox="0 0 28.2 28.2"><title>FairePousser</title><path d="M28.58,14.27A14.11,14.11,0,1,1,14.48.17,14.1,14.1,0,0,1,28.58,14.27Z" transform="translate(-0.37 -0.17)" style="fill:#bfbfbf"/><path d="M4.92,22.13V9.4a10.74,10.74,0,0,1,9.55-6.17A10.75,10.75,0,0,1,24,9.41l0,12.72Z" transform="translate(-0.37 -0.17)" style="fill:#3a2050"/><path d="M15.22,8.54l2.69,2.73a.83.83,0,0,1,0,1.17.82.82,0,0,1-1.16,0l-1.52-1.55v5.53a.76.76,0,1,1-1.51,0V10.89L12.2,12.44a.82.82,0,0,1-1.16,0,.83.83,0,0,1,0-1.17l2.67-2.75a1,1,0,0,1,1.51,0" transform="translate(-0.37 -0.17)" style="fill:#fff"/></svg>