<svg id="Calque_1" data-name="Calque 1" xmlns="http://www.w3.org/2000/svg" width="9.96mm" height="9.96mm" viewBox="0 0 28.24 28.24"><title>PasserFour2</title><path d="M28.32,14.29A14.12,14.12,0,1,1,14.2.17,14.12,14.12,0,0,1,28.32,14.29Z" transform="translate(-0.08 -0.17)" style="fill:#bfbfbf"/><rect x="5.51" y="6.06" width="17.22" height="16.12" style="fill:#fff"/><path d="M23.11,22.65H5.29V5.93H23.11Zm-17.22-.6H22.51V6.53H5.89Z" transform="translate(-0.08 -0.17)" style="fill:#3a2050"/><path d="M10.92,9.81a1.13,1.13,0,0,1,0-2.26,1.13,1.13,0,1,1,0,2.26Zm0-1.64a.51.51,0,1,0,.51.51A.51.51,0,0,0,10.92,8.17Z" transform="translate(-0.08 -0.17)" style="fill:#bfbfbf"/><path d="M8.39,9.81A1.13,1.13,0,1,1,9.53,8.68,1.14,1.14,0,0,1,8.39,9.81Zm0-1.64a.51.51,0,1,0,.51.51A.51.51,0,0,0,8.39,8.17Z" transform="translate(-0.08 -0.17)" style="fill:#bfbfbf"/><path d="M13.45,9.81a1.13,1.13,0,1,1,1.13-1.13A1.14,1.14,0,0,1,13.45,9.81Zm0-1.64a.51.51,0,0,0,0,1,.51.51,0,1,0,0-1Z" transform="translate(-0.08 -0.17)" style="fill:#bfbfbf"/><rect x="7.25" y="10.16" width="13.87" height="0.37" style="fill:#3a2050"/><path d="M21.1,18a2.2,2.2,0,0,1-2,2.37H9.42a2.2,2.2,0,0,1-2-2.37V14.6a2.21,2.21,0,0,1,2-2.38h9.69a2.21,2.21,0,0,1,2,2.38Z" transform="translate(-0.08 -0.17)" style="fill:#fff"/><path d="M19.11,20.76H9.42A2.55,2.55,0,0,1,7.09,18V14.6a2.56,2.56,0,0,1,2.33-2.73h9.69a2.56,2.56,0,0,1,2.34,2.73V18A2.55,2.55,0,0,1,19.11,20.76Zm-9.69-8.2a1.88,1.88,0,0,0-1.65,2V18a1.87,1.87,0,0,0,1.65,2h9.69a1.87,1.87,0,0,0,1.65-2V14.6a1.88,1.88,0,0,0-1.65-2Z" transform="translate(-0.08 -0.17)" style="fill:#3a2050"/><rect x="7.08" y="14.31" width="13.87" height="0.37" style="fill:#3a2050"/><rect x="7.08" y="17.44" width="13.87" height="0.37" style="fill:#3a2050"/></svg>