<svg id="Calque_1" data-name="Calque 1" xmlns="http://www.w3.org/2000/svg" width="9.91mm" height="9.91mm" viewBox="0 0 28.09 28.09"><title>PasserMicroOndes</title><path d="M28.39,14.25a14,14,0,1,1-14-14A14,14,0,0,1,28.39,14.25Z" transform="translate(-0.3 -0.21)" style="fill:#bfbfbf"/><rect x="4.76" y="8.33" width="18.57" height="11.43" style="fill:#fff"/><path d="M23.89,20.23H4.8v-12H23.89ZM5.33,19.71h18V8.8h-18Z" transform="translate(-0.3 -0.21)" style="fill:#3a2050"/><path d="M19.76,16.13a2.3,2.3,0,0,1-1.93,2.54H8.45a2.3,2.3,0,0,1-1.94-2.54V12.46A2.3,2.3,0,0,1,8.45,9.92h9.38c1.07,0,1.93,1.13,1.93,2.54Z" transform="translate(-0.3 -0.21)" style="fill:#fff"/><path d="M17.83,18.93H8.45a2.56,2.56,0,0,1-2.2-2.8V12.46c0-1.55,1-2.81,2.2-2.81h9.38c1.21,0,2.2,1.26,2.2,2.81v3.67A2.56,2.56,0,0,1,17.83,18.93ZM8.45,10.18c-.92,0-1.67,1-1.67,2.28v3.67c0,1.26.75,2.28,1.67,2.28h9.38c.92,0,1.67-1,1.67-2.28V12.46c0-1.26-.75-2.28-1.67-2.28Z" transform="translate(-0.3 -0.21)" style="fill:#3a2050"/><path d="M21.71,14a.88.88,0,1,1,0-1.75.88.88,0,0,1,0,1.75Zm0-1.27a.39.39,0,0,0-.4.39.4.4,0,1,0,.79,0A.39.39,0,0,0,21.71,12.74Z" transform="translate(-0.3 -0.21)" style="fill:#bfbfbf"/><path d="M21.71,16.08a.88.88,0,1,1,0-1.75.88.88,0,0,1,0,1.75Zm0-1.27a.39.39,0,0,0-.4.39.4.4,0,1,0,.79,0A.39.39,0,0,0,21.71,14.81Z" transform="translate(-0.3 -0.21)" style="fill:#bfbfbf"/><path d="M15.15,12.81a4.72,4.72,0,0,1-2.41-.67,4.19,4.19,0,0,0-4.62,0,.23.23,0,0,1-.33-.05.24.24,0,0,1,0-.33,4.71,4.71,0,0,1,5.15,0,4.73,4.73,0,0,0,5.08-.34.24.24,0,0,1,.29.37A5.72,5.72,0,0,1,15.15,12.81Z" transform="translate(-0.3 -0.21)" style="fill:#3a2050"/><path d="M15.15,15.08a4.72,4.72,0,0,1-2.41-.67,4.22,4.22,0,0,0-4.62,0,.23.23,0,0,1-.33-.05.24.24,0,0,1,0-.33A4.71,4.71,0,0,1,13,14a4.8,4.8,0,0,0,5.08-.34.24.24,0,0,1,.33,0,.25.25,0,0,1,0,.34A5.84,5.84,0,0,1,15.15,15.08Z" transform="translate(-0.3 -0.21)" style="fill:#3a2050"/><path d="M15.15,17.35a4.72,4.72,0,0,1-2.41-.67,4.19,4.19,0,0,0-4.62,0,.23.23,0,0,1-.33-.05.24.24,0,0,1,0-.33,4.71,4.71,0,0,1,5.15,0,4.8,4.8,0,0,0,5.08-.34.24.24,0,0,1,.33,0,.25.25,0,0,1,0,.34A5.84,5.84,0,0,1,15.15,17.35Z" transform="translate(-0.3 -0.21)" style="fill:#3a2050"/></svg>