<svg id="Calque_1" data-name="Calque 1" xmlns="http://www.w3.org/2000/svg" width="9.83mm" height="9.83mm" viewBox="0 0 27.85 27.85"><title>PasserGrill</title><path d="M28,14.1A13.93,13.93,0,1,1,14,.17,13.93,13.93,0,0,1,28,14.1Z" transform="translate(-0.1 -0.17)" style="fill:#bfbfbf"/><path d="M23.12,17.64H24L21.47,8.06,6.78,6.7l3.16,8.78.2,1.07-.63-.05L6,6.65S5.62,6.33,5.88,6a.48.48,0,0,1,.62-.1s0,.07,0,.07L21.47,7.25s.52-.15.63.08.13.54.13.54l2.5,9.92-.27.71s-.36.06-.36,0-.06-.38-.06-.38l-.92,0" transform="translate(-0.1 -0.17)" style="fill:#3a2050"/><polygon points="17.72 22.15 23.36 18.68 23.5 16.08 9.5 14.8 9.13 16.61 17.72 22.15" style="fill:#3a2050"/><polygon points="9.16 15.56 3.98 17.9 3.48 19.1 3.48 19.6 17.51 22.14 17.51 21.74 18.04 20.61 22.65 17.67 9.16 15.56" style="fill:#fff"/><polygon points="7.31 8.3 6.7 9.06 9.43 15.3 22.79 17.47 23.5 16.08 21.53 10.02 7.31 8.3" style="fill:#fff"/><path d="M10.82,15.34a.39.39,0,0,1-.37-.25l-2-5.24a.38.38,0,0,1,.22-.5.39.39,0,0,1,.51.23l2,5.24a.38.38,0,0,1-.22.5A.34.34,0,0,1,10.82,15.34Z" transform="translate(-0.1 -0.17)" style="fill:#3a2050"/><path d="M13.56,15.69a.39.39,0,0,1-.37-.25l-2-5.24a.38.38,0,0,1,.22-.5.39.39,0,0,1,.51.22l2,5.25a.38.38,0,0,1-.22.5A.36.36,0,0,1,13.56,15.69Z" transform="translate(-0.1 -0.17)" style="fill:#3a2050"/><path d="M16.27,16.05a.4.4,0,0,1-.37-.25L14,10.53a.4.4,0,0,1,.23-.5.39.39,0,0,1,.5.24l1.92,5.26a.4.4,0,0,1-.24.5Z" transform="translate(-0.1 -0.17)" style="fill:#3a2050"/><path d="M19,16.56a.39.39,0,0,1-.37-.25l-2-5.24a.39.39,0,0,1,.23-.5.38.38,0,0,1,.5.22l2,5.25a.38.38,0,0,1-.23.5A.3.3,0,0,1,19,16.56Z" transform="translate(-0.1 -0.17)" style="fill:#3a2050"/><path d="M21.78,16.83a.4.4,0,0,1-.37-.25l-2-5.25a.4.4,0,0,1,.23-.5.39.39,0,0,1,.5.23l2,5.24a.4.4,0,0,1-.23.51Z" transform="translate(-0.1 -0.17)" style="fill:#3a2050"/><path d="M16.5,20.88a.39.39,0,0,1-.21-.72L20,17.83a.39.39,0,0,1,.42.66l-3.69,2.33A.37.37,0,0,1,16.5,20.88Z" transform="translate(-0.1 -0.17)" style="fill:#3a2050"/><path d="M14,20.45a.38.38,0,0,1-.33-.18.38.38,0,0,1,.13-.54l3.64-2.21a.39.39,0,0,1,.53.13.38.38,0,0,1-.13.54L14.23,20.4A.35.35,0,0,1,14,20.45Z" transform="translate(-0.1 -0.17)" style="fill:#3a2050"/><path d="M11.31,20a.4.4,0,0,1-.19-.74l3.72-2.06a.39.39,0,0,1,.53.16.38.38,0,0,1-.15.52L11.5,19.9A.45.45,0,0,1,11.31,20Z" transform="translate(-0.1 -0.17)" style="fill:#3a2050"/><path d="M8.68,19.49a.37.37,0,0,1-.34-.21.38.38,0,0,1,.16-.52l3.89-2.07a.39.39,0,0,1,.53.16.38.38,0,0,1-.16.52l-3.9,2.08A.37.37,0,0,1,8.68,19.49Z" transform="translate(-0.1 -0.17)" style="fill:#3a2050"/><path d="M6,19a.4.4,0,0,1-.36-.22.39.39,0,0,1,.19-.52l4.38-2.11a.39.39,0,0,1,.52.19.4.4,0,0,1-.18.52L6.18,19A.32.32,0,0,1,6,19Z" transform="translate(-0.1 -0.17)" style="fill:#3a2050"/><path d="M7.16,6.34a.87.87,0,0,1-1.73,0,.87.87,0,1,1,1.73,0Z" transform="translate(-0.1 -0.17)" style="fill:#3a2050"/><circle cx="21.55" cy="7.44" r="0.86" style="fill:#3a2050"/></svg>