<svg id="Calque_1" data-name="Calque 1" xmlns="http://www.w3.org/2000/svg" width="6.58mm" height="7.43mm" viewBox="0 0 18.65 21.07"><title>produit_nomade</title><path d="M194.69,79.84a6.85,6.85,0,0,1-3.4-1.21l-.21-.11a.41.41,0,0,1,.14-.76c2.29-.37,2.88-1.85,3.62-3.73.17-.42.34-.85.54-1.28a2.94,2.94,0,0,1,1.85-1.5,3.09,3.09,0,0,1,2.48.13,3.67,3.67,0,0,1,1.39,4.2,7.13,7.13,0,0,1-4.32,3.85A6.19,6.19,0,0,1,194.69,79.84Zm-2.31-1.54a4.31,4.31,0,0,0,4.14.36,6.41,6.41,0,0,0,3.82-3.35,2.91,2.91,0,0,0-1-3.23,2.37,2.37,0,0,0-1.83-.06,2.2,2.2,0,0,0-1.36,1.06c-.19.42-.36.84-.52,1.25C194.93,76,194.3,77.61,192.38,78.3Z" transform="translate(-186.44 -64.93)" style="fill:#3e1051"/><path d="M191.18,78.3a.44.44,0,0,1-.25-.08,2.22,2.22,0,0,1-.8-2.1,3.47,3.47,0,0,1,2-2.64,3.23,3.23,0,0,1,3.27.61.41.41,0,0,1,.07.57.4.4,0,0,1-.57.07,2.44,2.44,0,0,0-2.46-.5,2.66,2.66,0,0,0-1.54,2,1.4,1.4,0,0,0,.49,1.34.41.41,0,0,1,.07.57A.39.39,0,0,1,191.18,78.3Z" transform="translate(-186.44 -64.93)" style="fill:#3e1051"/><path d="M203.54,82.14h-.07a.41.41,0,0,1-.33-.47,32,32,0,0,0,0-13.06.41.41,0,0,1,.31-.49.42.42,0,0,1,.48.32,33,33,0,0,1,0,13.37A.4.4,0,0,1,203.54,82.14Z" transform="translate(-186.44 -64.93)" style="fill:#3e1051"/><path d="M188.08,82.14a.41.41,0,0,1-.38-.28c-1.29-3.79-1.3-8.44,0-13.45a.41.41,0,0,1,.79.2c-1.25,4.85-1.25,9.35,0,13a.41.41,0,0,1-.26.52Z" transform="translate(-186.44 -64.93)" style="fill:#3e1051"/><path d="M189,70.81a.4.4,0,0,1-.4-.4,3.64,3.64,0,0,0-1-2.13,3.6,3.6,0,0,1-1.1-2.73.4.4,0,0,1,.45-.35,66.79,66.79,0,0,0,17.58-.27.4.4,0,0,1,.46.46,6.06,6.06,0,0,1-1.37,3.1,4,4,0,0,0-.91,1.76.41.41,0,1,1-.8-.15,4.73,4.73,0,0,1,1.06-2.1,5.48,5.48,0,0,0,1.12-2.19,66.94,66.94,0,0,1-16.79.24,3.58,3.58,0,0,0,.94,1.73,4.34,4.34,0,0,1,1.21,2.61.41.41,0,0,1-.4.42Z" transform="translate(-186.44 -64.93)" style="fill:#3e1051"/><path d="M194.71,67.77a66.24,66.24,0,0,1-7.63-.45.4.4,0,1,1,.09-.8,64.54,64.54,0,0,0,17-.26.4.4,0,1,1,.11.8A65.32,65.32,0,0,1,194.71,67.77Z" transform="translate(-186.44 -64.93)" style="fill:#3e1051"/><path d="M186.93,86a.38.38,0,0,1-.28-.12.38.38,0,0,1-.12-.35,7.27,7.27,0,0,1,1.18-3.44c.16-.25.33-.52.52-.87a.39.39,0,0,1,.54-.17.4.4,0,0,1,.18.54c-.2.38-.38.67-.55.94a5.8,5.8,0,0,0-1,2.58,67.34,67.34,0,0,1,16.84-.24c.12-1.42-.18-2-1.72-3.67a.4.4,0,0,1,0-.57.41.41,0,0,1,.57,0c1.73,1.9,2.13,2.65,1.89,4.72a.41.41,0,0,1-.45.36A66.44,66.44,0,0,0,187,86Z" transform="translate(-186.44 -64.93)" style="fill:#3e1051"/><path d="M187.26,84.67a.41.41,0,0,1-.4-.35.4.4,0,0,1,.34-.46,65.2,65.2,0,0,1,17.2-.26.41.41,0,1,1-.09.81,64,64,0,0,0-17,.26Z" transform="translate(-186.44 -64.93)" style="fill:#3e1051"/></svg>