<svg id="Calque_1" data-name="Calque 1" xmlns="http://www.w3.org/2000/svg" width="7.49mm" height="5.5mm" viewBox="0 0 21.23 15.58"><title>produit_bio</title><path d="M193.7,82.51a7.63,7.63,0,0,1-4.62-1.19l.57-.67c1.3,1.09,5.76,1.5,8.82-.06A11.8,11.8,0,0,0,205.3,70.2c-2.45,1.12-4.81.79-7.1.47-2.61-.36-5.07-.7-7.71.94s-3.52,5.14-2.05,8.3l-.81.38C186,76.72,187,72.75,190,70.86s5.65-1.43,8.3-1.06c2.46.34,4.79.66,7.22-.72l.67-.38v.76a12.7,12.7,0,0,1-7.34,11.92A11.55,11.55,0,0,1,193.7,82.51Z" transform="translate(-184.98 -68.7)" style="fill:#3e1051"/><path d="M185.78,84.28l-.8-.38c3-6.4,8.42-8.35,13.16-10.06.73-.27,1.45-.53,2.14-.8l.33.82c-.7.28-1.43.54-2.17.81C193.86,76.33,188.67,78.2,185.78,84.28Z" transform="translate(-184.98 -68.7)" style="fill:#3e1051"/></svg>