<svg id="Calque_1" data-name="Calque 1" xmlns="http://www.w3.org/2000/svg" width="7.61mm" height="7.6mm" viewBox="0 0 21.58 21.54"><title>produit_vege</title><path d="M88.72,78.93a6.86,6.86,0,0,0-3.06-2.21l.3-.83a7.69,7.69,0,0,1,3.46,2.5Z" transform="translate(-78.34 -68.61)" style="fill:#3e1051"/><path d="M79.23,90.15a.89.89,0,0,1-.67-.24c-.43-.46-.16-1.22.27-2.24.3-.72.72-1.61,1.25-2.64.2-.38,5.81-9.78,6.2-10.36h0c.18-.27.37-.53.55-.79,1.39-1.92,2.64-1.71,4.6-.6a8.33,8.33,0,0,1,1.41,1l1.06,1a12.34,12.34,0,0,1,.83,1.06c1.6,2.35,2.05,4.05-.45,5.77-1.28.88-2.6,1.74-3.94,2.56l-1.83,1.08c-2.5,1.44-5.16,2.8-7.92,4.06A4.38,4.38,0,0,1,79.23,90.15Zm0-.88a2.78,2.78,0,0,0,1-.27c2.7-1.23,5.34-2.58,7.81-4l1.82-1.08c1.32-.81,2.63-1.66,3.9-2.53,1.77-1.22,1.82-2.2.21-4.54a10.47,10.47,0,0,0-.73-.95l-1-1A8.43,8.43,0,0,0,91,74c-1.87-1.05-2.48-1-3.45.35l-.54.77c-.49.74-6,10-6.15,10.27-.52,1-.93,1.88-1.22,2.58A5.33,5.33,0,0,0,79.23,89.27Z" transform="translate(-78.34 -68.61)" style="fill:#3e1051"/><path d="M83.67,84.36A4.06,4.06,0,0,0,81.86,83l.3-.83a4.87,4.87,0,0,1,2.21,1.6Z" transform="translate(-78.34 -68.61)" style="fill:#3e1051"/><path d="M89.12,84.78a5.6,5.6,0,0,0-1.92-2.44l.51-.72A6.56,6.56,0,0,1,90,84.44Z" transform="translate(-78.34 -68.61)" style="fill:#3e1051"/><path d="M93.41,75.44l-.54-.7a11.59,11.59,0,0,1,7-2.55v.89A10.73,10.73,0,0,0,93.41,75.44Z" transform="translate(-78.34 -68.61)" style="fill:#3e1051"/><path d="M93.25,74.73l-.7-.54a10.85,10.85,0,0,0,2.21-5.58l.88.09A11.74,11.74,0,0,1,93.25,74.73Z" transform="translate(-78.34 -68.61)" style="fill:#3e1051"/><path d="M99.69,75.42a3.56,3.56,0,0,1-1.57-.92,2.24,2.24,0,0,0-1.48-.72l.1-.88a3.09,3.09,0,0,1,2,.94,2.58,2.58,0,0,0,1.21.72Z" transform="translate(-78.34 -68.61)" style="fill:#3e1051"/><path d="M96.62,73.64l-.43-.77c1.51-.86,1.44-1.89,1.38-3l0-.37.89,0,0,.36A3.47,3.47,0,0,1,96.62,73.64Z" transform="translate(-78.34 -68.61)" style="fill:#3e1051"/><path d="M97.38,76.31A6.05,6.05,0,0,0,94,75.87L93.91,75a7,7,0,0,1,3.82.5Z" transform="translate(-78.34 -68.61)" style="fill:#3e1051"/><path d="M93.42,73A6.94,6.94,0,0,0,92,69.35l.71-.54a8.08,8.08,0,0,1,1.59,4.09Z" transform="translate(-78.34 -68.61)" style="fill:#3e1051"/></svg>