<svg id="Calque_1" data-name="Calque 1" xmlns="http://www.w3.org/2000/svg" width="61.54mm" height="15.17mm" viewBox="0 0 174.44 43"><title>logo_cdp</title><path d="M334.69,436.2h3.93v.41H336.9v4.3h-.48v-4.3h-1.73Zm12.08,4.49.16.22h-.57l-.9-1.41a3.19,3.19,0,0,0-.55-.66c-.16-.11-.28-.13-.73-.13h-.43v2.2h-.48V436.2h1a2.74,2.74,0,0,1,1.12.14,1.17,1.17,0,0,1,.73,1.1,1.18,1.18,0,0,1-.81,1.14,2.28,2.28,0,0,1,.54.65l.83,1.28c0,.06.08.11.12.18m-1.59-3.94a2,2,0,0,0-.91-.14h-.52v1.68h.43a2.19,2.19,0,0,0,1-.14.81.81,0,0,0,.39-.7.79.79,0,0,0-.39-.7m8.07-.59,2.18,4.75h-.5l-.73-1.59H352l-.72,1.59h-.5l2.16-4.75Zm-.14.78-.89,2H354Zm11.17,1.62a2.25,2.25,0,0,1-1.1,2,2.47,2.47,0,0,1-1.54.32h-1.59V436.2h1.45a2.65,2.65,0,0,1,1.68.32,2.27,2.27,0,0,1,1.1,2m-1.37-1.63a2,2,0,0,0-1.37-.32h-1v3.9h1a2.19,2.19,0,0,0,1.37-.31,1.89,1.89,0,0,0,.86-1.64,1.84,1.84,0,0,0-.86-1.63m6.32,4h.48V436.2h-.48Zm5.12-4.3h1.73v4.3h.48v-4.3h1.72v-.41h-3.93Zm8.57,4.3h.48V436.2h-.48Zm10.42-2.38a2.5,2.5,0,0,1-5,0,2.5,2.5,0,0,1,5,0m-2.49-1.93a2,2,0,1,0,2,1.93,1.92,1.92,0,0,0-2-1.93m11.23,3.51-3.37-3.91h-.42v4.71h.48V437l3.39,3.92v0h.39V436.2h-.48Zm14.48-.25,1,1.05H417l-.67-.69a2.28,2.28,0,0,1-.42.38,2,2,0,0,1-1.11.37,1.23,1.23,0,0,1-1.32-1.15,1.61,1.61,0,0,1,1.11-1.42l0,0a1.39,1.39,0,0,1-.52-1,1.1,1.1,0,0,1,1.15-1.06,1,1,0,0,1,1.06,1,1.19,1.19,0,0,1-.43.9,2,2,0,0,1-.49.33l.94,1a4.15,4.15,0,0,0,.46-1v0h.5l0,.08a3.61,3.61,0,0,1-.26.66,2.8,2.8,0,0,1-.35.62m-2.1-2.53a1.35,1.35,0,0,0,.51.87c.52-.22.8-.53.8-.88a.6.6,0,0,0-.64-.59.63.63,0,0,0-.67.6m-.52,2.42a.78.78,0,0,0,.85.78,1.54,1.54,0,0,0,1.16-.64l-1.1-1.15c-.63.28-.91.59-.91,1m14.28,1.16h.48V436.2h-.48Zm9.4-.8-3.37-3.91h-.41v4.71h.47V437l3.39,3.92,0,0h.38V436.2h-.48Zm9.41,0-3.37-3.91h-.42v4.71h.48V437l3.39,3.92v0h.39V436.2H447Zm10.42-1.58a2.5,2.5,0,0,1-5,0,2.5,2.5,0,0,1,5,0M455,436.6a2,2,0,1,0,2,1.93,1.93,1.93,0,0,0-2-1.93m9,3.39-1.59-3.79h-.5l2,4.75H464l2-4.75h-.48Zm8.59-3.83,2.17,4.75h-.5l-.73-1.59h-2.16l-.73,1.59h-.5l2.16-4.75Zm-.14.78-.9,2h1.79Zm6.43-.33h1.72v4.3H481v-4.3h1.72v-.41h-3.92Zm8.56,4.3h.48V436.2h-.48Zm10.42-2.38a2.5,2.5,0,0,1-5,0,2.5,2.5,0,0,1,5,0m-2.48-1.93a2,2,0,1,0,2,1.93,1.93,1.93,0,0,0-2-1.93m11.22-.4v3.91l-3.37-3.91h-.41v4.71h.47V437l3.39,3.92,0,0H507V436.2Z" transform="translate(-334.69 -397.97)" style="fill:#3a2050"/><path d="M440.33,429.52l1.24-1.78H393.63l-1.42,1.78Z" transform="translate(-334.69 -397.97)" style="fill:#fff"/><path d="M440.33,429.52l1.24-1.78H393.63l-1.42,1.78Z" transform="translate(-334.69 -397.97)" style="fill:none;stroke:#3a2050;stroke-miterlimit:10;stroke-width:0.25198414011295633px"/><path d="M452.16,429.52H506l1.45-1.78H453.57c-.36.45-1.07,1.34-1.41,1.78" transform="translate(-334.69 -397.97)" style="fill:#e6361f"/><polygon points="46.94 29.77 1.27 29.77 0 31.55 45.7 31.55 46.94 29.77" style="fill:#27316a"/><path d="M410,410.6c-1.75,1.38-4.11,4.29-7.86,6.58-.18.11-.63.16-.33-.28a23.06,23.06,0,0,1,4.06-5.29c.15-.15-.78-1.6-1.06-2.93-.15-.41-.2-.61-.71-.41s-3.83,2.4-3.76,2.38.53-.73,1-1.26a15.74,15.74,0,0,1-1.19-2.61c-.16-.53-.36-.54-.54-.43a1,1,0,0,0-.22.19c-5.44,5.4-12.2,10.06-14.82,10.73-.18.05-.56-.35-.32-.69,1.7-2.41,3.07-4.53,4.73-6.79a5.48,5.48,0,0,0-1.22-2.63c-2,1-3,3.21-4.41,4.91a24.67,24.67,0,0,1-7.29,6.08c-.36.19-.78-.18-.7-.34a39.53,39.53,0,0,1,4.69-7.38c.55-.71-.33-1.51-.37-2.35a.49.49,0,0,0-.74-.38c-1.4.83-2.78,1.5-4.08,2.39l.15-.1-.31.18c-.16-3-3.7-4.8-5.23-4.42a10.69,10.69,0,0,0-5.18,2.52c-.12.12-.28.28-.46.48l-1.16-.27a10.44,10.44,0,0,0-3.27,3.11c-.92,1.33-2.46,1.86-3.74,2.81a39.19,39.19,0,0,1-8.89,4.88,20.28,20.28,0,0,1-3.24,1.16c-1.64.36-3.09,1.29-4.83.92-.63-.13-.52-.78-.36-1.14a34.67,34.67,0,0,1,12.51-14.09c.56.6-.26.89-.26.91s2,2.09,2.07,2.06a13,13,0,0,0,5-4.72c.67-1.32-.37-2.71-1.47-3.78-.43-.41-1.63,0-2.25.17-5.76,1.85-12.69,7.36-17.1,13.73a10,10,0,0,0-1.09,2.1c-.52,1.35-1.21,2.49-.69,4a4.32,4.32,0,0,0,2.86,2.67c7.17,2.24,13.58-3.06,19.86-5.89,1.08,1.08,2,2.46,3.32,3.08a5.29,5.29,0,0,0,3.56.05,18.17,18.17,0,0,0,8.66-6.5c.37-.14.62-.26.72-.31s-2.33,3-1.52,4.44a5.73,5.73,0,0,0,2.38,2.35c2.8,1.21,4.52-1.8,7.28-2.22.25,0,.34.51.48.64,2.06,1.87,5,.6,7.27-.65a23.71,23.71,0,0,0,2.17-1.41l-.17.35c-1.9,3.27-5.55,8.95-7.75,12.34h4a151.26,151.26,0,0,1,9.8-11.9c.24-.27.6-.71.55,0,0,.23-.08.5,0,.61,1.68,1.68,2.5,3.05,4.71,1.49,2.52-1.78,4.24-4,6.28-6.08.27-.28.82-.79,1.19-1.23s-.65-1.95-.76-1.82m-48.84,6.92c-.47-.55,1.06-2.83,2.58-4.81a6.86,6.86,0,0,0,1.28,1,7.68,7.68,0,0,0,2.26.9c-2,1.66-5.33,3.85-6.12,2.94m9-5.92a9.67,9.67,0,0,1-3.85.31c-1.42-.5,4.27-3.33,4.93-2.88.41.29-.19,1.4-1.08,2.57m71.35.61c-.51.3-3.51,4.57-8,5.18,2.56-2.09,4.58-4.51,4.8-5.63a6.32,6.32,0,0,0-.81-4.19c-.28-.11-1.32-.66-4.11.75-3.49,1.77-5,6.06-5.24,6.82a6,6,0,0,0-.35,2.32,8.35,8.35,0,0,1-1.68.76c-.74.2-1.22.16-.76-1.46,1-3.49,10.21-16.36,10.21-16.36L433.72,398a73.92,73.92,0,0,1-7.63,9.24,6.75,6.75,0,0,0-1.92-.2c-3.05.05-9.78,4.27-9.69,7.15a3.3,3.3,0,0,0-.88,2.65c0,2.2,2.91,3,4.07,3.18,2.84.35,6.06-2.75,6-2.73-1.07,1.54,1.52,3.94,3,3.74a9.9,9.9,0,0,0,2.82-.93,6.41,6.41,0,0,0,2.31.73c5.28.76,11-6.87,11.28-7.22s-1-1.67-1.52-1.37m-17.84-3h.2l0,0c-1.78,1.5-4,4.32-5.35,3.61-.41-.21,3.13-3.56,5.18-3.64m-6.86,8c-.68-.15-.6-.58-.36-1,3,1,6.57-2.14,7.68-3,0,0-4.8,4.61-7.32,4m15-2.48c.73-2.11,2.64-4.56,2.85-3.83.26.93-1.11,2.43-2.85,3.83M507,410.5l-1.32-2.73s-9.06,7.88-13.09,9.77a22,22,0,0,0,2.22-1.69c2.49-2.16,3.15-3.13,3.25-4.85s-.2-3.43-2-3.33-8.33,4.44-8.43,8.28a7.14,7.14,0,0,0,.12,1.6,8.94,8.94,0,0,1-2.26.42c-1.22.07-1.5-.79-1.31-2,1.65-2.17,3.56-4.84,6-7.68a32,32,0,0,0,2.91-3.9c4.52-.84,8.77-1.4,10.67-1.63a3.64,3.64,0,0,1-.3-1.44,3.58,3.58,0,0,1,.23-1.27c-4.18.53-7.75,1.1-10.75,1.67l-1.24-1.4s-.62.76-1.55,2c-7.58,1.62-10.64,3.08-10.64,3.08l2.94,1.71a48.31,48.31,0,0,1,5.28-1.55,58.13,58.13,0,0,0-5.37,8.54c-2.32,2.48-4.67,4.66-5.29,4-.34-.35,3.34-6.23,3.05-7.37a2.94,2.94,0,0,0-.92-1.78c-.08-.9-.72-1.85-2.94-1.55-3.25.43-9.05,3.23-11,7.55a26.59,26.59,0,0,1-3.13,2.26c-.17.11-.63.16-.33-.28a23.06,23.06,0,0,1,4.06-5.29c.15-.15-.78-1.6-1.06-2.93-.15-.41-.2-.61-.71-.41s-3.83,2.4-3.76,2.38.53-.73,1-1.26a15.36,15.36,0,0,1-1.2-2.61c-.22-.77-.55-.45-.74-.24-5.44,5.9-10.89,9.23-13.39,10.23-.51.2-2.72,1-2.72,1s2.44,2.14,2.76,2.08a14.21,14.21,0,0,0,3.9-1.62c.33-.18,2.18-1.39,2-1.06-1.9,3.27-5.55,8.95-7.75,12.34h4a151.26,151.26,0,0,1,9.8-11.9c.24-.27.6-.71.55,0,0,.23-.08.5,0,.61,1.68,1.68,2.5,3.05,4.72,1.49.5-.36.95-.73,1.4-1.11.41,2,2.32,2.26,3.82,2.18,1.83-.1,2.75-.51,5.49-2.73.85-.69.51,3,4,3,1.27,0,2.45-.8,3.73-2.15a3.54,3.54,0,0,0,3.08,2.05,13.88,13.88,0,0,0,4-1.34,3.75,3.75,0,0,0,2.69,1c1.93,0,9.74-4.43,11.78-8a35.56,35.56,0,0,0-.51,5.55c.24,1.11,0,1.72-.5,1.72a4.66,4.66,0,0,1-3-1.72s.91,5.16,5,5.05c3.86-.1,1.73-3.83,1.83-6.76a28.8,28.8,0,0,1,1-6.06m-32.92,4c-3.15,3.33-5.47,4.11-6.1,3.33-1.47-1.85,4.78-7.58,8.64-7.37h.33a39.05,39.05,0,0,1-2.87,4m16.39,1.69c.1-2.66,3.16-5.51,4.54-5.83s-.9,3.5-4.54,5.83M507,403.45a2.15,2.15,0,1,1,2.15-2.15,2.15,2.15,0,0,1-2.15,2.15m0-4a1.88,1.88,0,1,0,1.88,1.87,1.87,1.87,0,0,0-1.88-1.87m-.59,3.12h-.34v-2.48h1.15c.41,0,.81.14.81.67a.6.6,0,0,1-.34.59c.14.06.28.12.29.47l0,.45c0,.14,0,.19.12.25v.05h-.41a2.93,2.93,0,0,1-.06-.62c0-.2,0-.44-.44-.44h-.81Zm0-1.35h.77c.25,0,.51-.06.51-.43a.39.39,0,0,0-.45-.42h-.83Z" transform="translate(-334.69 -397.97)" style="fill:#3a2050"/></svg>