<svg id="Calque_1" data-name="Calque 1" xmlns="http://www.w3.org/2000/svg" width="13.95mm" height="13.94mm" viewBox="0 0 39.53 39.53"><title>Pain</title><path d="M10.73,39.78A10.31,10.31,0,0,1,3.21,37C.06,33.84-.46,28.55,1.78,22.48a.54.54,0,0,1,.07-.13.58.58,0,0,1,.63-.53h0a12.45,12.45,0,0,1,1.37.12,1.26,1.26,0,0,0-.12-2.28.63.63,0,0,1-.34-.36.57.57,0,0,1,0-.48l.06-.12v-.06A33.5,33.5,0,0,1,6,14.74H6a.59.59,0,0,1,.51-.28h0c.64,0,1.28,0,1.91.06a1.28,1.28,0,0,0,1.1-1.26,1.25,1.25,0,0,0-.59-1.06.64.64,0,0,1-.27-.43.6.6,0,0,1,.16-.48v0h0c.39-.42.79-.84,1.2-1.25h0a42.72,42.72,0,0,1,3.31-3,.59.59,0,0,1,.38-.14H16.3a1.26,1.26,0,0,0,1.14-1.8.6.6,0,0,1-.21-.55.57.57,0,0,1,.3-.45h0C25.39-.61,33.08-1,37.14,3.05c2.74,2.74,3.5,7.09,2.14,12.25a33.92,33.92,0,0,1-9,14.8,33.92,33.92,0,0,1-14.8,9A18.6,18.6,0,0,1,10.73,39.78Zm-8-16.49C.86,28.73,1.32,33.4,4.06,36.13c2.42,2.43,6.36,3.08,11.1,1.83a32.66,32.66,0,0,0,14.25-8.71A32.72,32.72,0,0,0,38.12,15c1.24-4.74.59-8.68-1.83-11.1C32.88.48,26.44.67,19.62,4.29a27.94,27.94,0,0,1,7.81,2.55c1.52.8,5.88,3.69,5.88,6.42a2.44,2.44,0,0,1-2.44,2.46,2.4,2.4,0,0,1-1.56-.55,4.53,4.53,0,0,1-.94-1.06,6.53,6.53,0,0,0-1.89-1.85c-3.15-2.09-7.87-3.49-13-3.84-.89.74-1.75,1.53-2.58,2.36l-.27.27A31.14,31.14,0,0,1,22.9,14.14c1.52.8,5.88,3.68,5.88,6.42A2.46,2.46,0,0,1,26.37,23a2.41,2.41,0,0,1-1.52-.54,4.79,4.79,0,0,1-1-1.06A6.61,6.61,0,0,0,22,19.56C18.69,17.35,13.83,16,8.46,15.68H6.78c-.64.9-1.23,1.82-1.76,2.74a30.77,30.77,0,0,1,11.24,3c1.24.65,5.89,3.64,5.89,6.42a2.45,2.45,0,0,1-2.45,2.45h0a2.42,2.42,0,0,1-1.53-.54,4.53,4.53,0,0,1-.94-1.06,6.57,6.57,0,0,0-1.9-1.85A26,26,0,0,0,4,23.17a2.53,2.53,0,0,1-.77.12Zm2.59-1.16A26.45,26.45,0,0,1,16,25.86,7.73,7.73,0,0,1,18.2,28a3.81,3.81,0,0,0,.72.83,1.29,1.29,0,0,0,.78.27A1.25,1.25,0,0,0,21,27.9v0c0-1.83-3.47-4.43-5.24-5.35A29,29,0,0,0,5.44,19.67a2.51,2.51,0,0,1-.09,2.46Zm4.94-7.51a27.59,27.59,0,0,1,12.38,3.94,7.64,7.64,0,0,1,2.2,2.15,5.17,5.17,0,0,0,.72.83,1.29,1.29,0,0,0,.78.27,1.25,1.25,0,0,0,1.25-1.25c0-1.83-3.47-4.43-5.24-5.35a29.78,29.78,0,0,0-11.85-3,2.45,2.45,0,0,1-.24,2.37Zm7.32-6.91a25.4,25.4,0,0,1,9.55,3.55,7.64,7.64,0,0,1,2.2,2.15,3.81,3.81,0,0,0,.72.83,1.29,1.29,0,0,0,.78.27,1.25,1.25,0,0,0,1.25-1.25c0-1.83-3.47-4.43-5.24-5.35a26.68,26.68,0,0,0-8.12-2.55,1.13,1.13,0,0,1,0,.26,2.47,2.47,0,0,1-1.11,2.09Z" transform="translate(-0.41 -0.26)" style="fill:#3e1051"/></svg>