<svg id="Calque_1" data-name="Calque 1" xmlns="http://www.w3.org/2000/svg" width="15.38mm" height="12.02mm" viewBox="0 0 43.6 34.08"><title>Patisserie</title><rect x="26.04" y="16.86" width="1.2" height="35.46" transform="translate(-12.75 51.37) rotate(-80.82)" style="fill:#3e1051"/><rect x="7.48" y="19.04" width="1.2" height="10.72" transform="translate(-12.39 3.64) rotate(-30.96)" style="fill:#3e1051"/><path d="M43.82,35.1,10.46,29.54,4.59,19.76l.26-.33a31.09,31.09,0,0,1,9.39-7.51A28.53,28.53,0,0,1,18.5,10.2l.36,1.14A27.25,27.25,0,0,0,14.78,13a30.35,30.35,0,0,0-8.72,6.88l5.15,8.58L44,33.92Z" transform="translate(-1 -3.99)" style="fill:#3e1051"/><rect x="35.06" y="16.48" width="1.2" height="16.77" transform="translate(4.28 51.96) rotate(-80.54)" style="fill:#3e1051"/><rect x="12.99" y="12.8" width="1.2" height="16.77" transform="translate(-10.54 27.12) rotate(-80.54)" style="fill:#3e1051"/><rect x="42.32" y="22.25" width="1.2" height="11.03" style="fill:#3e1051"/><path d="M21,18.75a16.06,16.06,0,0,1-5.11-.65l-.27-.1-.1-.22c-1.74-3.48.44-5.41,2-6.81l.72-.65c.6-.58.86-1,.86-1.38v-.6h.6a6.74,6.74,0,0,1,3.52,1A8.08,8.08,0,0,1,27,15a3.43,3.43,0,0,1-.72,3l-.09.09-.13.05A16,16,0,0,1,21,18.75ZM16.48,17a16.41,16.41,0,0,0,4.47.51A16.29,16.29,0,0,0,25.51,17a2.57,2.57,0,0,0,.31-1.84,6.92,6.92,0,0,0-3.18-4.83,5.52,5.52,0,0,0-2.4-.77,4.06,4.06,0,0,1-1.14,1.63c-.23.22-.49.45-.76.68C16.81,13.25,15.35,14.53,16.48,17Z" transform="translate(-1 -3.99)" style="fill:#3e1051"/><path d="M44.6,38.07,8.6,32.3,1.05,19c0-.17-.5-4.2,1.53-6.49A4.55,4.55,0,0,1,5.88,11a5.59,5.59,0,0,1,5.49-2.85A3.93,3.93,0,0,1,13.1,6.24a5,5,0,0,1,4,0c1-1.06,4.59-4.07,8.82-.69l.15.13L27,9.38,44.52,26ZM9.38,31.21l34,5.45L43.32,26.5,25.92,10,25,6.37c-4-3.05-7.14.78-7.27.94l-.28.35L17,7.5a4.1,4.1,0,0,0-3.39-.19A2.73,2.73,0,0,0,12.3,8.92l-.15.59-.58-.15C8.41,8.57,6.8,11.67,6.74,11.8l-.17.33H6.24a3.44,3.44,0,0,0-2.76,1.13C2,15,2.17,18.07,2.23,18.7Z" transform="translate(-1 -3.99)" style="fill:#3e1051"/><path d="M23,10.43l-.15-1.19A17.14,17.14,0,0,1,26.5,9.1l-.12,1.19A17.36,17.36,0,0,0,23,10.43Z" transform="translate(-1 -3.99)" style="fill:#3e1051"/></svg>