<svg id="Calque_1" data-name="Calque 1" xmlns="http://www.w3.org/2000/svg" width="18.76mm" height="13.89mm" viewBox="0 0 53.17 39.38"><title>Produit service</title><path d="M13.41,37.13H13.3a.61.61,0,0,1-.38-.25L7.62,29.3a.61.61,0,0,1,.15-.84L38.49,7a.6.6,0,0,1,.45-.1.61.61,0,0,1,.38.25l5.3,7.58a.61.61,0,0,1-.15.84L13.75,37A.62.62,0,0,1,13.41,37.13ZM9,29.09l4.61,6.6L43.29,14.93l-4.61-6.6Z" transform="translate(0.32 -3.14)" style="fill:#3e1051"/><path d="M43.67,14.53a.62.62,0,0,1-.5-.25.61.61,0,0,1,.15-.84l.31-.21a1.87,1.87,0,0,1,0-.94,2.4,2.4,0,0,1,1.53-1.39c1.5-.59,5.78-3.66,6.38-5.62a.72.72,0,0,0,0-.67.71.71,0,0,0-.62-.27c-2-.12-6.44,2.87-7.48,4a2.3,2.3,0,0,1-1.84,1,1.75,1.75,0,0,1-.89-.27l-.31.21a.6.6,0,0,1-.83-.15.58.58,0,0,1,.14-.82h0l.68-.48a.6.6,0,0,1,.81.12h0a.67.67,0,0,0,.44.2h0a1.36,1.36,0,0,0,.89-.56C43.76,6.22,48.45,3,51,3.14a1.89,1.89,0,0,1,1.53.78,1.87,1.87,0,0,1,.2,1.7C52,8.08,47.34,11.35,45.66,12a1.43,1.43,0,0,0-.84.65.6.6,0,0,0,0,.49.61.61,0,0,1-.18.8l-.68.47A.5.5,0,0,1,43.67,14.53Z" transform="translate(0.32 -3.14)" style="fill:#3e1051"/><path d="M1.75,41.36H1.57A1.83,1.83,0,0,1-.2,38.87c.74-2.47,5.38-5.74,7.06-6.4.47-.19.76-.41.84-.66a.64.64,0,0,0,0-.47.6.6,0,0,1,.17-.81l.68-.47a.6.6,0,0,1,.84.16.59.59,0,0,1-.15.84l-.31.22a1.83,1.83,0,0,1,0,.93A2.4,2.4,0,0,1,7.4,33.6c-1.46.58-5.78,3.7-6.37,5.63a.74.74,0,0,0,0,.68.73.73,0,0,0,.62.26c2.05.1,6.4-2.84,7.47-4a2.5,2.5,0,0,1,1.84-1,1.89,1.89,0,0,1,.89.27l.31-.21a.62.62,0,0,1,.85.15.61.61,0,0,1-.16.85l-.69.48a.6.6,0,0,1-.81-.12h0a.67.67,0,0,0-.44-.2h0A1.36,1.36,0,0,0,10,37C8.83,38.23,4.34,41.36,1.75,41.36Z" transform="translate(0.32 -3.14)" style="fill:#3e1051"/><path d="M12.92,23.42h-.07a.61.61,0,0,1-.53-.67c0-.06.76-6.09,6.05-7.27.53-1.06,2.55-4.79,5.33-6.05,3.41-1.54,6.75,1,6.89,1.1a.61.61,0,0,1,.14.86.62.62,0,0,1-.87.14s-2.92-2.19-5.66-1-4.86,5.69-4.88,5.74a.62.62,0,0,1-.43.34c-4.7.85-5.37,6.24-5.38,6.29A.59.59,0,0,1,12.92,23.42Z" transform="translate(0.32 -3.14)" style="fill:#3e1051"/><path d="M26.76,42.51c-7.21,0-8.43-7.11-8.44-7.19a.6.6,0,0,1,.49-.69h0a.62.62,0,0,1,.69.5c0,.29,1.25,7.19,8.89,6.06,2.68-.4,4.58-1.37,5.66-2.89A5.65,5.65,0,0,0,35,34.37a.6.6,0,0,1,.43-.69c.23-.07,5.72-1.67,6.15-6.81a8.51,8.51,0,0,0-1.86-6.23.59.59,0,0,1,0-.83h0a.61.61,0,0,1,.85,0A9.55,9.55,0,0,1,42.75,27c-.42,5.07-5,7.14-6.53,7.7A6.78,6.78,0,0,1,35.05,39c-1.27,1.8-3.45,2.94-6.47,3.39A11.06,11.06,0,0,1,26.76,42.51Z" transform="translate(0.32 -3.14)" style="fill:#3e1051"/></svg>