<svg id="Calque_1" data-name="Calque 1" xmlns="http://www.w3.org/2000/svg" width="12.97mm" height="14.54mm" viewBox="0 0 36.75 41.22"><title>reception sucrée</title><path d="M30.61,30.21a4.93,4.93,0,0,1-2-.43,2.31,2.31,0,0,0-.89-.24,4,4,0,0,0-1.26.31,5.19,5.19,0,0,1-1.65.36,5.19,5.19,0,0,1-1.65-.36,4.23,4.23,0,0,0-1.26-.31,4,4,0,0,0-1.26.31,5.19,5.19,0,0,1-1.65.36,5.19,5.19,0,0,1-1.65-.36,4.23,4.23,0,0,0-1.26-.31,4,4,0,0,0-1.26.31,5.19,5.19,0,0,1-1.65.36,5.19,5.19,0,0,1-1.65-.36,4.23,4.23,0,0,0-1.26-.31,2.36,2.36,0,0,0-.9.24,4.93,4.93,0,0,1-2,.43,3.38,3.38,0,0,1-3.44-3.32v-.35c0-3.23,8-5.49,15.08-5.49s15,2.26,15,5.49v.19a3.37,3.37,0,0,1-3.26,3.48ZM27.7,28.34a3.31,3.31,0,0,1,1.34.33,3.71,3.71,0,0,0,1.57.35,2.21,2.21,0,0,0,2.23-2.21v-.27c0-1.93-6.4-4.29-13.87-4.29S5.09,24.61,5.09,26.54v.09A2.26,2.26,0,0,0,7.22,29h.11a3.66,3.66,0,0,0,1.56-.35,3.31,3.31,0,0,1,1.35-.33,5.2,5.2,0,0,1,1.65.37,4,4,0,0,0,1.26.31,4.23,4.23,0,0,0,1.26-.31,5,5,0,0,1,1.65-.37,5.2,5.2,0,0,1,1.65.37A4.13,4.13,0,0,0,19,29a4.23,4.23,0,0,0,1.26-.31,5,5,0,0,1,1.65-.37,5.2,5.2,0,0,1,1.65.37,4,4,0,0,0,1.26.31A4,4,0,0,0,26,28.71,5.23,5.23,0,0,1,27.7,28.34Z" transform="translate(-3.92 -0.78)" style="fill:#3e1051"/><path d="M6.83,34.61a2.81,2.81,0,0,1,0-5.61.6.6,0,0,1,0,1.2,1.62,1.62,0,0,0,0,3.21.6.6,0,0,1,0,1.2Z" transform="translate(-3.92 -0.78)" style="fill:#3e1051"/><path d="M31,34.61a.6.6,0,0,1,0-1.2h0a1.62,1.62,0,0,0,0-3.21A.6.6,0,1,1,31,29h0a2.81,2.81,0,0,1,0,5.61Z" transform="translate(-3.92 -0.78)" style="fill:#3e1051"/><path d="M19,42c-7.13,0-15.08-2.25-15.08-5.48v-.1c0-1.15.45-2.91,3.44-2.91a3.66,3.66,0,0,0,1.56-.35,3.3,3.3,0,0,1,1.35-.32,5,5,0,0,1,1.65.37,4.54,4.54,0,0,0,1.26.3,4.54,4.54,0,0,0,1.26-.3,5,5,0,0,1,1.65-.37,5.2,5.2,0,0,1,1.65.37,4.54,4.54,0,0,0,1.26.3,4.54,4.54,0,0,0,1.26-.3,5,5,0,0,1,1.65-.37,5.2,5.2,0,0,1,1.65.37,4.54,4.54,0,0,0,1.26.3,4.48,4.48,0,0,0,1.25-.3,5.26,5.26,0,0,1,1.66-.37,3.3,3.3,0,0,1,1.35.32,3.66,3.66,0,0,0,1.56.35c3,0,3.43,1.76,3.43,2.81v.2C34,39.71,26.1,42,19,42Zm-8.73-8a2.36,2.36,0,0,0-.9.24,4.93,4.93,0,0,1-2,.43c-2,0-2.24.82-2.24,1.61v.2c0,1.93,6.41,4.28,13.88,4.28s13.87-2.35,13.87-4.28v-.2c0-.79-.26-1.61-2.23-1.61a4.93,4.93,0,0,1-2-.43A2.26,2.26,0,0,0,27.7,34a4.54,4.54,0,0,0-1.26.3,5.2,5.2,0,0,1-1.65.37,5,5,0,0,1-1.65-.37,4.54,4.54,0,0,0-1.26-.3,4.54,4.54,0,0,0-1.26.3,5.2,5.2,0,0,1-1.65.37,5,5,0,0,1-1.65-.37,4.54,4.54,0,0,0-1.26-.3,4.54,4.54,0,0,0-1.26.3,5.2,5.2,0,0,1-1.65.37,5,5,0,0,1-1.65-.37,4.54,4.54,0,0,0-1.26-.3Z" transform="translate(-3.92 -0.78)" style="fill:#3e1051"/><path d="M13,11.78a3.31,3.31,0,0,1-3.34-3l.57-.26-.59.07C9.33,5.34,17,2.05,24,1.11,30.11.3,36.22,1,38.56,2.88a2.49,2.49,0,0,1,1,1.69v.19a3.47,3.47,0,0,1-3,3.9h0a4.67,4.67,0,0,1-2-.16,2.33,2.33,0,0,0-.91-.12,4.12,4.12,0,0,0-1.22.47,5.13,5.13,0,0,1-1.6.58,5,5,0,0,1-1.68-.14,4,4,0,0,0-1.28-.14,4.75,4.75,0,0,0-1.22.47,5.25,5.25,0,0,1-1.59.59,5.3,5.3,0,0,1-1.68-.15,4.33,4.33,0,0,0-1.29-.14,4.82,4.82,0,0,0-1.21.47,5.41,5.41,0,0,1-1.6.59,5.3,5.3,0,0,1-1.68-.15,4,4,0,0,0-1.28-.13,2.28,2.28,0,0,0-.87.35,4.87,4.87,0,0,1-1.95.7A4.19,4.19,0,0,1,13,11.78ZM10.87,8.41V8.5a2.3,2.3,0,0,0,.81,1.63,2.17,2.17,0,0,0,1.65.43A4,4,0,0,0,14.86,10a3.23,3.23,0,0,1,1.3-.5,5,5,0,0,1,1.68.14,4,4,0,0,0,1.28.14,4.12,4.12,0,0,0,1.22-.47,5.13,5.13,0,0,1,1.6-.58,5,5,0,0,1,1.68.14A4.26,4.26,0,0,0,24.9,9a4.12,4.12,0,0,0,1.22-.47A5.23,5.23,0,0,1,27.71,8a5.3,5.3,0,0,1,1.68.15,4,4,0,0,0,1.28.14,5,5,0,0,0,1.23-.47,5.25,5.25,0,0,1,1.59-.59,3.22,3.22,0,0,1,1.38.15,3.52,3.52,0,0,0,1.58.13,2.28,2.28,0,0,0,2-2.52V4.74a1.34,1.34,0,0,0-.6-.87c-2-1.61-8-2.28-13.62-1.53C16.77,3.29,10.67,6.49,10.87,8.41Z" transform="translate(-3.92 -0.78)" style="fill:#3e1051"/><path d="M13.15,16.2a2.44,2.44,0,0,1-1.51-.53,2.82,2.82,0,0,1-1.05-1.95,2.76,2.76,0,0,1,2.25-3.11.59.59,0,0,1,.67.5h0a.6.6,0,0,1-.51.68h0a1.56,1.56,0,0,0-1.22,1.79,1.67,1.67,0,0,0,.6,1.13,1.25,1.25,0,0,0,.93.27.6.6,0,0,1,.68.51h0a.61.61,0,0,1-.52.68Z" transform="translate(-3.92 -0.78)" style="fill:#3e1051"/><path d="M37.36,13a.61.61,0,0,1-.57-.63.62.62,0,0,1,.5-.56A1.57,1.57,0,0,0,38.5,10a1.67,1.67,0,0,0-.6-1.13A1.22,1.22,0,0,0,37,8.6a.6.6,0,0,1-.67-.52.59.59,0,0,1,.48-.67h0a2.41,2.41,0,0,1,1.83.51,2.88,2.88,0,0,1,1,1.95A2.78,2.78,0,0,1,37.44,13Z" transform="translate(-3.92 -0.78)" style="fill:#3e1051"/><path d="M21.44,22.19c-4.23,0-7.94-.75-9.64-2.09a2.56,2.56,0,0,1-1.06-1.69h0v-.1c-.12-1.13.13-2.93,3.09-3.33a3.76,3.76,0,0,0,1.52-.55,3.23,3.23,0,0,1,1.3-.5,5,5,0,0,1,1.68.15,4.26,4.26,0,0,0,1.28.13,4.12,4.12,0,0,0,1.22-.47,5,5,0,0,1,1.59-.58,4.81,4.81,0,0,1,1.69.15,4.26,4.26,0,0,0,1.28.13,3.94,3.94,0,0,0,1.2-.44,5.13,5.13,0,0,1,1.6-.58,4.78,4.78,0,0,1,1.68.15,4.26,4.26,0,0,0,1.28.13,4.12,4.12,0,0,0,1.22-.47,5.13,5.13,0,0,1,1.6-.58,3.41,3.41,0,0,1,1.38.14,3.68,3.68,0,0,0,1.58.14,3.6,3.6,0,0,1,2.8.51,2.58,2.58,0,0,1,.93,1.84v.19C41,17.67,33.37,21,26.3,21.9A37.62,37.62,0,0,1,21.44,22.19Zm-9.5-3.91a1.34,1.34,0,0,0,.6.87c2,1.61,8,2.28,13.62,1.53,7.42-1,13.53-4.19,13.33-6.11v-.19a1.42,1.42,0,0,0-.48-1,2.58,2.58,0,0,0-1.9-.26,4.87,4.87,0,0,1-2.11-.2,2.16,2.16,0,0,0-.91-.11,4.39,4.39,0,0,0-1.22.46,5.41,5.41,0,0,1-1.6.59,5.3,5.3,0,0,1-1.68-.15,4,4,0,0,0-1.28-.13,4.12,4.12,0,0,0-1.22.47,5.39,5.39,0,0,1-1.6.58,5,5,0,0,1-1.68-.15,4.26,4.26,0,0,0-1.28-.13,4.12,4.12,0,0,0-1.22.47,5,5,0,0,1-1.59.58A5,5,0,0,1,18,15.25a4.32,4.32,0,0,0-1.29-.13,2.4,2.4,0,0,0-.86.35,4.87,4.87,0,0,1-2,.7c-2,.27-2.14,1.16-2.06,1.92l-.58.25Z" transform="translate(-3.92 -0.78)" style="fill:#3e1051"/></svg>