<svg id="Calque_1" data-name="Calque 1" xmlns="http://www.w3.org/2000/svg" width="13.77mm" height="15.48mm" viewBox="0 0 39.04 43.88"><title>reception salée</title><path d="M29.05,17.72a5.66,5.66,0,1,1,5.66-5.66h0A5.68,5.68,0,0,1,29.05,17.72Zm0-10.11a4.46,4.46,0,1,0,4.46,4.46h0A4.46,4.46,0,0,0,29.05,7.61Z" transform="translate(-3.37 -0.4)" style="fill:#3e1051"/><path d="M29.05,7.29a.6.6,0,0,1-.6-.6h0V1a.6.6,0,0,1,1.2,0V6.69a.6.6,0,0,1-.6.6Z" transform="translate(-3.37 -0.4)" style="fill:#3e1051"/><path d="M36,22.46H22.09a.58.58,0,0,1-.59-.59h0V19.33a.58.58,0,0,1,.57-.59H36a.58.58,0,0,1,.6.58h0v2.53A.6.6,0,0,1,36,22.46Zm-13.31-1.2H35.4V19.93H22.69Z" transform="translate(-3.37 -0.4)" style="fill:#3e1051"/><path d="M31.67,29.61a.59.59,0,0,1-.57-.41.61.61,0,0,1,.38-.76,5.21,5.21,0,0,0,3.82-3.76H22.53a.6.6,0,1,1,0-1.2H36a.6.6,0,0,1,.6.6c0,2.41-1.84,4.57-4.69,5.5Z" transform="translate(-3.37 -0.4)" style="fill:#3e1051"/><path d="M17,44.27h-.21l-13-4.73A.61.61,0,0,1,3.4,39V27.71a.57.57,0,0,1,.39-.56L17.18,22.2a.61.61,0,0,1,.42,0l13.88,5.28a.61.61,0,0,1,.38.57l-.12,10.3a.6.6,0,0,1-.38.56L17.17,44.23ZM4.56,38.52,17,43l13.59-5.1.11-9.47-13.32-5L4.56,28.13Z" transform="translate(-3.37 -0.4)" style="fill:#3e1051"/><path d="M17,38.36h-.2l-8.28-3a.6.6,0,1,1,.41-1.13h0l8.27,3a.6.6,0,0,1-.2,1.17Z" transform="translate(-3.37 -0.4)" style="fill:#3e1051"/><path d="M16.9,33.88h-.22l-12.94-5a.6.6,0,0,1,.43-1.12l12.73,4.9L31.06,27.5a.6.6,0,1,1,.41,1.13L17.1,33.84A.65.65,0,0,1,16.9,33.88Z" transform="translate(-3.37 -0.4)" style="fill:#3e1051"/><path d="M17,44.27a.6.6,0,0,1-.6-.6V36.05a.6.6,0,1,1,1.2,0v7.62a.6.6,0,0,1-.6.6Z" transform="translate(-3.37 -0.4)" style="fill:#3e1051"/><path d="M17.26,41a.61.61,0,0,1-.57-.39.62.62,0,0,1,.35-.78l9.46-3.54A.6.6,0,0,1,27,37.38l-.09,0L17.47,41Z" transform="translate(-3.37 -0.4)" style="fill:#3e1051"/><path d="M31.94,32.77a.61.61,0,0,1-.56-.39.6.6,0,0,1,.33-.77h0l8.36-3.27-4.9-1.61a.6.6,0,0,1-.35-.77.6.6,0,0,1,.72-.37L42,27.72a.59.59,0,0,1,.41.56.58.58,0,0,1-.38.57l-9.91,3.87A.61.61,0,0,1,31.94,32.77Z" transform="translate(-3.37 -0.4)" style="fill:#3e1051"/></svg>