<svg id="Calque_1" data-name="Calque 1" xmlns="http://www.w3.org/2000/svg" width="15.76mm" height="14.5mm" viewBox="0 0 44.66 41.09"><title>Snacking</title><path d="M44.06,30.64A5.19,5.19,0,0,1,41,29a4.56,4.56,0,0,0-2.26-1.32A4.58,4.58,0,0,0,36.5,29a5.21,5.21,0,0,1-3,1.6,5.21,5.21,0,0,1-3-1.6,4.59,4.59,0,0,0-2.27-1.32A4.55,4.55,0,0,0,25.91,29a5.27,5.27,0,0,1-3,1.6,5.27,5.27,0,0,1-3-1.6,4.56,4.56,0,0,0-2.26-1.32A4.65,4.65,0,0,0,15.31,29a5.21,5.21,0,0,1-3,1.6,5.21,5.21,0,0,1-3-1.6A4.61,4.61,0,0,0,7,27.72,4.6,4.6,0,0,0,4.72,29a5.21,5.21,0,0,1-3,1.6.6.6,0,0,1,0-1.2A4.6,4.6,0,0,0,4,28.12a5.15,5.15,0,0,1,3-1.6,5.27,5.27,0,0,1,3,1.6,4.56,4.56,0,0,0,2.26,1.32,4.59,4.59,0,0,0,2.27-1.32,5.21,5.21,0,0,1,3-1.6,5.21,5.21,0,0,1,3,1.6,4.59,4.59,0,0,0,2.27,1.32,4.61,4.61,0,0,0,2.26-1.32,5.21,5.21,0,0,1,3-1.6,5.21,5.21,0,0,1,3,1.6,4.59,4.59,0,0,0,2.27,1.32,4.56,4.56,0,0,0,2.26-1.32,5.27,5.27,0,0,1,3-1.6,5.27,5.27,0,0,1,3,1.6,4.56,4.56,0,0,0,2.26,1.32.6.6,0,1,1,0,1.2Z" transform="translate(-0.56 -0.51)" style="fill:#3e1051"/><path d="M43.86,41.6h-42a1.34,1.34,0,0,1-1.3-1.33v-6.2a1.34,1.34,0,0,1,1.33-1.33h42a1.34,1.34,0,0,1,1.33,1.33h0v6.2a1.34,1.34,0,0,1-1.35,1.33Zm-42-7.66a.13.13,0,0,0-.13.13h0v6.2a.13.13,0,0,0,.13.13h42a.13.13,0,0,0,.13-.13h0v-6.2a.13.13,0,0,0-.13-.13h-42Z" transform="translate(-0.56 -0.51)" style="fill:#3e1051"/><path d="M44.39,16.49a.59.59,0,0,1-.42-.17L30,2.55c-1.2-1.18-3.47-1-4.89-.16L1.67,16.24a.58.58,0,0,1-.8-.2l0,0a.59.59,0,0,1,.2-.81h0L24.42,1.35c1.83-1.09,4.71-1.26,6.34.34L44.81,15.46a.6.6,0,0,1,0,.85h0A.6.6,0,0,1,44.39,16.49Z" transform="translate(-0.56 -0.51)" style="fill:#3e1051"/><path d="M43.86,24h-42a1.33,1.33,0,0,1-1.3-1.35v-6.2a1.34,1.34,0,0,1,1.33-1.33h42a1.34,1.34,0,0,1,1.33,1.33h0v6.2A1.34,1.34,0,0,1,43.89,24Zm-42-7.66a.13.13,0,0,0-.13.13v6.2a.13.13,0,0,0,.13.13h42a.13.13,0,0,0,.13-.13h0v-6.2a.13.13,0,0,0-.13-.13h-42Z" transform="translate(-0.56 -0.51)" style="fill:#3e1051"/></svg>