<svg id="Calque_1" data-name="Calque 1" xmlns="http://www.w3.org/2000/svg" width="14.54mm" height="14.54mm" viewBox="0 0 41.22 41.22"><title>Viennoiserie ameÌricaine</title><path d="M21.09,41.58A20.61,20.61,0,1,1,41.7,21v0A20.63,20.63,0,0,1,21.09,41.58Zm0-40A19.41,19.41,0,1,0,40.5,21,19.41,19.41,0,0,0,21.09,1.58Z" transform="translate(-0.48 -0.36)" style="fill:#3e1051"/><path d="M21.09,25.87A4.9,4.9,0,1,1,26,21v0A4.9,4.9,0,0,1,21.09,25.87Zm0-8.6a3.7,3.7,0,1,0,3.7,3.7,3.7,3.7,0,0,0-3.7-3.7Z" transform="translate(-0.48 -0.36)" style="fill:#3e1051"/><path d="M21.26,11A.57.57,0,0,1,21,11L18.1,9.63a.6.6,0,1,1,.51-1.09l2.9,1.35a.6.6,0,0,1,.3.79A.62.62,0,0,1,21.26,11Z" transform="translate(-0.48 -0.36)" style="fill:#3e1051"/><path d="M15,10.26a.61.61,0,0,1-.45-.2L12.37,7.68a.6.6,0,0,1,.83-.86l0,0,2.15,2.38a.61.61,0,0,1,0,.85A.66.66,0,0,1,15,10.26Z" transform="translate(-0.48 -0.36)" style="fill:#3e1051"/><path d="M24,8.14a.59.59,0,0,1-.35-1.08h0l2.67-1.78a.6.6,0,1,1,.67,1h0L24.29,8A.61.61,0,0,1,24,8.14Z" transform="translate(-0.48 -0.36)" style="fill:#3e1051"/><path d="M29.44,19.78a.53.53,0,0,1-.3-.09.58.58,0,0,1-.23-.8v0l1.63-2.76a.6.6,0,0,1,1.14.39.64.64,0,0,1-.14.22L30,19.48A.58.58,0,0,1,29.44,19.78Z" transform="translate(-0.48 -0.36)" style="fill:#3e1051"/><path d="M11.55,16a.6.6,0,0,1-.06-1.2l3.18-.36a.61.61,0,0,1,.67.53.6.6,0,0,1-.53.66L11.62,16Z" transform="translate(-0.48 -0.36)" style="fill:#3e1051"/><path d="M7.48,14a.61.61,0,0,1-.3-.08A.62.62,0,0,1,7,13.09l1.63-2.76a.6.6,0,0,1,1,.6h0L8,13.7A.6.6,0,0,1,7.48,14Z" transform="translate(-0.48 -0.36)" style="fill:#3e1051"/><path d="M35.12,12.33a.57.57,0,0,1-.28-.08L32,10.74a.59.59,0,0,1-.25-.8h0a.61.61,0,0,1,.81-.25L35.4,11.2a.59.59,0,0,1,.25.8h0A.6.6,0,0,1,35.12,12.33Z" transform="translate(-0.48 -0.36)" style="fill:#3e1051"/><path d="M28.86,13.44a.59.59,0,0,1-.59-.51l-.46-3.18A.6.6,0,1,1,29,9.58h0l.46,3.17a.6.6,0,0,1-.49.68h-.11Z" transform="translate(-0.48 -0.36)" style="fill:#3e1051"/><path d="M16.1,6.11a.6.6,0,0,1-.1-1.2h0l3.16-.53a.61.61,0,0,1,.69.49.59.59,0,0,1-.47.69h0L16.2,6.1Z" transform="translate(-0.48 -0.36)" style="fill:#3e1051"/><path d="M24.47,36.65a3,3,0,0,1-3.16-2.83V30.33a1.86,1.86,0,0,0-2-1.71h0a1.88,1.88,0,0,0-2,1.71v.33a3,3,0,0,1-3.08,2.91h-.08A3,3,0,0,1,11,30.74V22.16a1.84,1.84,0,0,0-2-1.71H9a1.85,1.85,0,0,0-2,1.69v2.52a3,3,0,0,1-3,2.91,3.05,3.05,0,0,1-3.19-2.9h0a.6.6,0,0,1,1.2,0,1.84,1.84,0,0,0,2,1.71H4a1.85,1.85,0,0,0,2-1.69V22.16A3.05,3.05,0,0,1,9.1,19.24a3,3,0,0,1,3.16,2.92v8.5a1.85,1.85,0,0,0,2,1.72h0a1.89,1.89,0,0,0,2-1.72v-.33a3,3,0,0,1,3.08-2.91h.08a3,3,0,0,1,3.17,2.82v3.5a1.84,1.84,0,0,0,2,1.71h0a1.88,1.88,0,0,0,2-1.71V25a2.83,2.83,0,0,1,1.09-2.2,3.28,3.28,0,0,1,2-.8,3.06,3.06,0,0,1,3.16,2.91v2.52A1.94,1.94,0,0,0,35,29.14a2.27,2.27,0,0,0,1.64-.54,1.54,1.54,0,0,0,.44-1.13V18.69a2.84,2.84,0,0,1,1.1-2.2,3.25,3.25,0,0,1,2.17-.8.6.6,0,1,1,0,1.2h0a2.06,2.06,0,0,0-1.4.52,1.65,1.65,0,0,0-.67,1.28v8.78a2.72,2.72,0,0,1-.8,2,3.46,3.46,0,0,1-2.51.88,3.12,3.12,0,0,1-3.28-2.93V24.87a1.84,1.84,0,0,0-2-1.71h0a2.06,2.06,0,0,0-1.4.52A1.63,1.63,0,0,0,27.63,25v8.78a3,3,0,0,1-3.12,2.87Z" transform="translate(-0.48 -0.36)" style="fill:#3e1051"/><path d="M35,22.26a.58.58,0,0,1-.52-.32l-1.54-2.81A.6.6,0,0,1,34,18.55l1.54,2.82a.6.6,0,0,1-.24.81A.61.61,0,0,1,35,22.26Z" transform="translate(-0.48 -0.36)" style="fill:#3e1051"/><path d="M6.4,18A.61.61,0,0,1,6,17.8L3.8,15.39a.59.59,0,0,1,0-.83h0a.58.58,0,0,1,.82,0l0,0L6.84,17a.6.6,0,0,1,0,.85h0A.59.59,0,0,1,6.4,18Z" transform="translate(-0.48 -0.36)" style="fill:#3e1051"/><path d="M24.58,15.19h-.09A.61.61,0,0,1,24,14.5l.45-3.17a.6.6,0,1,1,1.19.17l-.45,3.17A.6.6,0,0,1,24.58,15.19Z" transform="translate(-0.48 -0.36)" style="fill:#3e1051"/></svg>