<svg id="Calque_1" data-name="Calque 1" xmlns="http://www.w3.org/2000/svg" width="13.74mm" height="13.73mm" viewBox="0 0 38.94 38.92"><title>Viennoiserie</title><path d="M19.57,39.87A15.83,15.83,0,0,1,15,39.08a16.24,16.24,0,0,1-4.61-2.32.6.6,0,0,1-.15-.83.61.61,0,0,1,.84-.15,15.67,15.67,0,0,0,4.28,2.16c3.67,1.14,6.54.94,7.16-.51.41-1,.18-1.21-1-2.08a15,15,0,0,1-1.67-1.41,6.33,6.33,0,0,1-.76-.95.61.61,0,0,1,.19-.83.6.6,0,0,1,.83.19h0a4.26,4.26,0,0,0,.59.74,14.7,14.7,0,0,0,1.54,1.3c1.15.87,2.15,1.62,1.35,3.51C23,39.33,21.45,39.87,19.57,39.87Z" transform="translate(-0.59 -0.95)" style="fill:#3e1051"/><path d="M19.85,25.36a2.68,2.68,0,0,1-1.56-.54A40.51,40.51,0,0,1,4,14.62a1.5,1.5,0,0,1-.6-1.06c-.2-2.05,3.3-5.81,3.45-6l.09-.1.06,0,.45.39L7,7.39H7l.1-.1c.22-.2,4-3.72,6-3.51a1.45,1.45,0,0,1,1,.59A40.73,40.73,0,0,1,24.48,18.66a2.32,2.32,0,0,1-.05,3l-3.09,3.09A2.13,2.13,0,0,1,19.85,25.36ZM7.38,7.91l.4.44C6.4,9.82,4.49,12.4,4.59,13.44a.19.19,0,0,0,.1.19l.15.13a39.37,39.37,0,0,0,14,10,.57.57,0,0,1,.13.08,1.2,1.2,0,0,0,1.53.1l3.08-3.07a1.18,1.18,0,0,0-.06-1.51l-.1-.17a39.37,39.37,0,0,0-10-14l-.08-.09a.24.24,0,0,0-.25-.1c-1.06-.1-3.62,1.81-5,3.13l-.5-.35L8,8.15l-.1.1h0Z" transform="translate(-0.59 -0.95)" style="fill:#3e1051"/><path d="M14.92,30a33.89,33.89,0,0,1-12.7-2.84A2.46,2.46,0,0,1,.8,25.53c-1-3.14,1.92-9.92,3.1-11.69a.59.59,0,0,1,.81-.18h0a.6.6,0,0,1,.17.83c-1.23,1.86-3.75,8.12-3,10.67a1.23,1.23,0,0,0,.72.88c5.93,2.37,10.6,3.16,15.15,2.58.63-.09,1.29-.44,1.33-.95l.23-2.83a.58.58,0,0,1,.6-.56H20a.6.6,0,0,1,.55.65h0l-.22,2.83a2.5,2.5,0,0,1-2.38,2A23.62,23.62,0,0,1,14.92,30Z" transform="translate(-0.59 -0.95)" style="fill:#3e1051"/><path d="M9.29,36.49c-1.31,0-2.55-1.19-3.37-2.2C4.19,32.16,2.57,28.65,3,27.15a.61.61,0,0,1,.74-.42.6.6,0,0,1,.41.74c-.22.8.9,3.84,2.71,6.06.94,1.16,1.83,1.8,2.5,1.76,5-.33,6.85-1.21,9.39-3.19.55-.43.51-.52.45-.67l-.82-1.94a.6.6,0,1,1,1.1-.49l.81,2a1.7,1.7,0,0,1-.81,2.09c-2.75,2.13-4.75,3.08-10,3.43Z" transform="translate(-0.59 -0.95)" style="fill:#3e1051"/><path d="M36.32,24.27c-1,0-1.63-.77-2.28-1.63a12.86,12.86,0,0,0-1.3-1.55A3.84,3.84,0,0,0,32,20.5a.6.6,0,0,1-.18-.83h0a.58.58,0,0,1,.81-.18h0a5.28,5.28,0,0,1,1,.76A14.47,14.47,0,0,1,35,21.91c.87,1.16,1.08,1.39,2.08,1,1.45-.62,1.65-3.49.51-7.16a15.67,15.67,0,0,0-2.16-4.28.62.62,0,0,1,.15-.85.61.61,0,0,1,.85.16,16.64,16.64,0,0,1,2.32,4.61c1.09,3.47,1.34,7.55-1.19,8.62A3.1,3.1,0,0,1,36.32,24.27Z" transform="translate(-0.59 -0.95)" style="fill:#3e1051"/><path d="M24.55,20.92a.6.6,0,0,1-.06-1.2h0l2.83-.23c.51,0,.86-.7.94-1.33C28.86,13.62,28.07,9,25.7,3a1.26,1.26,0,0,0-.88-.72C22.27,1.5,16,4,14.15,5.25a.6.6,0,1,1-.67-1C15.26,3.07,22,.17,25.18,1.15a2.44,2.44,0,0,1,1.63,1.42c2.45,6.13,3.27,11,2.65,15.75a2.49,2.49,0,0,1-2,2.37l-2.82.23Z" transform="translate(-0.59 -0.95)" style="fill:#3e1051"/><path d="M31.22,20.78a1.59,1.59,0,0,1-.61-.13l-1.94-.82a.6.6,0,1,1,.38-1.14l.09,0,1.93.81c.16.07.25.1.68-.45,2-2.54,2.85-4.4,3.18-9.39a3.93,3.93,0,0,0-1.75-2.5C31,5.4,27.92,4.28,27.12,4.5a.6.6,0,1,1-.32-1.16c1.5-.42,5,1.2,7.14,2.93,1.05.86,2.28,2.16,2.19,3.51-.35,5.3-1.3,7.31-3.43,10A2,2,0,0,1,31.22,20.78Z" transform="translate(-0.59 -0.95)" style="fill:#3e1051"/></svg>