<?xml version="1.0" standalone="no"?>
<!DOCTYPE svg PUBLIC "-//W3C//DTD SVG 20010904//EN"
 "http://www.w3.org/TR/2001/REC-SVG-20010904/DTD/svg10.dtd">
<svg version="1.0" xmlns="http://www.w3.org/2000/svg"
 width="700.000000pt" height="700.000000pt" viewBox="0 0 700.000000 700.000000"
 preserveAspectRatio="xMidYMid meet">
<metadata>
Created by potrace 1.11, written by Peter Selinger 2001-2013
</metadata>
<g transform="translate(0.000000,700.000000) scale(0.100000,-0.100000)"
fill="#000000" stroke="none">
<path d="M0 3500 l0 -3500 3500 0 3500 0 0 3500 0 3500 -3500 0 -3500 0 0
-3500z m3655 1675 c39 -3 93 -10 120 -15 28 -5 61 -12 75 -14 144 -27 406
-129 499 -195 16 -12 33 -21 38 -21 7 0 122 -82 193 -139 31 -24 132 -124 180
-177 190 -210 352 -540 394 -804 3 -19 8 -46 10 -60 14 -81 17 -135 18 -255 0
-74 -3 -142 -5 -152 -3 -10 -8 -45 -12 -78 -3 -33 -15 -98 -26 -144 -141 -603
-603 -1083 -1199 -1244 -52 -14 -108 -28 -125 -31 -47 -7 -106 -16 -150 -22
-55 -7 -283 -7 -336 1 -186 26 -314 57 -435 106 -509 202 -877 612 -1020 1136
-14 53 -27 108 -29 124 -2 17 -7 46 -10 67 -13 89 -16 145 -16 262 0 69 3 134
5 146 2 12 7 45 11 75 3 30 13 83 21 119 9 36 17 73 19 82 2 10 18 60 36 110
102 293 299 571 539 760 41 33 82 65 90 71 8 7 47 31 85 53 255 151 493 226
760 241 55 3 101 6 103 8 3 2 55 -1 167 -10z m2115 -2997 c178 -45 281 -179
275 -359 -2 -83 -32 -147 -90 -196 l-44 -36 27 -21 c85 -64 124 -144 124 -251
0 -39 -6 -92 -13 -116 -39 -133 -149 -224 -300 -248 -191 -31 -365 48 -430
194 -24 54 -40 155 -25 156 45 4 199 3 205 -1 4 -3 13 -24 20 -48 21 -73 85
-112 171 -105 100 8 159 88 145 198 -11 88 -71 135 -180 139 -18 1 -20 8 -20
86 0 47 1 91 3 98 3 7 21 12 47 12 51 0 97 24 120 62 9 15 14 28 11 28 -3 0
-2 10 3 23 14 37 -5 117 -36 149 -82 85 -239 40 -256 -73 -4 -23 -7 -24 -117
-27 l-112 -3 5 43 c15 110 83 215 171 260 80 42 210 58 296 36z"/>
<path d="M3437 4504 c-1 -1 -27 -4 -57 -8 -481 -49 -874 -479 -884 -970 -6
-282 97 -539 294 -736 310 -310 775 -384 1168 -186 186 94 353 263 444 452
188 387 111 848 -191 1151 -156 156 -382 266 -591 289 -68 7 -178 12 -183 8z"/>
</g>
</svg>
