<svg id="Layer_1" data-name="Layer 1" xmlns="http://www.w3.org/2000/svg" width="34.53mm" height="14.46mm" viewBox="0 0 97.89 41"><title>aryzta</title><path d="M382.9,316a1.29,1.29,0,0,0-.68-.24.61.61,0,0,0-.65.59.53.53,0,0,0,.3.46,2.41,2.41,0,0,0,.38.16c.55.19.77.45.77.86a.84.84,0,0,1-.88.83,1.42,1.42,0,0,1-.77-.26v-.28a1.65,1.65,0,0,0,.44.26.87.87,0,0,0,.32.06.61.61,0,0,0,.65-.6.59.59,0,0,0-.27-.49l-.35-.16c-.43-.15-.56-.22-.69-.42a.7.7,0,0,1-.14-.41.83.83,0,0,1,.87-.8,1.42,1.42,0,0,1,.7.19Z" transform="translate(-370.81 -277.69)" style="fill:#fff"/><path d="M387,315.82h-1.41V317H387v.19h-1.38v1.24H387v.19h-1.69v-3H387Z" transform="translate(-370.81 -277.69)" style="fill:#fff"/><path d="M389.89,315.63a1.91,1.91,0,0,1,.73.08.76.76,0,0,1-.12,1.43,1.43,1.43,0,0,1,.4.47l.2.31.26.39.09.14c0,.06.07.11.14.2h-.28l-.58-.91a1.61,1.61,0,0,0-.38-.44c-.11-.08-.2-.1-.5-.1h-.32v1.45h-.24v-3Zm-.36,1.37h.32a1.37,1.37,0,0,0,.68-.1.54.54,0,0,0,.28-.49.55.55,0,0,0-.28-.49,1.37,1.37,0,0,0-.62-.1h-.38Z" transform="translate(-370.81 -277.69)" style="fill:#fff"/><path d="M394.62,318.68h-.07l-1.28-3.05h.24l1.08,2.56,1.06-2.56h.24Z" transform="translate(-370.81 -277.69)" style="fill:#fff"/><path d="M398.26,318.65H398v-3h.24Z" transform="translate(-370.81 -277.69)" style="fill:#fff"/><path d="M403.46,318.65h-.2L401,316v2.66h-.23v-3H401l2.27,2.64v-2.64h.24Z" transform="translate(-370.81 -277.69)" style="fill:#fff"/><path d="M408.47,316.11a1.64,1.64,0,0,0-.56-.24,2.35,2.35,0,0,0-.51-.06,1.34,1.34,0,0,0,0,2.67,2.55,2.55,0,0,0,.9-.19v-.82h-.64v-.2h.88v1.17a2.73,2.73,0,0,1-.57.19,2.91,2.91,0,0,1-.57.06,1.56,1.56,0,0,1-1.58-1.56,1.53,1.53,0,0,1,1.62-1.54,2.34,2.34,0,0,1,1,.25Z" transform="translate(-370.81 -277.69)" style="fill:#fff"/><path d="M414.15,318.65h-.24v-3h.24Z" transform="translate(-370.81 -277.69)" style="fill:#fff"/><path d="M419.35,318.65h-.2l-2.3-2.66v2.66h-.23v-3h.21l2.28,2.64v-2.64h.24Z" transform="translate(-370.81 -277.69)" style="fill:#fff"/><path d="M423.24,316a1.24,1.24,0,0,0-.68-.24.6.6,0,0,0-.64.59.53.53,0,0,0,.3.46,2.71,2.71,0,0,0,.37.16c.55.19.78.45.78.86a.85.85,0,0,1-.88.83,1.48,1.48,0,0,1-.78-.26v-.28a1.83,1.83,0,0,0,.44.26.88.88,0,0,0,.33.06.59.59,0,0,0,.38-1.09l-.36-.16c-.42-.15-.55-.22-.69-.42a.69.69,0,0,1-.13-.41.82.82,0,0,1,.86-.8,1.39,1.39,0,0,1,.7.19Z" transform="translate(-370.81 -277.69)" style="fill:#fff"/><path d="M426.3,315.63c.5,0,.63,0,.82.12a.79.79,0,0,1,0,1.36,1.4,1.4,0,0,1-.78.13h-.42v1.41h-.23v-3Zm-.39,1.41h.43a1.14,1.14,0,0,0,.68-.13.6.6,0,0,0,.22-.48A.61.61,0,0,0,427,316a1.23,1.23,0,0,0-.72-.13h-.39Z" transform="translate(-370.81 -277.69)" style="fill:#fff"/><path d="M430,318.65h-.24v-3H430Z" transform="translate(-370.81 -277.69)" style="fill:#fff"/><path d="M433,315.63a1.82,1.82,0,0,1,.72.08.75.75,0,0,1,.46.69.77.77,0,0,1-.58.74,1.43,1.43,0,0,1,.41.47l.2.31.26.39.08.14a2.19,2.19,0,0,1,.14.2h-.28l-.58-.91a1.81,1.81,0,0,0-.37-.44c-.12-.08-.2-.1-.5-.1h-.33v1.45h-.23v-3Zm-.37,1.37H433a1.37,1.37,0,0,0,.68-.1.55.55,0,0,0,.27-.49.53.53,0,0,0-.28-.49,1.31,1.31,0,0,0-.62-.1h-.38Z" transform="translate(-370.81 -277.69)" style="fill:#fff"/><path d="M439.34,318.65h-.24l-.48-1h-1.48l-.48,1h-.24l1.39-3h.13ZM437.88,316l-.65,1.42h1.3Z" transform="translate(-370.81 -277.69)" style="fill:#fff"/><path d="M443.13,315.82H442v2.83h-.24v-2.83h-1.14v-.19h2.51Z" transform="translate(-370.81 -277.69)" style="fill:#fff"/><path d="M445.51,318.65h-.24v-3h.24Z" transform="translate(-370.81 -277.69)" style="fill:#fff"/><path d="M449.46,318.69a1.55,1.55,0,1,1,0-3.1,1.55,1.55,0,1,1,0,3.1Zm0-2.88a1.33,1.33,0,1,0,1.34,1.32A1.31,1.31,0,0,0,449.46,315.81Z" transform="translate(-370.81 -277.69)" style="fill:#fff"/><path d="M456.14,318.65H456l-2.3-2.66v2.66h-.24v-3h.22l2.28,2.64v-2.64h.23Z" transform="translate(-370.81 -277.69)" style="fill:#fff"/><path d="M385.39,291.48l-.87,2.5h-3l5-12.78h3.16L394.79,294h-3l-.86-2.5h-5.57m2.79-8-2.06,5.88h4.1Z" transform="translate(-370.81 -277.69)" style="fill:#fff"/><path d="M447.67,291.48l-.86,2.5h-3l5-12.78H452L457.07,294h-3l-.87-2.5h-5.57m2.8-8-2.06,5.88h4.1Z" transform="translate(-370.81 -277.69)" style="fill:#fff"/><path d="M402,281.2a5.26,5.26,0,0,1,3.9,1.56,3.75,3.75,0,0,1,.89,2.5,3.94,3.94,0,0,1-.27,1.43,3.82,3.82,0,0,1-2.59,2.08L407.2,294h-3.1l-2.86-4.74H398.8V294h-2.69V281.2H402m-3.24,6.05h1a9,9,0,0,0,3.23-.31,1.81,1.81,0,0,0,1.08-1.7,1.72,1.72,0,0,0-.9-1.59,4.05,4.05,0,0,0-2.18-.38H398.8Z" transform="translate(-370.81 -277.69)" style="fill:#fff"/><polyline points="62.35 16.29 51.26 16.29 51.26 14.33 59.03 5.64 51.93 5.64 51.93 3.51 62.35 3.51 62.35 5.53 54.89 14.13 62.35 14.13 62.35 16.29" style="fill:#fff"/><polyline points="70.17 5.66 70.17 16.29 67.49 16.29 67.49 5.66 63.59 5.66 63.59 3.51 74.12 3.51 74.12 5.66 70.17 5.66" style="fill:#fff"/><path d="M417.59,296.38a10.68,10.68,0,0,1-2-6.48,10.46,10.46,0,0,1,2.24-6.77,8.45,8.45,0,0,0-3,6.77,8.61,8.61,0,0,0,2.73,6.55l0-.07" transform="translate(-370.81 -277.69)" style="fill:#fff"/><path d="M417.55,296.49l0,0a8.64,8.64,0,0,1-2.73-6.57,8.53,8.53,0,0,1,3-6.79L418,283l-.13.16a10.51,10.51,0,0,0-2.24,6.76,10.76,10.76,0,0,0,2,6.47h0l0,.07,0,0m.13-13.21a9.2,9.2,0,0,0-.14,13.14l0,0a10.79,10.79,0,0,1-2-6.48,10.59,10.59,0,0,1,2.12-6.62" transform="translate(-370.81 -277.69)" style="fill:#fff"/><path d="M419.51,288.71a3.43,3.43,0,0,1-3.08-.11,3.37,3.37,0,0,1,2.05-2.3,3.32,3.32,0,0,1,3.07.11c.11.28-.63,1.7-2,2.3" transform="translate(-370.81 -277.69)" style="fill:#fff"/><path d="M420.45,285.31a3.38,3.38,0,0,1-3.06.33,3.4,3.4,0,0,1,1.69-2.57c1.3-.8,2.9-.59,3.05-.33s-.37,1.77-1.68,2.57" transform="translate(-370.81 -277.69)" style="fill:#fff"/><path d="M416.39,282a1.7,1.7,0,1,1-2.59.36,1.7,1.7,0,1,1,2.59-.36" transform="translate(-370.81 -277.69)" style="fill:#fff"/><path d="M420.12,280.84a1.75,1.75,0,1,1-2.44-1.44,1.75,1.75,0,1,1,2.44,1.44" transform="translate(-370.81 -277.69)" style="fill:#fdc212"/><path d="M414,289.9a10.32,10.32,0,0,1,.06-1.11h0a4.14,4.14,0,0,1-2.9-2.61,4.86,4.86,0,0,1-.26-2.43,4,4,0,0,1,.28-1l-.88-1.56h-2.94l4.62,7.73V294h2.56v-.79a10.79,10.79,0,0,1-.52-3.29" transform="translate(-370.81 -277.69)" style="fill:#fff"/><path d="M414.34,284.94a3.38,3.38,0,0,1-.21,3.07,3.41,3.41,0,0,1-2.23-2.12,3.29,3.29,0,0,1,.21-3.06c.28-.11,1.68.68,2.23,2.11" transform="translate(-370.81 -277.69)" style="fill:#fff"/><path d="M381.47,304.8c-.08,0,0-.08-.1-.13a1.36,1.36,0,0,0-.79-.12,45.82,45.82,0,0,0-5.88.65c-.14,0-.23.15-.31.26a10.1,10.1,0,0,0-1.46,3.76.51.51,0,0,0,.06.28.35.35,0,0,1,.06.19c0,.13-.14.25-.44.25a1.71,1.71,0,0,1-1.8-1.67,5.48,5.48,0,0,1,1.17-2.88c.06-.08.1-.12.1-.14s0,0-.15,0a1.58,1.58,0,0,1-1.06-.55c0-.06.3,0,.62,0a4.53,4.53,0,0,0,1.12-.15,21.62,21.62,0,0,0,1.65-1.86,9.07,9.07,0,0,0,1.42-2.12s-.05-.06-.05-.1.05-.18.15-.18a.28.28,0,0,1,.21.09,1.18,1.18,0,0,1,.39,1,4.76,4.76,0,0,1-.83,2.29.35.35,0,0,0-.08.19s0,.06.16,0a19.94,19.94,0,0,1,3.56-.61,2.35,2.35,0,0,1,2.43,1.29A.2.2,0,0,1,381.47,304.8Zm4-5.29a26.4,26.4,0,0,1-2.71,1.31.82.82,0,0,1-.17.05c-.06,0-.06,0-.06,0s.25-.26.34-.36c.27-.24.34-.39.34-.53,0-.34-.68-.47-1.68-.47a50.68,50.68,0,0,0-6.93.8,17,17,0,0,1-2.2.26c-.7,0-.93-.21-.87-.68a1.5,1.5,0,0,1,.8-.93,1.29,1.29,0,0,1,.28-.13s0,0,0,0c-.15.17-.6.52-.6.67s0,.07.15.05c1.31-.15,6.88-2.67,10.6-2.67,1.44,0,2.6.36,3.13,1.4a1.62,1.62,0,0,1,.21.61C386.06,299.13,385.85,299.26,385.43,299.51Z" transform="translate(-370.81 -277.69)" style="fill:#fff"/><path d="M382.47,309.58c-.38,0-1.57-.33-1.57-1.42,0-1.67,2.46-4.2,4-5.41.21-.15.31-.23.42-.23s.19.08.36.21c.74.55,1,.87,1,1.1s-.17.3-.38.53c.24,0,.77,0,.87.51a2.85,2.85,0,0,1,0,.4C387.18,307.42,383.78,309.54,382.47,309.58Zm3.78-4.76a1.88,1.88,0,0,0-.72.17c-.78.64-2.85,2.39-3.09,3.56a1.39,1.39,0,0,0,0,.23c0,.06,0,.1.07.1a.93.93,0,0,0,.38-.14c2-1,3.87-3,3.87-3.68C386.72,304.89,386.59,304.76,386.25,304.82Z" transform="translate(-370.81 -277.69)" style="fill:#fff"/><path d="M389.09,309.58c-.38,0-1.57-.33-1.57-1.42,0-1.67,2.46-4.2,4-5.41.21-.15.3-.23.42-.23s.19.08.36.21c.74.55,1,.87,1,1.1s-.17.3-.37.53c.24,0,.77,0,.87.51a2.85,2.85,0,0,1,0,.4C393.8,307.42,390.4,309.54,389.09,309.58Zm3.78-4.76a1.88,1.88,0,0,0-.72.17c-.78.64-2.85,2.39-3.1,3.56,0,.1,0,.17,0,.23s0,.1.07.1a.93.93,0,0,0,.38-.14c2-1,3.87-3,3.87-3.68C393.34,304.89,393.21,304.76,392.87,304.82Z" transform="translate(-370.81 -277.69)" style="fill:#fff"/><path d="M405.17,299.83a.51.51,0,0,0-.34.11,20.78,20.78,0,0,0-4.91,8.8c0,.17,0,.19.09.19l.21-.05a15.43,15.43,0,0,0,2.83-2.58c.15-.17.28-.27.38-.27s.07,0,.07.1a.6.6,0,0,1-.17.36,18.23,18.23,0,0,1-3.18,3,.83.83,0,0,1-.36.08,1.14,1.14,0,0,1-1.18-1.23,8.28,8.28,0,0,1,1-3.08c0-.09.11-.22.07-.22s-.13.05-.22.2a24.77,24.77,0,0,1-3.46,4.2.56.56,0,0,1-.3.07c-.63,0-1.69-.76-1.54-1.52a11,11,0,0,1,3.85-5.59,1,1,0,0,1,.48-.1,1.69,1.69,0,0,1,1.48.95.22.22,0,0,1,0,.1.08.08,0,0,1-.08.07.67.67,0,0,1-.19-.05.46.46,0,0,0-.23-.06c-.83,0-2.22,1.71-3.2,3.81a1.76,1.76,0,0,0-.19.57c0,.12,0,.13.08.13s.26-.07.79-.64c2.31-2.52,3.51-3.81,3.76-4.23,1.27-2.05,2.58-4.29,3.14-4.29s1.5.59,1.52,1C405.38,299.81,405.34,299.83,405.17,299.83Z" transform="translate(-370.81 -277.69)" style="fill:#fff"/><path d="M420.31,300.27a1.43,1.43,0,0,1-.57.3s-.06,0-.06,0a.83.83,0,0,1,.15-.26.89.89,0,0,0,.21-.46c0-.19-.21-.27-.49-.27-1.94,0-9,3.23-9,4.1,0,.12.1.19.32.21.4,0,1.94-.36,3.44-.36a3.22,3.22,0,0,1,2.78,1,2.62,2.62,0,0,1,.46,1.46c0,1.33-1.14,2.77-4.08,4.25a5.87,5.87,0,0,1-2.69.69,3.87,3.87,0,0,1-2.22-.63c-.11-.08-.29-.23-.29-.38s.12-.26.48-.42c3.68-1.49,7.3-3.77,7.3-4.78,0-.28-.34-.47-1.12-.47a15.71,15.71,0,0,0-3.26.47,4.21,4.21,0,0,1-.89.12c-.8,0-1.08-.38-1.59-.8a1.31,1.31,0,0,1-.48-1c0-2,4.84-5.1,10.19-6.25a1.25,1.25,0,0,1,1,.26,2.58,2.58,0,0,1,.8,2A1.62,1.62,0,0,1,420.31,300.27Z" transform="translate(-370.81 -277.69)" style="fill:#fff"/><path d="M419.87,309.58c-.38,0-1.57-.33-1.57-1.42,0-1.67,2.47-4.2,4-5.41.21-.15.31-.23.42-.23s.19.08.36.21c.74.55,1,.87,1,1.1s-.17.3-.38.53c.24,0,.77,0,.87.51a2.85,2.85,0,0,1,0,.4C424.58,307.42,421.18,309.54,419.87,309.58Zm3.78-4.76a1.88,1.88,0,0,0-.72.17c-.78.64-2.85,2.39-3.09,3.56a1.39,1.39,0,0,0,0,.23c0,.06,0,.1.07.1a.93.93,0,0,0,.38-.14c2-1,3.87-3,3.87-3.68C424.12,304.89,424,304.76,423.65,304.82Z" transform="translate(-370.81 -277.69)" style="fill:#fff"/><path d="M426.44,309a.11.11,0,0,0,.09.09c.47,0,2.77-2.2,3.34-2.73a.72.72,0,0,1,.3-.19,0,0,0,0,1,0,0,.88.88,0,0,1-.23.4c-.81,1-2.43,3-3.58,3a1,1,0,0,1-.84-.49,2.22,2.22,0,0,1-.34-1.21c0-3.25,5.16-8.84,5.16-9.47,0,0,0-.07-.06-.07l-.13,0a3,3,0,0,1-.61.17.07.07,0,0,1-.07-.06s.06-.13.19-.27a.93.93,0,0,1,.62-.32c.38,0,.71.46.8.61a.84.84,0,0,1,.19.51C431.31,301,426.44,307.83,426.44,309Z" transform="translate(-370.81 -277.69)" style="fill:#fff"/><path d="M437.49,307.09c-.67.71-1.79,2.26-2.71,2.26a.78.78,0,0,1-.48-.17,1.38,1.38,0,0,1-.53-1.12,3.85,3.85,0,0,1,.65-1.86c.05-.09.05-.11,0-.11s-.07.05-.21.17c-1.23,1-2.61,3-3.69,3a1.08,1.08,0,0,1-1-1.17c0-1.8,2.58-4.91,2.58-5.35a.05.05,0,0,0-.06-.06c-.05,0-.07-.05-.07-.11a.17.17,0,0,1,.19-.15c1,.17,1.38.64,1.38,1.15,0,1.18-1.74,2.87-2.08,3.61a1.57,1.57,0,0,0-.16.47c0,.08,0,.12.1.12a2.46,2.46,0,0,0,.76-.44,21.31,21.31,0,0,0,2.48-2.18,3.13,3.13,0,0,0,.78-1.31c0-.25.08-.32.23-.32a1.07,1.07,0,0,1,1,1,3,3,0,0,1-.3,1.25c-.4.9-1.08,1.9-1.35,2.6a.93.93,0,0,0-.07.31c0,.05,0,.09.07.09.36,0,1.56-1.25,2.24-1.95.46-.46.74-.65.84-.65s0,0,0,0A2.33,2.33,0,0,1,437.49,307.09Z" transform="translate(-370.81 -277.69)" style="fill:#fff"/><path d="M444.31,303.47a11.2,11.2,0,0,1-2.63.25.23.23,0,0,0-.21.13c-1.73,2.9-2.53,4.27-2.53,5,0,.19.08.28.25.28.51,0,1.86-1,3.68-2.63a.69.69,0,0,1,.38-.23.07.07,0,0,1,.06.07.45.45,0,0,1-.15.29c-1.69,1.88-3,3.22-4.18,3.22a1.73,1.73,0,0,1-1.72-1.72c0-1.24,1.06-3,2.31-4.42a4.53,4.53,0,0,1-.55,0c-.46,0-.57-.06-.7-.23a.32.32,0,0,1-.1-.19c0-.11.14-.19.38-.19.8,0,1.08,0,1.43,0a14.24,14.24,0,0,0,2.08-3.07s0-.06,0-.08,0-.05,0-.09.07-.13.19-.13a.29.29,0,0,1,.15,0,1,1,0,0,1,.58.93,4.78,4.78,0,0,1-1,2.32c0,.05,0,.07.13.07l2.26,0c.17,0,.24,0,.24.12S444.52,303.4,444.31,303.47Z" transform="translate(-370.81 -277.69)" style="fill:#fff"/><path d="M447.78,306.49c-.82,1.15-2.54,3-3.64,3a.77.77,0,0,1-.34-.07,1.34,1.34,0,0,1-.89-1.33c0-1.46,1.59-3.57,2.29-4.78a.43.43,0,0,0,.06-.17c0-.13-.21-.06-.21-.17a.18.18,0,0,1,.19-.17,1.9,1.9,0,0,1,1.1.66,1.1,1.1,0,0,1,.21.61,1.92,1.92,0,0,1-.4,1.06c-.66,1-2.26,2.86-2.28,3.81,0,.06,0,.08.12.08a8.13,8.13,0,0,0,3.58-2.66.22.22,0,0,1,.17-.09.09.09,0,0,1,.08.09A.37.37,0,0,1,447.78,306.49Zm-.51-4.4c-.29,0-.55-.21-.68-.65a.33.33,0,0,1,.07-.34c.25-.36,1.1-.25,1.75-.7,0,0,.13.05.07.34C448.31,301.57,447.76,302.09,447.27,302.09Z" transform="translate(-370.81 -277.69)" style="fill:#fff"/><path d="M448.46,309.58c-.38,0-1.57-.33-1.57-1.42,0-1.67,2.46-4.2,4-5.41.21-.15.3-.23.42-.23s.19.08.36.21c.74.55,1,.87,1,1.1s-.17.3-.37.53c.24,0,.77,0,.87.51a2.85,2.85,0,0,1,0,.4C453.17,307.42,449.77,309.54,448.46,309.58Zm3.78-4.76a1.88,1.88,0,0,0-.72.17c-.78.64-2.85,2.39-3.1,3.56,0,.1,0,.17,0,.23s0,.1.07.1a.93.93,0,0,0,.38-.14c2-1,3.87-3,3.87-3.68C452.71,304.89,452.58,304.76,452.24,304.82Z" transform="translate(-370.81 -277.69)" style="fill:#fff"/><path d="M456.69,302.5a.11.11,0,0,0-.09-.13.14.14,0,0,1-.12-.13.14.14,0,0,1,.16-.14,1.2,1.2,0,0,1,1,1.18,4.06,4.06,0,0,1-1.16,2.41,1.46,1.46,0,0,0-.26.42s0,0,0,0a1.28,1.28,0,0,0,.49-.34c1.88-1.78,2.79-2.5,3.49-2.5.36,0,.64.23.89.66a1.26,1.26,0,0,1,.17.65,4.26,4.26,0,0,1-.76,2,5.42,5.42,0,0,0-.93,2.12c0,.12,0,.19.15.19.29,0,1-.53,2.47-2,.34-.32.53-.46.63-.46s.05,0,.05.06a1.36,1.36,0,0,1-.38.59c-1.17,1.35-2.25,2.41-3.07,2.41a.89.89,0,0,1-.49-.1,1.53,1.53,0,0,1-.87-1.49,3.67,3.67,0,0,1,.64-1.9,4.86,4.86,0,0,0,.76-1.65.13.13,0,0,0-.13-.15c-.74,0-4.4,3.83-4.88,4.91,0,.09-.13.23-.26.23a1.05,1.05,0,0,1-.72-1.05C453.53,306.52,456.69,303.21,456.69,302.5Z" transform="translate(-370.81 -277.69)" style="fill:#fff"/><path d="M468.6,305.75c-.47.49-2.61,2.27-2.61,2.37,0,1.27-2.13,1.93-3.42,1.93a1.7,1.7,0,0,1-.87-.17.35.35,0,0,1-.17-.3.69.69,0,0,1,.24-.48c.67-.68,3-1.74,3-2.75a.63.63,0,0,0-.15-.41c-.46-.55-1-1.14-1-1.75s.47-1.14,1.95-1.72c.09,0,.15-.1.23-.1s.26.13.72.7a1.18,1.18,0,0,1,.34.69c0,.3-.3.55-.89.83s-1.06.44-1.06.64a.33.33,0,0,0,.11.23c.45.49,1.18,1.1,1,2,.44-.3,1.75-1.3,2.37-1.84a.33.33,0,0,1,.21-.09c.06,0,.1,0,.1.08A.35.35,0,0,1,468.6,305.75Z" transform="translate(-370.81 -277.69)" style="fill:#fff"/></svg>