<svg id="Calque_1" data-name="Calque 1" xmlns="http://www.w3.org/2000/svg" width="73.38mm" height="18.09mm" viewBox="0 0 208 51.27"><title>logo-cdp-white</title><path d="M317.91,439.42h4.68v.49h-2V445H320v-5.13h-2.06Zm14.41,5.35.18.27h-.68l-1.07-1.69a3.55,3.55,0,0,0-.66-.78c-.19-.14-.33-.16-.87-.16h-.51V445h-.57v-5.62h1.16a3.32,3.32,0,0,1,1.33.16,1.43,1.43,0,0,1-.09,2.67,3.17,3.17,0,0,1,.64.78l1,1.52.15.22m-1.91-4.69a2.39,2.39,0,0,0-1.08-.17h-.62v2h.51a2.49,2.49,0,0,0,1.2-.17,1,1,0,0,0,.46-.83.92.92,0,0,0-.47-.83m9.63-.7,2.6,5.66H342l-.87-1.9h-2.58l-.87,1.9h-.6l2.58-5.66Zm-.16.93-1.07,2.33h2.13Zm13.32,1.92a2.68,2.68,0,0,1-1.32,2.42A3,3,0,0,1,350,445h-1.89v-5.62h1.73a3.17,3.17,0,0,1,2,.38,2.7,2.7,0,0,1,1.32,2.43m-1.64-1.94a2.34,2.34,0,0,0-1.63-.38h-1.22v4.64h1.22a2.52,2.52,0,0,0,1.63-.37,2.24,2.24,0,0,0,1-1.95,2.19,2.19,0,0,0-1-1.94M359.1,445h.57v-5.62h-.57Zm6.1-5.13h2.06V445h.58v-5.13h2v-.49H365.2ZM375.42,445H376v-5.62h-.57Zm12.42-2.84a3,3,0,0,1-5.95,0,3,3,0,0,1,5.95,0m-3-2.31a2.34,2.34,0,1,0,2.35,2.31,2.31,2.31,0,0,0-2.35-2.31m13.39,4.2-4-4.67h-.5V445h.57v-4.71l4,4.68,0,0h.45v-5.62h-.56Zm17.26-.31,1.19,1.26H416l-.8-.83a2.55,2.55,0,0,1-.5.46,2.37,2.37,0,0,1-1.32.44,1.47,1.47,0,0,1-1.57-1.38,1.93,1.93,0,0,1,1.32-1.69l0,0a1.7,1.7,0,0,1-.61-1.22,1.31,1.31,0,0,1,1.37-1.27,1.2,1.2,0,0,1,1.27,1.2,1.46,1.46,0,0,1-.52,1.09,2.74,2.74,0,0,1-.59.39l1.12,1.16a4.91,4.91,0,0,0,.55-1.15l0,0h.59l0,.1a4.22,4.22,0,0,1-.31.78,3.43,3.43,0,0,1-.42.74m-2.5-3a1.56,1.56,0,0,0,.61,1c.61-.26.94-.63.94-1a.71.71,0,0,0-.75-.71.75.75,0,0,0-.8.71m-.62,2.89a.93.93,0,0,0,1,.93,1.85,1.85,0,0,0,1.39-.77l-1.31-1.36c-.75.33-1.09.7-1.09,1.2m17,1.39H430v-5.62h-.58Zm11.22-1-4-4.67h-.5V445h.57v-4.71l4,4.68,0,0h.45v-5.62h-.56Zm11.21,0-4-4.67h-.49V445h.56v-4.71l4,4.68,0,0h.46v-5.62h-.57Zm12.43-1.89a3,3,0,0,1-6,0,3,3,0,0,1,6,0m-3-2.31a2.34,2.34,0,1,0,2.35,2.31,2.3,2.3,0,0,0-2.35-2.31M472,443.94l-1.89-4.52h-.59l2.37,5.66h.23l2.34-5.66h-.57Zm10.25-4.56,2.59,5.66h-.6l-.86-1.9h-2.59L480,445h-.59l2.58-5.66Zm-.17.93L481,442.64h2.13Zm7.67-.4h2.05V445h.58v-5.13h2v-.49h-4.68ZM500,445h.57v-5.62H500Zm12.42-2.84a3,3,0,0,1-5.95,0,3,3,0,0,1,5.95,0m-3-2.31a2.34,2.34,0,1,0,2.35,2.31,2.3,2.3,0,0,0-2.35-2.31m13.39-.47v4.67l-4-4.67h-.5V445h.57v-4.71l4,4.68,0,0h.45v-5.62Z" transform="translate(-317.91 -393.84)" style="fill:#fff"/><path d="M443.88,431.46l1.48-2.12H388.19c-.43.53-1.28,1.59-1.69,2.12Z" transform="translate(-317.91 -393.84)" style="fill:#fff"/><path d="M443.88,431.46l1.48-2.12H388.19c-.43.53-1.28,1.59-1.69,2.12Z" transform="translate(-317.91 -393.84)" style="fill:none;stroke:#fff;stroke-miterlimit:10;stroke-width:0.30046421834235487px"/><path d="M458,431.46h64.15l1.73-2.12H459.66c-.42.53-1.28,1.59-1.69,2.12" transform="translate(-317.91 -393.84)" style="fill:#e6361f"/><polygon points="55.97 35.5 1.51 35.5 0 37.62 54.49 37.62 55.97 35.5" style="fill:#27316a"/><path d="M407.72,408.89c-2.09,1.65-4.9,5.11-9.37,7.84-.21.14-.75.2-.4-.33a28,28,0,0,1,4.85-6.31c.17-.18-.93-1.9-1.26-3.49-.19-.48-.25-.72-.85-.48S396.12,409,396.2,409s.63-.86,1.21-1.51a18.2,18.2,0,0,1-1.42-3.1c-.18-.63-.43-.65-.64-.52a1.16,1.16,0,0,0-.26.23c-6.48,6.44-14.55,12-17.66,12.8-.22.06-.67-.43-.4-.82,2-2.88,3.67-5.4,5.65-8.1,0-.26-.52-2.39-1.45-3.13-2.43,1.22-3.56,3.82-5.27,5.85a29.37,29.37,0,0,1-8.68,7.24c-.43.23-.93-.21-.85-.4a47.34,47.34,0,0,1,5.61-8.8c.65-.84-.4-1.8-.46-2.81a.57.57,0,0,0-.87-.44c-1.67,1-3.31,1.78-4.87,2.85l.18-.12a3,3,0,0,1-.37.21c-.19-3.53-4.41-5.72-6.23-5.27-3.65.91-5.33,2.17-6.18,3-.14.14-.34.33-.55.57l-1.39-.33a12.53,12.53,0,0,0-3.89,3.72c-1.1,1.58-2.94,2.21-4.47,3.35a46.83,46.83,0,0,1-10.59,5.82,23.82,23.82,0,0,1-3.87,1.37c-2,.44-3.68,1.54-5.76,1.1-.75-.16-.61-.93-.42-1.36a41.34,41.34,0,0,1,14.92-16.8c.66.72-.31,1.07-.32,1.08s2.41,2.5,2.47,2.47a15.47,15.47,0,0,0,6-5.64c.8-1.57-.43-3.22-1.75-4.5-.51-.49-1.94,0-2.68.2-6.86,2.21-15.13,8.77-20.39,16.38a12,12,0,0,0-1.3,2.5c-.62,1.6-1.44,3-.83,4.75A5.2,5.2,0,0,0,321.8,424c8.56,2.67,16.2-3.66,23.69-7,1.29,1.28,2.39,2.93,4,3.67a6.29,6.29,0,0,0,4.24.05c.69-.21,6.9-2.49,10.33-7.75.44-.17.73-.31.85-.37s-2.77,3.61-1.8,5.3a6.67,6.67,0,0,0,2.84,2.8c3.33,1.44,5.38-2.15,8.67-2.64.3,0,.4.61.57.76,2.46,2.22,5.94.72,8.67-.77.7-.39,1.59-1,2.59-1.68-.1.21-.17.35-.2.4-2.27,3.91-6.62,10.68-9.24,14.72h4.76a183.76,183.76,0,0,1,11.69-14.19c.28-.31.72-.84.66,0,0,.27-.1.6,0,.73,2,2,3,3.64,5.61,1.77,3-2.12,5-4.78,7.48-7.24.33-.33,1-.94,1.43-1.47s-.78-2.32-.91-2.17m-58.23,8.25c-.57-.65,1.26-3.37,3.07-5.74a7.51,7.51,0,0,0,1.53,1.16,9.25,9.25,0,0,0,2.69,1.08c-2.44,2-6.36,4.58-7.29,3.5m10.76-7.06a11.43,11.43,0,0,1-4.59.38c-1.69-.6,5.09-4,5.88-3.44.49.34-.22,1.67-1.29,3.06m85.07.74c-.6.36-4.18,5.44-9.55,6.17,3.06-2.49,5.47-5.38,5.74-6.71a7.69,7.69,0,0,0-1-5c-.34-.13-1.58-.79-4.91.9-4.16,2.1-5.94,7.22-6.24,8.13a7,7,0,0,0-.42,2.76,10.89,10.89,0,0,1-2,.91c-.89.24-1.46.18-.91-1.74,1.17-4.17,12.17-19.51,12.17-19.51L436,393.84a88.57,88.57,0,0,1-9.1,11,7.68,7.68,0,0,0-2.29-.23c-3.63.06-11.65,5.09-11.55,8.51A4,4,0,0,0,412,416.3c0,2.62,3.47,3.62,4.85,3.79,3.39.42,7.23-3.28,7.21-3.25-1.28,1.83,1.81,4.69,3.51,4.45a11.66,11.66,0,0,0,3.37-1.11,7.54,7.54,0,0,0,2.75.87c6.3.91,13.09-8.19,13.45-8.61s-1.21-2-1.82-1.62m-21.26-3.56h.24l0,0c-2.12,1.8-4.77,5.16-6.38,4.31-.48-.26,3.73-4.24,6.18-4.34m-8.18,9.52c-.82-.19-.71-.69-.43-1.25,3.59,1.2,7.83-2.55,9.15-3.57,0,0-5.73,5.5-8.72,4.82m17.93-3c.87-2.52,3.15-5.43,3.4-4.57.31,1.11-1.32,2.9-3.4,4.57m89.54-5.05-1.57-3.25s-10.81,9.4-15.62,11.64a25,25,0,0,0,2.65-2c3-2.57,3.76-3.73,3.88-5.78s-.25-4.09-2.43-4-9.93,5.3-10.05,9.87a8.46,8.46,0,0,0,.15,1.9,10.66,10.66,0,0,1-2.7.51c-1.45.08-1.79-.94-1.57-2.41,2-2.59,4.25-5.77,7.15-9.15a38.06,38.06,0,0,0,3.47-4.65c5.39-1,10.46-1.67,12.73-2a4.25,4.25,0,0,1-.08-3.23c-5,.63-9.25,1.31-12.82,2l-1.49-1.67s-.73.91-1.84,2.35c-9,1.94-12.7,3.67-12.7,3.67l3.52,2.05a55,55,0,0,1,6.29-1.85,70.94,70.94,0,0,0-6.4,10.17c-2.77,3-5.57,5.56-6.31,4.8-.4-.41,4-7.42,3.63-8.79-.32-1.22-.68-1.87-1.09-2.12-.1-1.08-.86-2.21-3.51-1.85-3.87.52-10.78,3.85-13.09,9a31.15,31.15,0,0,1-3.73,2.69c-.21.14-.75.2-.39-.33a27.44,27.44,0,0,1,4.84-6.31c.18-.18-.93-1.9-1.26-3.49-.18-.48-.25-.72-.85-.48S467.6,409,467.68,409s.62-.86,1.21-1.51a17,17,0,0,1-1.43-3.1c-.26-.92-.66-.54-.89-.29-6.47,7-13,11-16,12.2-.61.24-3.25,1.2-3.25,1.2s2.92,2.56,3.3,2.49A17.06,17.06,0,0,0,455.3,418c.4-.22,2.61-1.66,2.38-1.28-2.27,3.91-6.62,10.68-9.23,14.72h4.76a179.26,179.26,0,0,1,11.69-14.19c.28-.31.71-.84.65,0,0,.27-.1.6,0,.73,2,2,3,3.64,5.62,1.77.59-.42,1.14-.86,1.67-1.32.49,2.39,2.77,2.7,4.56,2.6,2.18-.12,3.27-.6,6.54-3.25,1-.82.61,3.61,4.73,3.61,1.51,0,2.92-1,4.44-2.56a4.22,4.22,0,0,0,3.68,2.44,16.64,16.64,0,0,0,4.79-1.59,4.51,4.51,0,0,0,3.2,1.23c2.31,0,11.62-5.28,14.06-9.51,0,0-.85,5.48-.61,6.62.28,1.32,0,2-.6,2a5.59,5.59,0,0,1-3.64-2s1.09,6.15,5.94,6c4.6-.13,2.06-4.58,2.18-8.07a34.18,34.18,0,0,1,1.21-7.23m-39.25,4.82c-3.76,4-6.53,4.91-7.28,4-1.75-2.21,5.7-9,10.3-8.79l.39,0a46.55,46.55,0,0,1-3.41,4.8m19.54,2c.12-3.17,3.76-6.57,5.41-7,1.47-.34-1.07,4.18-5.41,7m19.71-15.24a2.57,2.57,0,1,1,2.56-2.57,2.57,2.57,0,0,1-2.56,2.57m0-4.8a2.24,2.24,0,1,0,2.24,2.23,2.24,2.24,0,0,0-2.24-2.23m-.71,3.73h-.4v-3h1.37c.48,0,1,.16,1,.79a.72.72,0,0,1-.42.71c.18.07.34.14.36.55l0,.54c0,.17,0,.23.14.3v.07h-.49a4.35,4.35,0,0,1-.07-.75c0-.24,0-.52-.52-.52h-1Zm0-1.62h.92c.3,0,.6-.07.6-.51s-.33-.49-.52-.49h-1Z" transform="translate(-317.91 -393.84)" style="fill:#fff"/></svg>