<svg id="Calque_1" data-name="Calque 1" xmlns="http://www.w3.org/2000/svg" width="30" height="30" viewBox="0 0 30 30"><title>Sans titre - 3</title><path d="M10.9,16.78h-8a.4.4,0,1,1,0-.8h8a.4.4,0,1,1,0,.8Z" style="fill:#3a2050"/><path d="M10.62,24.53h-8a.4.4,0,0,1,0-.8h8a.4.4,0,0,1,0,.8Z" style="fill:#3a2050"/><path d="M4.72,29.66c-1.17,0-1.77-.05-2.16-.44s-.4-1-.39-2.13L2,14.54A4.86,4.86,0,0,1,3.94,11,3.9,3.9,0,0,0,5.5,8.32V3.1a1.48,1.48,0,0,1-.36-1.57C5.53.61,7,.38,8.16.34h.28c1.71,0,2.7.4,3,1.08a1.66,1.66,0,0,1-.35,1.67V8.35A3.87,3.87,0,0,0,12.66,11a4.81,4.81,0,0,1,1.89,3.53l-.11,12.6v.24c0,.93,0,1.48-.38,1.87s-1,.47-2.17.45H4.72ZM8.3,1.14H8.18c-1.5.05-2.19.41-2.32.71s.16.64.34.85A.39.39,0,0,1,6.29,3V8.37a4.71,4.71,0,0,1-1.81,3.19,4.06,4.06,0,0,0-1.64,3L3,27.09c0,.81,0,1.4.16,1.57a3.47,3.47,0,0,0,1.69.2H11.9a3.13,3.13,0,0,0,1.59-.21c.16-.15.15-.64.15-1.3V27.1l.13-12.57a4,4,0,0,0-1.64-3,4.71,4.71,0,0,1-1.81-3.14V3a.35.35,0,0,1,.08-.24c.32-.42.44-.76.35-1s-.42-.56-2.32-.62Z" style="fill:#3a2050"/><path d="M22.26,23.34a5.69,5.69,0,0,1-4.05-1.62,3.67,3.67,0,0,1-1.08-2.66l.38-9.81a.4.4,0,0,1,.4-.38h8.71a.39.39,0,0,1,.39.38l.38,9.81a3.62,3.62,0,0,1-1.07,2.66A5.74,5.74,0,0,1,22.26,23.34Zm-4-13.67-.36,9.42a2.88,2.88,0,0,0,.85,2.08,5.1,5.1,0,0,0,7,0,2.84,2.84,0,0,0,.85-2.08l-.36-9.42Z" style="fill:#3a2050"/><path d="M22.43,21.45a.4.4,0,0,1,0-.8,2.53,2.53,0,0,0,1.63-.55,1.49,1.49,0,0,0,.64-1.2l-.17-3a.4.4,0,1,1,.79-.05l.18,3a2.29,2.29,0,0,1-.93,1.87A3.4,3.4,0,0,1,22.43,21.45Z" style="fill:#3a2050"/><path d="M26.75,13.35h-9a.4.4,0,1,1,0-.8h9a.4.4,0,1,1,0,.8Z" style="fill:#3a2050"/><path d="M26.57,29.66H18a.4.4,0,0,1,0-.8h8.62a.4.4,0,0,1,0,.8Z" style="fill:#3a2050"/><path d="M22.26,29.41a.4.4,0,0,1-.4-.4V22.94a.4.4,0,1,1,.8,0V29A.4.4,0,0,1,22.26,29.41Z" style="fill:#3a2050"/><path d="M10.71,3.37H6.35a.4.4,0,0,1,0-.8h4.36a.4.4,0,1,1,0,.8Z" style="fill:#3a2050"/><path d="M10.9,24.46a.4.4,0,0,1-.41-.4V16.38a.41.41,0,0,1,.81,0v7.68A.4.4,0,0,1,10.9,24.46Z" style="fill:#3a2050"/><path d="M10.9,16.78h-8a.4.4,0,1,1,0-.8h8a.4.4,0,1,1,0,.8Z" style="fill:#3a2050"/><path d="M10.62,24.53h-8a.4.4,0,0,1,0-.8h8a.4.4,0,0,1,0,.8Z" style="fill:#3a2050"/><path d="M4.72,29.66c-1.17,0-1.77-.05-2.16-.44s-.4-1-.39-2.13L2,14.54A4.86,4.86,0,0,1,3.94,11,3.9,3.9,0,0,0,5.5,8.32V3.1a1.48,1.48,0,0,1-.36-1.57C5.53.61,7,.38,8.16.34h.28c1.71,0,2.7.4,3,1.08a1.66,1.66,0,0,1-.35,1.67V8.35A3.87,3.87,0,0,0,12.66,11a4.81,4.81,0,0,1,1.89,3.53l-.11,12.6v.24c0,.93,0,1.48-.38,1.87s-1,.47-2.17.45H4.72ZM8.3,1.14H8.18c-1.5.05-2.19.41-2.32.71s.16.64.34.85A.39.39,0,0,1,6.29,3V8.37a4.71,4.71,0,0,1-1.81,3.19,4.06,4.06,0,0,0-1.64,3L3,27.09c0,.81,0,1.4.16,1.57a3.47,3.47,0,0,0,1.69.2H11.9a3.13,3.13,0,0,0,1.59-.21c.16-.15.15-.64.15-1.3V27.1l.13-12.57a4,4,0,0,0-1.64-3,4.71,4.71,0,0,1-1.81-3.14V3a.35.35,0,0,1,.08-.24c.32-.42.44-.76.35-1s-.42-.56-2.32-.62Z" style="fill:#3a2050"/><path d="M22.26,23.34a5.69,5.69,0,0,1-4.05-1.62,3.67,3.67,0,0,1-1.08-2.66l.38-9.81a.4.4,0,0,1,.4-.38h8.71a.39.39,0,0,1,.39.38l.38,9.81a3.62,3.62,0,0,1-1.07,2.66A5.74,5.74,0,0,1,22.26,23.34Zm-4-13.67-.36,9.42a2.88,2.88,0,0,0,.85,2.08,5.1,5.1,0,0,0,7,0,2.84,2.84,0,0,0,.85-2.08l-.36-9.42Z" style="fill:#3a2050"/><path d="M22.43,21.45a.4.4,0,0,1,0-.8,2.53,2.53,0,0,0,1.63-.55,1.49,1.49,0,0,0,.64-1.2l-.17-3a.4.4,0,1,1,.79-.05l.18,3a2.29,2.29,0,0,1-.93,1.87A3.4,3.4,0,0,1,22.43,21.45Z" style="fill:#3a2050"/><path d="M26.75,13.35h-9a.4.4,0,1,1,0-.8h9a.4.4,0,1,1,0,.8Z" style="fill:#3a2050"/><path d="M26.57,29.66H18a.4.4,0,0,1,0-.8h8.62a.4.4,0,0,1,0,.8Z" style="fill:#3a2050"/><path d="M22.26,29.41a.4.4,0,0,1-.4-.4V22.94a.4.4,0,1,1,.8,0V29A.4.4,0,0,1,22.26,29.41Z" style="fill:#3a2050"/><path d="M10.71,3.37H6.35a.4.4,0,0,1,0-.8h4.36a.4.4,0,1,1,0,.8Z" style="fill:#3a2050"/><path d="M10.9,24.46a.4.4,0,0,1-.41-.4V16.38a.41.41,0,0,1,.81,0v7.68A.4.4,0,0,1,10.9,24.46Z" style="fill:#3a2050"/></svg>