<svg id="Calque_1" data-name="Calque 1" xmlns="http://www.w3.org/2000/svg" width="30" height="30" viewBox="0 0 30 30"><title>Sans titre - 3</title><path d="M15.06,27.55a.41.41,0,0,1-.4-.35.4.4,0,0,1,.35-.44A13.89,13.89,0,0,0,23.08,23,13.64,13.64,0,0,0,27,15.06a16.64,16.64,0,0,0,0-4.35c0-.25-.07-.52-.13-.8l-.13-.63a10.8,10.8,0,0,0-1.94-4.23,4.41,4.41,0,0,0-2.77-1.78,3.46,3.46,0,0,0-.56,0l-.3,0C20,3.53,19.79,4,19.62,4.52s-.54.43-1.07.5a2.94,2.94,0,0,0-.92.23,1.74,1.74,0,0,0-.73,1.57c0,.12,0,.29,0,.49.12,2,.45,7.35-3.6,9a7.52,7.52,0,0,1-4.58.21,10.21,10.21,0,0,0-1.95-.25h0a5,5,0,0,0-2.8.64,2.74,2.74,0,0,0-1.15,2.71,6.79,6.79,0,0,0,2.23,4.69,10.11,10.11,0,0,0,5.45,2.36.41.41,0,0,1,.34.46.42.42,0,0,1-.45.34,10.93,10.93,0,0,1-5.88-2.57A7.64,7.64,0,0,1,2,19.7a3.54,3.54,0,0,1,1.51-3.44,5.92,5.92,0,0,1,3.24-.77h0a11.07,11.07,0,0,1,2.1.26A6.7,6.7,0,0,0,13,15.59c3.52-1.45,3.21-6.38,3.1-8.23,0-.21,0-.39,0-.52a2.54,2.54,0,0,1,1.1-2.27,3.25,3.25,0,0,1,1.23-.34l.47-.08c.2-.59.55-1.35,2.16-1.64a2.6,2.6,0,0,1,.39,0,2.89,2.89,0,0,1,.72,0,5.11,5.11,0,0,1,3.29,2.07,11.67,11.67,0,0,1,2.1,4.55l.14.66c.06.3.1.59.13.85a17.82,17.82,0,0,1,0,4.56,14.46,14.46,0,0,1-4.17,8.39,14.69,14.69,0,0,1-8.53,4Z" style="fill:#3a2050"/><path d="M13.24,25.63A10.26,10.26,0,0,1,7,23.52a.4.4,0,0,1,.48-.64,9.45,9.45,0,0,0,7.58,1.77A11.72,11.72,0,0,0,20.53,22a12.4,12.4,0,0,0,3.61-5,11.14,11.14,0,0,0-.46-9.1.4.4,0,0,1,.19-.53.39.39,0,0,1,.53.18,12,12,0,0,1,.49,9.74,13.29,13.29,0,0,1-3.84,5.36,12.62,12.62,0,0,1-5.81,2.82A10.57,10.57,0,0,1,13.24,25.63Z" style="fill:#3a2050"/></svg>