<svg id="Calque_1" data-name="Calque 1" xmlns="http://www.w3.org/2000/svg" width="30" height="30" viewBox="0 0 30 30"><title>Sans titre - 3</title><path d="M1.43,24.66H1.38A.42.42,0,0,1,1,24.21c.63-5.24,5.64-9.39,9.66-12.72a41.14,41.14,0,0,0,3.55-3.15.41.41,0,0,1,.57,0,.4.4,0,0,1,0,.57A39.4,39.4,0,0,1,11.2,12.1c-3.91,3.25-8.78,7.28-9.37,12.2A.41.41,0,0,1,1.43,24.66Z" style="fill:#3a2050"/><path d="M4.93,29.06a.38.38,0,0,1-.35-.21.39.39,0,0,1,.16-.54,3.81,3.81,0,0,0,1.38-2.1,16.59,16.59,0,0,0,.79-3.46,10.46,10.46,0,0,1,.44-2.09c1.2-3.38,3.43-5.68,7.48-9.86l.4-.4a.4.4,0,1,1,.57.56l-.39.4c-4.1,4.23-6.16,6.35-7.31,9.57a10.54,10.54,0,0,0-.4,1.94,17.4,17.4,0,0,1-.82,3.61A4.49,4.49,0,0,1,5.12,29,.32.32,0,0,1,4.93,29.06Z" style="fill:#3a2050"/><path d="M6.94,29.12a5.25,5.25,0,0,1-1.74-.29.4.4,0,1,1,.26-.75c4.15,1.42,8.75-3.68,12.12-7.4a34.5,34.5,0,0,1,3.11-3.19.4.4,0,0,1,.51.62,32.82,32.82,0,0,0-3,3.11C15.09,24.62,11,29.12,6.94,29.12Z" style="fill:#3a2050"/><path d="M7.67,23a.42.42,0,0,1-.41-.39.4.4,0,0,1,.4-.41c3.6-.06,5.48-1.54,8.32-3.78a54.7,54.7,0,0,1,5.49-3.92.4.4,0,0,1,.55.14.4.4,0,0,1-.13.55,52.28,52.28,0,0,0-5.41,3.86C13.62,21.33,11.55,23,7.67,23Z" style="fill:#3a2050"/><path d="M9.14,18.33a.39.39,0,0,1-.31-.15.4.4,0,0,1,.05-.56L21.68,7.16a.4.4,0,1,1,.5.62L9.39,18.24A.43.43,0,0,1,9.14,18.33Z" style="fill:#3a2050"/><path d="M10.76,22.54a.39.39,0,0,1-.28-.12.39.39,0,0,1,0-.56L21.7,10.71a.39.39,0,0,1,.56,0,.4.4,0,0,1,0,.57L11,22.42A.39.39,0,0,1,10.76,22.54Z" style="fill:#3a2050"/><path d="M4.41,29.23a2.21,2.21,0,0,1-.79-.17A4.45,4.45,0,0,1,2,27.84C.9,26.58.62,25.14,1.36,24.5A1.51,1.51,0,0,1,3,24.39,4.38,4.38,0,0,1,4.58,25.6c1.1,1.27,1.37,2.7.64,3.34A1.2,1.2,0,0,1,4.41,29.23ZM2.17,25a.44.44,0,0,0-.29.09c-.28.24-.14,1.22.72,2.21a3.58,3.58,0,0,0,1.32,1c.34.14.63.15.77,0s.14-1.23-.72-2.21a3.51,3.51,0,0,0-1.31-1A1.41,1.41,0,0,0,2.17,25Z" style="fill:#3a2050"/><path d="M15.66,10.9a.44.44,0,0,1-.26-.1.42.42,0,0,1,0-.57L17,8.33a.4.4,0,1,1,.6.52L16,10.76A.41.41,0,0,1,15.66,10.9Z" style="fill:#3a2050"/><path d="M26.45,12.92h0c-.19,0-4.28-1.44-4.42-1.55a.37.37,0,0,1-.16-.27.4.4,0,0,1,.1-.31,1.79,1.79,0,0,0,.09-.45,2.77,2.77,0,0,1,.05-.29l.24-.75a4.84,4.84,0,0,1,1.56-2.63c.28-.3.58-.55.93-.45s.42.51.48.88.1.71.29.81.35.11,1-.21c.9-.44,1.49-.52,1.89-.27s.51.91.52,1.51c0,.19,0,.39,0,.58.07.66-.71.92-1.55,1.08a1.09,1.09,0,0,1,.39,1A1.57,1.57,0,0,1,26.45,12.92Zm-3.69-2.1c.95.34,3.35,1.2,3.71,1.3a.81.81,0,0,0,.63-.63c0-.36-.48-.52-.79-.58-.15,0-.53-.11-.52-.48s.31-.43.93-.52a5.36,5.36,0,0,0,1.53-.37c0-.19,0-.39,0-.58s0-.78-.13-.85-.24-.12-1.14.31a2,2,0,0,1-1.74.2,1.73,1.73,0,0,1-.71-1.4v0l0,0a4.11,4.11,0,0,0-1.38,2.31l-.23.76a.54.54,0,0,0,0,.15C22.8,10.55,22.79,10.69,22.76,10.82Zm-.53.23h0Z" style="fill:#3a2050"/><path d="M24.31,19.63a1.51,1.51,0,0,1-1.06-.39h0c-.14-.14-2.2-4-2.24-4.14a.41.41,0,0,1,.07-.32.39.39,0,0,1,.29-.16,1.38,1.38,0,0,0,.38-.25,1.21,1.21,0,0,1,.24-.16l.7-.36a4.82,4.82,0,0,1,3-.74c.41,0,.83,0,1,.34s-.06.66-.27.94-.39.55-.33.74.18.34.93.59c1,.34,1.48.68,1.6,1.15s-.27,1-.67,1.4c-.12.14-.26.28-.37.43-.41.51-1.17.15-1.9-.32a1.06,1.06,0,0,1-.36.93A1.5,1.5,0,0,1,24.31,19.63Zm-.47-.93a.85.85,0,0,0,.93,0c.26-.22-.06-.72-.21-.93s-.32-.44-.06-.7.53-.09,1.05.27a5.85,5.85,0,0,0,1.41.81,5.14,5.14,0,0,1,.38-.42c.19-.2.5-.55.47-.66s-.09-.26-1.07-.59c-.82-.28-1.3-.64-1.44-1.1a1.64,1.64,0,0,1,.45-1.46v0h-.07a4.13,4.13,0,0,0-2.63.64l-.7.37a.59.59,0,0,0-.11.08,3.06,3.06,0,0,1-.29.21C22.44,16.13,23.64,18.39,23.84,18.7Zm0,0ZM21.4,15h0Z" style="fill:#3a2050"/><path d="M17.06,9.12A.39.39,0,0,1,16.8,9c-.14-.12-2.52-3.77-2.57-3.95a1.57,1.57,0,0,1,.91-1.78,1.08,1.08,0,0,1,1,.12c-.06-.86,0-1.68.64-1.77l.57-.11c.57-.14,1.16-.27,1.57.12s.41.92.22,1.93c-.14.76,0,1,.06,1.08s.53.11.83.08.76-.08,1,.24,0,.68-.19,1a4.78,4.78,0,0,1-2.11,2.19l-.66.42-.26.12a1.31,1.31,0,0,0-.41.21.47.47,0,0,1-.28.16ZM15,4.83c.18.32,1.6,2.47,2.17,3.33A2.52,2.52,0,0,1,17.5,8L17.63,8l.66-.42A4,4,0,0,0,20.15,5.6l0-.06h0a1.71,1.71,0,0,1-1.51-.33,2,2,0,0,1-.26-1.77c.19-1,0-1.19,0-1.21s-.54,0-.83.09L17,2.43A5.77,5.77,0,0,0,17,4c.07.63.1.94-.27,1s-.52-.25-.59-.39-.41-.77-.74-.64A.84.84,0,0,0,15,4.83Z" style="fill:#3a2050"/><path d="M26.78,6.47a.38.38,0,0,1-.35-.21.4.4,0,0,1,.17-.54c.71-.38.75-.57.75-.57s-.41-.37-.64-.52A5.24,5.24,0,0,1,25.87,4a8.68,8.68,0,0,0-1.22,1c-.46.41-.69.61-1,.37s-.11-.57,0-.7A1,1,0,0,0,23.3,3.2,1,1,0,0,0,22.35,3,2.48,2.48,0,0,0,21.8,4a.4.4,0,0,1-.51.24.41.41,0,0,1-.24-.52,3,3,0,0,1,.67-1.15c.41-.54,1.37-.43,2,0a1.81,1.81,0,0,1,.86,1.4c.66-.54,1.37-1,1.84-.51a4.55,4.55,0,0,0,.71.54c.51.34,1,.68,1,1.23S27.76,6,27,6.43A.41.41,0,0,1,26.78,6.47Z" style="fill:#3a2050"/></svg>