<svg id="Calque_1" data-name="Calque 1" xmlns="http://www.w3.org/2000/svg" width="30" height="30" viewBox="0 0 30 30"><title>Sans titre - 3</title><path d="M11.56,15.71a.4.4,0,0,1-.39-.3L9.29,7.47A.4.4,0,0,1,9.54,7l7.19-2.63,3.18-1.09c.41-.16.7-.26.95-.34a9,9,0,0,0,2.22-1.12.4.4,0,0,1,.55.13.39.39,0,0,1-.13.55,9.1,9.1,0,0,1-2.39,1.19c-.23.08-.52.18-.92.34L17,5.12,10.15,7.63l1.71,7.22c9.85-1.84,15.91-8.7,16-10.59,0-.13,0-.19,0-.22l-4.54.77a.4.4,0,0,1-.46-.33A.39.39,0,0,1,23.19,4l4.66-.79a.37.37,0,0,1,.18,0,1,1,0,0,1,.67,1.07c-.18,2.54-7,9.66-17.07,11.4Z" style="fill:#3a2050"/><path d="M20.83,8.12a2.49,2.49,0,0,1-.69-4.87h0a2.49,2.49,0,0,1,1.87.2,2.45,2.45,0,0,1,1.18,1.49A2.49,2.49,0,0,1,21.52,8,2.74,2.74,0,0,1,20.83,8.12ZM20.36,4A1.68,1.68,0,0,0,19.23,6.1a1.63,1.63,0,0,0,.8,1,1.68,1.68,0,0,0,1.59-2.95A1.59,1.59,0,0,0,20.36,4Z" style="fill:#3a2050"/><path d="M10.21,18a.41.41,0,0,1-.24-.08L2.4,12.18a.4.4,0,0,1-.16-.26.46.46,0,0,1,.08-.3A14.11,14.11,0,0,1,9.55,7a.41.41,0,0,1,.51.26.42.42,0,0,1-.26.51,13.69,13.69,0,0,0-6.59,4L10.11,17l1.23-1.85a.4.4,0,1,1,.67.45l-1.47,2.2a.41.41,0,0,1-.26.17Z" style="fill:#3a2050"/><path d="M9.88,20.51h0l-8.06-.66a.4.4,0,0,1-.36-.34A10.34,10.34,0,0,1,3,12.11.41.41,0,0,1,3.53,12a.4.4,0,0,1,.07.56,9.45,9.45,0,0,0-1.43,6.49l7.36.6.28-2.17a.4.4,0,1,1,.8.1l-.33,2.56A.4.4,0,0,1,9.88,20.51Z" style="fill:#3a2050"/><path d="M6,26.3H6a.4.4,0,0,1-.28-.16l-.31-.42c-1-1.31-2.65-3.5-2.7-6.16a.39.39,0,0,1,.39-.4.36.36,0,0,1,.41.39c0,2.39,1.61,4.46,2.54,5.69l.06.09,3.73-3.09-.35-2.06a.4.4,0,0,1,.32-.46.41.41,0,0,1,.47.33l.39,2.28a.42.42,0,0,1-.14.38L6.3,26.21A.39.39,0,0,1,6,26.3Z" style="fill:#3a2050"/><path d="M14.63,29.16h-.08c-2.63-.56-5.61-1.33-7.78-3.38a.39.39,0,0,1,0-.56.4.4,0,0,1,.56,0c1.91,1.8,4.46,2.53,7,3.08l.16-2.83-4.36-2.7a.41.41,0,0,1-.13-.55.41.41,0,0,1,.56-.13l4.56,2.83a.4.4,0,0,1,.18.36L15,28.78a.39.39,0,0,1-.16.3A.41.41,0,0,1,14.63,29.16Z" style="fill:#3a2050"/><path d="M14.68,28.38a.4.4,0,0,1,0-.8,13.59,13.59,0,0,0,7.17-2.82l.74-4.71-7.48,5.5a.4.4,0,1,1-.47-.64l8.26-6.08a.38.38,0,0,1,.44,0,.38.38,0,0,1,.19.4L22.57,25a.35.35,0,0,1-.14.25,14.29,14.29,0,0,1-7.71,3.09Z" style="fill:#3a2050"/><path d="M15.68,20.64a.39.39,0,0,1-.32-.17l-3.56-5a.39.39,0,0,1,.09-.55.4.4,0,0,1,.56.09L16,20a.4.4,0,0,1-.09.55A.38.38,0,0,1,15.68,20.64Z" style="fill:#3a2050"/><path d="M15.23,21.83a.43.43,0,0,1-.28-.11l-4.62-4.48a.4.4,0,1,1,.56-.57l4.62,4.47a.41.41,0,0,1,0,.57A.4.4,0,0,1,15.23,21.83Z" style="fill:#3a2050"/><path d="M15,23.05a.39.39,0,0,1-.23-.07l-5-3.49a.39.39,0,0,1-.09-.55.38.38,0,0,1,.55-.1l5,3.48a.4.4,0,0,1-.23.73Z" style="fill:#3a2050"/><path d="M21.19,6.11A1.18,1.18,0,0,1,20.67,6a1.08,1.08,0,0,1-.51-.64,1.06,1.06,0,0,1,.09-.82A1.08,1.08,0,0,1,20.89,4a1.07,1.07,0,0,1,1.33.73,1,1,0,0,1-.09.81,1.06,1.06,0,0,1-.64.52A1,1,0,0,1,21.19,6.11Zm0-1.34h-.08a.26.26,0,0,0-.16.13.27.27,0,0,0,0,.2.31.31,0,0,0,.13.17.28.28,0,0,0,.2,0,.31.31,0,0,0,.17-.13.28.28,0,0,0,0-.2A.29.29,0,0,0,21.19,4.77Z" style="fill:#3a2050"/></svg>