<svg id="Calque_1" data-name="Calque 1" xmlns="http://www.w3.org/2000/svg" width="30" height="30" viewBox="0 0 30 30"><title>Sans titre - 3</title><path d="M19.25,29.07a7.64,7.64,0,0,1-1.86-.22,5.66,5.66,0,0,1-4-3.39c-2.42-6.06,1.37-11.73,5.72-15,2.76-2.08,6-2.91,6.37-2.8a.41.41,0,0,1,.27.23c2.22,5.3-.06,11.19-1.33,13.79C28.59,18.17,27.2,9.1,27.18,9A.4.4,0,0,1,28,8.78c3.63,8.61.95,15-2.46,17.91A9.82,9.82,0,0,1,19.25,29.07ZM25.1,8.49a15.64,15.64,0,0,0-5.53,2.61c-4.12,3.1-7.71,8.42-5.45,14.06a4.87,4.87,0,0,0,3.46,2.92,8.58,8.58,0,0,0,7.39-2c2.81-2.37,5.08-7.34,3.26-14.06.07,3.59-.53,9.23-4.73,11.18a.41.41,0,0,1-.47-.1.38.38,0,0,1,0-.47C23,22.55,27.6,14.94,25.1,8.49Z" style="fill:#3a2050"/><path d="M9.23,22.49a9,9,0,0,1-3.42-.69,7.57,7.57,0,0,1-4.24-4.47C-2.49,6,5.44.22,5.52.16A.43.43,0,0,1,6,.15a.41.41,0,0,1,.17.41C5.62,3.35,5.56,9.5,7.28,11.88a13.33,13.33,0,0,1,1.87,4.64c.6-5.35,1.93-15.8,3.23-16.3a.53.53,0,0,1,.56.11,15.64,15.64,0,0,1,4.5,9.4.4.4,0,0,1-.37.43.38.38,0,0,1-.42-.37,15.27,15.27,0,0,0-4-8.68c-.62,1.19-1.87,7.38-3,18.4a.4.4,0,0,1-.4.36h0a.4.4,0,0,1-.4-.36c0-.05-.45-4.75-2.21-7.17S4.84,4.6,5.2,1.5c-1.82,1.77-5.95,7-2.88,15.55a6.76,6.76,0,0,0,3.8,4,7.09,7.09,0,0,0,4.92.33.4.4,0,1,1,.33.73A5.45,5.45,0,0,1,9.23,22.49Z" style="fill:#3a2050"/><path d="M6.51,3.56a.4.4,0,0,1-.29-.12.41.41,0,0,1,0-.57C7.32,1.85,8.77.67,9.39.81a4.82,4.82,0,0,1,1.73,1.25.4.4,0,0,1-.59.55,4.29,4.29,0,0,0-1.31-1A10.24,10.24,0,0,0,6.79,3.45.38.38,0,0,1,6.51,3.56Z" style="fill:#3a2050"/></svg>