<svg id="Calque_1" data-name="Calque 1" xmlns="http://www.w3.org/2000/svg" width="30" height="30" viewBox="0 0 30 30"><title>Sans titre - 3</title><path d="M13.83,23.36a.4.4,0,0,1-.4-.4c0-3.8-1.39-5.51-4.63-5.64.08,2.35.91,3.74,2.57,4.37a.41.41,0,0,1,.24.52.4.4,0,0,1-.52.23C9,21.65,8,19.84,8,16.91a.4.4,0,0,1,.4-.4c5.24,0,5.84,3.68,5.84,6.45A.4.4,0,0,1,13.83,23.36Z" style="fill:#3a2050"/><path d="M13.83,18.52a.4.4,0,0,1-.4-.4c0-3.84-1.34-5.5-4.59-5.62.07,2.46.85,3.9,2.44,4.5a.4.4,0,0,1-.29.75C9,17,8,15.14,8,12.09a.4.4,0,0,1,.4-.4c4,0,5.8,2,5.8,6.43A.4.4,0,0,1,13.83,18.52Z" style="fill:#3a2050"/><path d="M13.83,27.59C9.66,27.59,8,26,8,21.75a.4.4,0,0,1,.4-.4,9.33,9.33,0,0,1,3.75.64,3.55,3.55,0,0,1,2.05,3.38v1.82A.4.4,0,0,1,13.83,27.59Zm-5-5.43c.09,3.32,1.3,4.54,4.6,4.63V25.37a2.72,2.72,0,0,0-1.58-2.65A7.93,7.93,0,0,0,8.83,22.16Z" style="fill:#3a2050"/><path d="M13.83,23.36a.4.4,0,0,1-.4-.4c0-2.77.61-6.45,5.84-6.45a.4.4,0,0,1,.4.4c0,2.93-1,4.74-3.1,5.53a.39.39,0,0,1-.51-.23.4.4,0,0,1,.23-.52c1.66-.63,2.49-2,2.57-4.37-3.24.13-4.63,1.84-4.63,5.64A.4.4,0,0,1,13.83,23.36Z" style="fill:#3a2050"/><path d="M13.83,18.52a.4.4,0,0,1-.4-.4c0-4.45,1.79-6.43,5.8-6.43a.4.4,0,0,1,.4.4c0,3.05-1,4.9-3,5.66a.4.4,0,0,1-.52-.23.41.41,0,0,1,.23-.52c1.59-.6,2.37-2,2.45-4.5-3.26.12-4.6,1.78-4.6,5.62A.4.4,0,0,1,13.83,18.52Z" style="fill:#3a2050"/><path d="M13.83,27.59a.4.4,0,0,1-.4-.4V25.37A3.55,3.55,0,0,1,15.48,22a9.33,9.33,0,0,1,3.75-.64.4.4,0,0,1,.4.4C19.63,26,18,27.59,13.83,27.59Zm5-5.43a7.93,7.93,0,0,0-3,.56,2.72,2.72,0,0,0-1.58,2.65v1.42C17.53,26.7,18.74,25.48,18.83,22.16Z" style="fill:#3a2050"/><path d="M13.83,30a.4.4,0,0,1-.4-.4V18.13a.4.4,0,0,1,.8,0V29.61A.4.4,0,0,1,13.83,30Z" style="fill:#3a2050"/><path d="M13.83,14.9h0a.37.37,0,0,1-.21-.06c-.11-.07-2.61-1.68-2.61-4s2.5-3.9,2.61-4a.38.38,0,0,1,.43,0c.1.06,2.6,1.68,2.6,4s-2.5,3.89-2.6,4A.43.43,0,0,1,13.83,14.9Zm0-.4h0Zm0-6.76c-.56.42-2,1.64-2,3.14s1.46,2.72,2,3.14c.56-.42,2-1.64,2-3.14S14.39,8.16,13.83,7.74Z" style="fill:#3a2050"/><path d="M18.66,11.28a.4.4,0,0,1-.4-.4V5.44a.4.4,0,1,1,.8,0v5.44A.4.4,0,0,1,18.66,11.28Z" style="fill:#3a2050"/><path d="M16.25,7.65a.39.39,0,0,1-.4-.4V2.42a.4.4,0,0,1,.8,0V7.25A.39.39,0,0,1,16.25,7.65Z" style="fill:#3a2050"/><path d="M9,11.28a.4.4,0,0,1-.4-.4V5.44a.4.4,0,1,1,.8,0v5.44A.4.4,0,0,1,9,11.28Z" style="fill:#3a2050"/><path d="M11.41,7.65a.39.39,0,0,1-.4-.4V2.42a.4.4,0,1,1,.8,0V7.25A.39.39,0,0,1,11.41,7.65Z" style="fill:#3a2050"/><path d="M13.83,6.45a.4.4,0,0,1-.4-.4V.61a.4.4,0,0,1,.8,0V6.05A.4.4,0,0,1,13.83,6.45Z" style="fill:#3a2050"/></svg>