<svg id="Calque_1" data-name="Calque 1" xmlns="http://www.w3.org/2000/svg" width="11.87mm" height="10.26mm" viewBox="0 0 33.65 29.07"><title>paperplane</title><path d="M141,79l-.16,0-9.47-3a.54.54,0,0,1,.33-1l8.95,2.84,6.44-21.15L116.93,69.94l6.57,2a.53.53,0,1,1-.31,1l-8-2.44a.53.53,0,0,1-.06-1l32.58-14.37a.52.52,0,0,1,.57.09.54.54,0,0,1,.16.56l-6.94,22.79a.53.53,0,0,1-.27.32A.51.51,0,0,1,141,79Z" transform="translate(-114.85 -55.12)" style="fill:#3a2050"/><path d="M126.05,84.2H126a.52.52,0,0,1-.43-.4l-2.7-11.19a.54.54,0,0,1,.28-.61l13.8-6.73a.55.55,0,0,1,.63.12.53.53,0,0,1,.06.64L126.51,83.94A.55.55,0,0,1,126.05,84.2ZM124,72.77l2.3,9.52L135.71,67Z" transform="translate(-114.85 -55.12)" style="fill:#3a2050"/></svg>