<svg id="Calque_1" data-name="Calque 1" xmlns="http://www.w3.org/2000/svg" width="30.98" height="33.98" viewBox="0 0 30.98 33.98"><title>Oampouke</title><path d="M20.62,41.53a.49.49,0,0,1-.49-.46,4.31,4.31,0,0,0-2.07-3.81c-1.32-1-2.81-2.16-3.09-6.43a7.87,7.87,0,0,1,2.22-6,10.22,10.22,0,0,1,7.47-3.16,10.39,10.39,0,0,1,7.5,3.18,7.84,7.84,0,0,1,2.19,5.95c-.29,4.13-1.74,5.28-3,6.29a4.64,4.64,0,0,0-1.84,2.3.51.51,0,0,1-.63.3.5.5,0,0,1-.3-.63,5.74,5.74,0,0,1,2.16-2.74c1.23-1,2.38-1.88,2.65-5.59a6.91,6.91,0,0,0-1.93-5.21,9.45,9.45,0,0,0-13.55,0,7,7,0,0,0-2,5.23c.25,3.82,1.5,4.78,2.71,5.72A5.27,5.27,0,0,1,21.11,41a.5.5,0,0,1-.46.52Z" transform="translate(-9.17 -15.7)" style="fill:#3a2050"/><path d="M20.76,48.12a.47.47,0,0,1-.47-.36.49.49,0,0,1,.35-.6L28.93,45a.49.49,0,0,1,.6.35.48.48,0,0,1-.35.59l-8.3,2.16A.25.25,0,0,1,20.76,48.12Z" transform="translate(-9.17 -15.7)" style="fill:#3a2050"/><path d="M20.76,45a.47.47,0,0,1-.47-.36.49.49,0,0,1,.35-.6l8.29-2.16a.49.49,0,0,1,.6.35.48.48,0,0,1-.35.59L20.88,45Z" transform="translate(-9.17 -15.7)" style="fill:#3a2050"/><path d="M20.76,41.91a.48.48,0,0,1-.47-.37.49.49,0,0,1,.35-.6l8.29-2.16a.49.49,0,1,1,.25.95l-8.3,2.16Z" transform="translate(-9.17 -15.7)" style="fill:#3a2050"/><path d="M24.66,49.68a3.61,3.61,0,0,1-2.86-1.34.48.48,0,0,1,.1-.68.47.47,0,0,1,.68.09,2.64,2.64,0,0,0,2.08,1,2.3,2.3,0,0,0,2.48-2.07.48.48,0,0,1,.48-.49.49.49,0,0,1,.49.49A3.27,3.27,0,0,1,24.66,49.68Z" transform="translate(-9.17 -15.7)" style="fill:#3a2050"/><path d="M24.94,19.45a.48.48,0,0,1-.48-.49V16.19a.48.48,0,0,1,.48-.49.49.49,0,0,1,.49.49V19A.49.49,0,0,1,24.94,19.45Z" transform="translate(-9.17 -15.7)" style="fill:#3a2050"/><path d="M33.09,22.47a.5.5,0,0,1-.35-.15.49.49,0,0,1,0-.69l2-2a.48.48,0,0,1,.69,0,.49.49,0,0,1,0,.69l-2,2A.52.52,0,0,1,33.09,22.47Z" transform="translate(-9.17 -15.7)" style="fill:#3a2050"/><path d="M39.66,31.3H36.87a.49.49,0,0,1,0-1h2.79a.49.49,0,0,1,0,1Z" transform="translate(-9.17 -15.7)" style="fill:#3a2050"/><path d="M34.66,41.64a.52.52,0,0,1-.35-.14l-2-2a.49.49,0,0,1,.69-.69l2,2a.49.49,0,0,1,0,.69A.54.54,0,0,1,34.66,41.64Z" transform="translate(-9.17 -15.7)" style="fill:#3a2050"/><path d="M16.63,22.47a.49.49,0,0,1-.34-.14l-2-2a.49.49,0,0,1,0-.69.48.48,0,0,1,.69,0l2,2a.48.48,0,0,1,0,.69A.49.49,0,0,1,16.63,22.47Z" transform="translate(-9.17 -15.7)" style="fill:#3a2050"/><path d="M12.45,30.73H9.66a.48.48,0,0,1-.49-.48.49.49,0,0,1,.49-.49h2.79a.48.48,0,0,1,.48.49A.47.47,0,0,1,12.45,30.73Z" transform="translate(-9.17 -15.7)" style="fill:#3a2050"/><path d="M14.26,41.64a.5.5,0,0,1-.35-.14.49.49,0,0,1,0-.69l2-2a.49.49,0,1,1,.69.69l-2,2A.51.51,0,0,1,14.26,41.64Z" transform="translate(-9.17 -15.7)" style="fill:#3a2050"/><path d="M24.36,36.88a.47.47,0,0,1-.39-.2l-3-4.14a.49.49,0,1,1,.79-.57l2.58,3.53,4.18-7.34a.49.49,0,0,1,.85.48l-4.56,8a.49.49,0,0,1-.39.24Z" transform="translate(-9.17 -15.7)" style="fill:#3a2050"/></svg>