<svg id="Calque_1" data-name="Calque 1" xmlns="http://www.w3.org/2000/svg" width="13.66mm" height="17.72mm" viewBox="0 0 38.72 50.22"><title>commercial</title><path d="M132.35,89.21h0a.62.62,0,0,1-.55-.37l-5.34-12.3a.6.6,0,0,1,.17-.7,3.64,3.64,0,0,0,.34-.34,5,5,0,0,0,1.18-3.74.62.62,0,0,1,.56-.66.61.61,0,0,1,.66.56,6.26,6.26,0,0,1-1.49,4.65l-.12.14,4.62,10.67,5-10.51q-.16-.15-.3-.3a6.6,6.6,0,0,1-1.3-4.66.61.61,0,1,1,1.21.09,5.33,5.33,0,0,0,1,3.75,3.34,3.34,0,0,0,.51.47.6.6,0,0,1,.18.75L132.9,88.86A.62.62,0,0,1,132.35,89.21Z" transform="translate(-112.93 -44.88)" style="fill:#2d2d2d"/><path d="M150.39,95.1h-.12a.6.6,0,0,1-.48-.71c2-10.59-.53-14.31-11.85-17.34a.62.62,0,0,1-.43-.75.61.61,0,0,1,.75-.43c12,3.22,14.89,7.42,12.73,18.75A.62.62,0,0,1,150.39,95.1Z" transform="translate(-112.93 -44.88)" style="fill:#2d2d2d"/><path d="M114.53,95.1a.61.61,0,0,1-.59-.46c-2.46-10.18-.71-13.87,8.16-17.18l4.7-1.73a.61.61,0,1,1,.43,1.14l-4.71,1.73c-8.26,3.09-9.71,6.18-7.39,15.75a.62.62,0,0,1-.45.74Z" transform="translate(-112.93 -44.88)" style="fill:#2d2d2d"/><path d="M144.7,91.56h-6.43a.62.62,0,0,1,0-1.23h6.43a.62.62,0,0,1,0,1.23Z" transform="translate(-112.93 -44.88)" style="fill:#2d2d2d"/><path d="M133.05,73.31c-4.9,0-8.89-4.44-8.89-9.89,0-4.78,0-8.91,5.34-8.91,2.51,0,7.08-.48,8.31-2.29a.57.57,0,0,1,.45-.27.63.63,0,0,1,.49.18c1.81,1.87,3.12,7.25,3.12,10C141.87,67.39,138.1,73.31,133.05,73.31Zm5.24-19.8c-2.28,2.11-7.65,2.22-8.79,2.22-3.77,0-4.12,2.11-4.12,7.69,0,4.78,3.44,8.67,7.67,8.67s7.6-5.37,7.6-10A19.57,19.57,0,0,0,138.29,53.51Z" transform="translate(-112.93 -44.88)" style="fill:#2d2d2d"/><path d="M120.31,78.64a.6.6,0,0,1-.49-.24c-2.16-2.84-2.32-7.54-2.32-14.4,0-9.44,0-18.35,15.22-19.09a.63.63,0,0,1,.64.58.6.6,0,0,1-.58.64c-13.38.65-14.06,7.21-14.06,17.87,0,6.61.15,11.13,2.07,13.66a.6.6,0,0,1-.11.85A.58.58,0,0,1,120.31,78.64Z" transform="translate(-112.93 -44.88)" style="fill:#2d2d2d"/><path d="M146.42,79.59a.58.58,0,0,1-.39-.15.61.61,0,0,1-.07-.86c1.8-2.09,1.5-4.24,1.09-7.21a34.18,34.18,0,0,1-.41-4.73c0-6.13,0-13.75-4.13-17.69-2.21-2.1-5.39-3-9.73-2.82a.61.61,0,1,1-.06-1.22c4.69-.23,8.17.81,10.63,3.16,4.51,4.3,4.51,12.21,4.51,18.57a33.08,33.08,0,0,0,.4,4.56c.42,3,.78,5.67-1.37,8.18A.61.61,0,0,1,146.42,79.59Z" transform="translate(-112.93 -44.88)" style="fill:#2d2d2d"/></svg>