<svg id="Calque_1" data-name="Calque 1" xmlns="http://www.w3.org/2000/svg" width="12.04mm" height="10.98mm" viewBox="0 0 34.13 31.12"><title>icon_pouce</title><path d="M70.1,46.31a10.94,10.94,0,0,1-9.06-5,.56.56,0,0,1,.16-.78.55.55,0,0,1,.77.16,9.82,9.82,0,0,0,8.33,4.54L80.45,45a1.74,1.74,0,0,0,1.25-.59,2,2,0,0,0,.52-1.5,2,2,0,0,0-.93-1.52.55.55,0,0,1-.26-.57.57.57,0,0,1,.43-.45,2,2,0,0,0,.59-3.57.56.56,0,0,1,.17-1,2,2,0,0,0,1.52-2,1.93,1.93,0,0,0-.7-1.35.56.56,0,0,1-.18-.6.57.57,0,0,1,.49-.39,2,2,0,0,0,1.8-2.13,1.62,1.62,0,0,0-.54-1.2,2.12,2.12,0,0,0-1.56-.56l-9.47.58a.52.52,0,0,1-.5-.26.54.54,0,0,1,0-.56l2.58-4.66c.62-1.12,1.11-4.32.7-5.41a1.7,1.7,0,0,0-1.49-.85c-.18,0-.79,0-1,.43L71,22.43a.48.48,0,0,1-.12.16l-9,8.32a.56.56,0,1,1-.76-.82l8.94-8.25,2.77-5.6a2,2,0,0,1,2.07-1,2.77,2.77,0,0,1,2.47,1.57c.58,1.52,0,5.07-.76,6.35l-2.09,3.76L83,26.35a3.26,3.26,0,0,1,2.4.86,2.78,2.78,0,0,1,.89,2,3.24,3.24,0,0,1-1.86,3,3.21,3.21,0,0,1,.45,1.39,3.08,3.08,0,0,1-1.47,2.85,3.05,3.05,0,0,1,.7,1.74,3.08,3.08,0,0,1-1.47,2.85,3,3,0,0,1,.71,1.73,3.13,3.13,0,0,1-.8,2.34,2.88,2.88,0,0,1-2.06,1l-10.15.22Z" transform="translate(-52.14 -15.19)" style="fill:#3a2050"/><path d="M59.28,46.31H54.63a2.5,2.5,0,0,1-2.49-2.49V28.5A2.5,2.5,0,0,1,54.63,26h4.65a2.5,2.5,0,0,1,2.49,2.5V43.82A2.5,2.5,0,0,1,59.28,46.31ZM54.63,27.12a1.37,1.37,0,0,0-1.37,1.38V43.82a1.37,1.37,0,0,0,1.37,1.37h4.65a1.38,1.38,0,0,0,1.38-1.37V28.5a1.38,1.38,0,0,0-1.38-1.38Zm2.19,15.52a1.43,1.43,0,1,1,1.43-1.43A1.43,1.43,0,0,1,56.82,42.64Zm0-1.74a.31.31,0,1,0,.31.31A.31.31,0,0,0,56.82,40.9Z" transform="translate(-52.14 -15.19)" style="fill:#3a2050"/></svg>