<svg id="Logo" xmlns="http://www.w3.org/2000/svg" width="24" height="24" viewBox="0 0 24 24"><title>tok</title><path d="M256.16,257.38a.62.62,0,0,1-.36-.57,1.12,1.12,0,0,1,.25-.66c0-.07.14-.16.06-.25s-.18,0-.27,0l-.14.07a2.69,2.69,0,0,0-1.31,2.74,1.12,1.12,0,0,0,1.24.91,1.23,1.23,0,0,0,1-.81C257,258.09,256.84,257.75,256.16,257.38Z" transform="translate(-244.18 -244.21)" style="fill:#fff"/><path d="M256.18,244.21a12,12,0,1,0,12,12A12,12,0,0,0,256.18,244.21Zm-.29,16.46a2.86,2.86,0,0,1-1,.28,7.44,7.44,0,0,1-1.39,0,2,2,0,0,1-1.55-1.32,5,5,0,0,1-2,1.24,4,4,0,0,1-1.36.09,1.7,1.7,0,0,1-1.14-2.15,19,19,0,0,1,.77-2.35c.09-.26.12-.46-.21-.56a.25.25,0,0,1-.18-.32c.06-.18.06-.44.3-.46a3.72,3.72,0,0,0,2.52-1.66c.11-.13.23-.27.35-.39a.4.4,0,0,1,.49-.08c.17.09.11.26.08.39-.1.39-.23.77-.33,1.16s0,.53.39.56c.15,0,.34,0,.37.18a.55.55,0,0,1-.24.57.72.72,0,0,1-.35.11.72.72,0,0,0-.68.5,8.42,8.42,0,0,0-.64,2.2c-.11.61.38.95,1,.7a6.45,6.45,0,0,0,.74-.46.23.23,0,0,0,.09-.24c-.06-1.56,1.72-3.48,3.57-3.68a3.67,3.67,0,0,1,1.8.17,1.88,1.88,0,0,1,1.1,2.24A4.36,4.36,0,0,1,255.89,260.67Zm8.31-.21a4.38,4.38,0,0,1-1,.51,1.81,1.81,0,0,1-.56.07A2.74,2.74,0,0,1,262,261c-1-.51-1.08-1.47-1.26-2.4-.22.65-.42,1.29-.6,1.94a.47.47,0,0,1-.54.39c-.21,0-1.15.07-1.4.07a.51.51,0,0,1-.15-.59,15,15,0,0,1,.86-2.71,17.21,17.21,0,0,0,1.13-4.16c.06-.59,0-.76-.61-.9-.32-.08-.39-.29-.17-.55a2.53,2.53,0,0,1,2.76-.46,1,1,0,0,1,.48.85,4.26,4.26,0,0,1-.28,1.62c-.37,1.08-.74,2.15-1.1,3.23,0,.08-.1.16,0,.23s.18,0,.26,0a1.51,1.51,0,0,0,.68-.62,3.29,3.29,0,0,0,.46-.94c.22-.77,1.49-1.09,2-.93a.42.42,0,0,1,.32.55,2,2,0,0,1-.49.86,6,6,0,0,1-1.89,1.43c-.2.1-.22.2-.14.39a3.41,3.41,0,0,0,.37.74,1.09,1.09,0,0,0,1.7.25c.29-.22.4-.21.62.05v.18A3,3,0,0,1,264.2,260.46Z" transform="translate(-244.18 -244.21)" style="fill:#fff"/></svg>