<svg id="Calque_1" data-name="Calque 1" xmlns="http://www.w3.org/2000/svg" width="21.61mm" height="14.56mm" viewBox="0 0 61.26 41.27"><title>export</title><path d="M216,75.44a.65.65,0,0,1-.61-.45l-.28-.92-3.56-4.41a.66.66,0,0,1-.11-.59.63.63,0,0,1,.42-.42l3.09-1a.65.65,0,0,1,.54.09l5.72,3.87a.65.65,0,0,1,.26.35l.29,1a.64.64,0,0,1-.45.78.63.63,0,0,1-.78-.44l-.23-.81L215.05,69l-1.9.58,3,3.78a.61.61,0,0,1,.11.21l.32,1a.65.65,0,0,1-.42.8Z" transform="translate(-205.81 -47.41)" style="fill:#2d2d2d"/><path d="M216.87,88.68a.66.66,0,0,1-.44-.17.64.64,0,0,1-.19-.6L217.57,82l-.08-.25-5,1.53a8.77,8.77,0,0,1-2.55.36c-1.78-.08-2.33-1-2.5-1.58a1.8,1.8,0,0,1,.45-1.73l-2-3.42a.63.63,0,0,1-.05-.55.65.65,0,0,1,.41-.38l2.06-.63a.65.65,0,0,1,.54.08c1.3.87,2.76,1.82,3.28,2.13l16.67-5.12a2.79,2.79,0,0,1,3.48,1.85,2.78,2.78,0,0,1-1.85,3.48l-4.95,1.52-1.24,2.43-3.92,5.76a.61.61,0,0,1-.34.25l-2.94.9A.57.57,0,0,1,216.87,88.68Zm2.94-1.54h0Zm-1.9-6.81a.61.61,0,0,1,.3.08.63.63,0,0,1,.31.37l.32,1a.74.74,0,0,1,0,.33l-1.12,5,1.68-.52,3.75-5.51,1.32-2.59a.58.58,0,0,1,.38-.32l5.21-1.6a1.52,1.52,0,0,0,1-1.9,1.47,1.47,0,0,0-.73-.89,1.51,1.51,0,0,0-1.16-.11l-16.91,5.19c-.34.1-.4.12-3.87-2.19l-1,.3,1.85,3.14a.65.65,0,0,1-.1.77c-.51.51-.52.68-.47.82s.19.63,1.33.68a7.12,7.12,0,0,0,2.12-.31l5.6-1.72A.57.57,0,0,1,217.91,80.33Z" transform="translate(-205.81 -47.41)" style="fill:#2d2d2d"/><path d="M248.05,67h-3.23a.63.63,0,0,1-.45-.18l-5.19-5.2h-7.27a.63.63,0,0,1-.63-.63V59.88A3.86,3.86,0,0,1,235.14,56h3l2-2a.64.64,0,0,1,.45-.19h5.11l1.93-2a.63.63,0,1,1,.91.88l-2.11,2.2a.63.63,0,0,1-.46.2h-5.12l-2,2a.64.64,0,0,1-.45.19h-3.23a2.59,2.59,0,0,0-2.59,2.59v.44h6.89a.64.64,0,0,1,.45.19l5.2,5.19h2.7l.89-.89a.64.64,0,0,1,.45-.19h6.45a.64.64,0,1,1,0,1.28h-6.19l-.89.89A.63.63,0,0,1,248.05,67Z" transform="translate(-205.81 -47.41)" style="fill:#2d2d2d"/><path d="M237.29,87.42a19.94,19.94,0,0,1-11.06-3.34.64.64,0,0,1-.18-.88.65.65,0,0,1,.89-.18,18.73,18.73,0,1,0-8.27-17.69.63.63,0,0,1-1.26-.14,20,20,0,1,1,19.88,22.23Z" transform="translate(-205.81 -47.41)" style="fill:#2d2d2d"/><path d="M222.23,68.05a.64.64,0,0,1-.64-.64V65.26a.64.64,0,0,1,.19-.45l2.15-2.15a.64.64,0,0,1,.45-.19h1.52V61a2.6,2.6,0,0,0-2.6-2.59h-2.15a.64.64,0,0,1,0-1.28h2.15A3.88,3.88,0,0,1,227.17,61v2.15a.64.64,0,0,1-.64.64h-1.89l-1.78,1.77v1.89A.64.64,0,0,1,222.23,68.05Z" transform="translate(-205.81 -47.41)" style="fill:#2d2d2d"/><path d="M236.21,74.5a.64.64,0,0,1-.63-.57.63.63,0,0,1,.57-.69c14.66-1.51,29.94-8.42,29.64-12.15-.14-1.82-3-3.47-7.87-4.54a.64.64,0,0,1-.49-.76.63.63,0,0,1,.76-.48c5.61,1.23,8.67,3.2,8.87,5.68.42,5.29-17,12.09-30.78,13.51Z" transform="translate(-205.81 -47.41)" style="fill:#2d2d2d"/><path d="M234.6,78.71" transform="translate(-205.81 -47.41)" style="fill:none;stroke:#2d2d2d;stroke-linecap:round;stroke-linejoin:round;stroke-width:1.2721855926385137px"/><path d="M259.9,60.52a.66.66,0,0,1-.51-.25L256.15,56a.64.64,0,0,1,.12-.89l4.3-3.24a.63.63,0,1,1,.76,1l-3.78,2.86,2.86,3.79a.64.64,0,0,1-.13.89A.6.6,0,0,1,259.9,60.52Z" transform="translate(-205.81 -47.41)" style="fill:#2d2d2d"/></svg>