<svg id="icons" xmlns="http://www.w3.org/2000/svg" width="30.44" height="24.05" viewBox="0 0 30.44 24.05"><title>panier</title><path d="M87.92,354H84.08a1.81,1.81,0,0,1-1.8-1.81v-1.28a1.81,1.81,0,0,1,1.8-1.8h4.48v1.05H84.08a.76.76,0,0,0-.75.75v1.28a.75.75,0,0,0,.75.75h3.84Z" transform="translate(-82.28 -341.47)" style="fill:#3a2050"/><rect x="10.11" y="7.67" width="10.22" height="1.05" style="fill:#3a2050"/><path d="M110.92,354h-3.84V353h3.84a.75.75,0,0,0,.75-.75v-1.28a.76.76,0,0,0-.75-.75h-4.48v-1.05h4.48a1.81,1.81,0,0,1,1.8,1.8v1.28A1.81,1.81,0,0,1,110.92,354Z" transform="translate(-82.28 -341.47)" style="fill:#3a2050"/><path d="M106.18,365.53H88.82a2.43,2.43,0,0,1-2.39-1.92l-2.22-10,1-.22,2.22,10a1.39,1.39,0,0,0,1.36,1.09h17.36a1.39,1.39,0,0,0,1.36-1.09l2.22-10,1,.22-2.22,10A2.43,2.43,0,0,1,106.18,365.53Z" transform="translate(-82.28 -341.47)" style="fill:#3a2050"/><path d="M97.5,362.33a.52.52,0,0,1-.53-.52v-6.39a.53.53,0,1,1,1.06,0v6.39A.52.52,0,0,1,97.5,362.33Z" transform="translate(-82.28 -341.47)" style="fill:#3a2050"/><path d="M100.7,362.33h-.06a.53.53,0,0,1-.47-.58l.64-6.39a.52.52,0,0,1,.58-.47.54.54,0,0,1,.47.58l-.64,6.39A.53.53,0,0,1,100.7,362.33Z" transform="translate(-82.28 -341.47)" style="fill:#3a2050"/><path d="M103.89,362.33h-.1a.52.52,0,0,1-.42-.62l1.28-6.39a.53.53,0,0,1,.62-.41.52.52,0,0,1,.41.62l-1.27,6.39A.53.53,0,0,1,103.89,362.33Z" transform="translate(-82.28 -341.47)" style="fill:#3a2050"/><path d="M94.3,362.33a.53.53,0,0,1-.52-.47l-.64-6.39a.54.54,0,0,1,.47-.58.53.53,0,0,1,.58.47l.64,6.39a.53.53,0,0,1-.47.58Z" transform="translate(-82.28 -341.47)" style="fill:#3a2050"/><path d="M91.11,362.33a.53.53,0,0,1-.52-.42l-1.27-6.39a.52.52,0,0,1,.41-.62.53.53,0,0,1,.62.41l1.28,6.39a.52.52,0,0,1-.42.62Z" transform="translate(-82.28 -341.47)" style="fill:#3a2050"/><path d="M89.83,352.11a.43.43,0,0,1-.19,0,.53.53,0,0,1-.3-.68l3.84-9.59a.53.53,0,0,1,.68-.29.54.54,0,0,1,.3.69l-3.84,9.58A.52.52,0,0,1,89.83,352.11Z" transform="translate(-82.28 -341.47)" style="fill:#3a2050"/><path d="M105.17,352.11a.52.52,0,0,1-.49-.33l-3.84-9.58a.54.54,0,0,1,.3-.69.52.52,0,0,1,.68.29l3.84,9.59a.53.53,0,0,1-.3.68A.43.43,0,0,1,105.17,352.11Z" transform="translate(-82.28 -341.47)" style="fill:#3a2050"/></svg>