<svg xmlns="http://www.w3.org/2000/svg" viewBox="0 0 16 16">
	<g transform="translate(3.1, 3) scale(0.6)">
		<path d="M33.3,30.39h3.31V41.06H33.3ZM35,25.09A1.92,1.92,0,1,1,33,27,1.92,1.92,0,0,1,35,25.09" transform="translate(-33.03 -25.09)" style="fill:#0076b3"></path>
		<path d="M38.69,30.39h3.18v1.46h.05a3.47,3.47,0,0,1,3.14-1.72c3.35,0,4,2.21,4,5.08v5.85H45.72V35.87c0-1.23,0-2.83-1.72-2.83s-2,1.35-2,2.74v5.28H38.69Z" transform="translate(-33.03 -25.09)" style="fill:#0076b3"></path>
	</g>
</svg>
