<svg id="Calque_1" data-name="Calque 1" xmlns="http://www.w3.org/2000/svg" width="14.36mm" height="12.77mm" viewBox="0 0 40.71 36.2"><title>recrutement</title><path d="M148.88,87.91h-33A1.92,1.92,0,0,1,114,86V71.29a.6.6,0,0,1,1.2,0V86a.73.73,0,0,0,.73.72h33a.74.74,0,0,0,.73-.72V71.07a.59.59,0,0,1,.6-.59.58.58,0,0,1,.59.59V86A1.92,1.92,0,0,1,148.88,87.91Z" transform="translate(-112.03 -51.71)" style="fill:#2d2d2d"/><path d="M138.37,58.87a.59.59,0,0,1-.6-.59v-3.8a1.59,1.59,0,0,0-1.57-1.57h-7.63A1.57,1.57,0,0,0,127,54.48v3.8a.59.59,0,0,1-.6.59.58.58,0,0,1-.59-.59v-3.8a2.77,2.77,0,0,1,2.76-2.77h7.63A2.78,2.78,0,0,1,139,54.48v3.8A.59.59,0,0,1,138.37,58.87Z" transform="translate(-112.03 -51.71)" style="fill:#2d2d2d"/><path d="M128.74,74.63h0a42,42,0,0,1-16.34-3.89.58.58,0,0,1-.34-.53l0-10.54A1.93,1.93,0,0,1,114,57.75H150.8a1.92,1.92,0,0,1,1.92,1.92l0,10.26a.6.6,0,0,1-.31.53,39.8,39.8,0,0,1-16.58,4.17.61.61,0,0,1-.63-.57.6.6,0,0,1,.57-.63,38.91,38.91,0,0,0,15.76-3.86l0-9.9a.73.73,0,0,0-.73-.72H114a.73.73,0,0,0-.73.72l0,10.16a41.34,41.34,0,0,0,15.54,3.61.58.58,0,0,1,.56.62A.59.59,0,0,1,128.74,74.63Z" transform="translate(-112.03 -51.71)" style="fill:#2d2d2d"/><path d="M134.77,77.47H130a1.33,1.33,0,0,1-1.33-1.34V72.87A1.32,1.32,0,0,1,130,71.54h4.76a1.33,1.33,0,0,1,1.33,1.33v3.26A1.34,1.34,0,0,1,134.77,77.47ZM130,72.73a.14.14,0,0,0-.14.14v3.26a.14.14,0,0,0,.14.14h4.76a.13.13,0,0,0,.13-.14V72.87a.13.13,0,0,0-.13-.14Z" transform="translate(-112.03 -51.71)" style="fill:#2d2d2d"/></svg>