<svg id="icons" xmlns="http://www.w3.org/2000/svg" width="30.09" height="19.09" viewBox="0 0 30.09 19.09"><title>enveloppe</title><path d="M167.86,345.8h-29a.54.54,0,0,1-.55-.54v-18a.54.54,0,0,1,.31-.49.52.52,0,0,1,.57.06L153.36,338l14.16-11.18a.52.52,0,0,1,.57-.06.54.54,0,0,1,.31.49v18A.54.54,0,0,1,167.86,345.8Zm-28.46-1.09h27.91V328.38l-13.62,10.75a.53.53,0,0,1-.67,0L139.4,328.38Z" transform="translate(-138.31 -326.71)" style="fill:#3a2050"/><path d="M138.86,345.8a.52.52,0,0,1-.42-.19.54.54,0,0,1,.07-.77l11-9.17a.54.54,0,0,1,.77.07.55.55,0,0,1-.07.77l-11,9.17A.59.59,0,0,1,138.86,345.8Z" transform="translate(-138.31 -326.71)" style="fill:#3a2050"/><path d="M167.86,345.8a.55.55,0,0,1-.35-.12l-10.95-9.11a.55.55,0,0,1,.7-.84l11,9.11a.54.54,0,0,1-.35,1Z" transform="translate(-138.31 -326.71)" style="fill:#3a2050"/><path d="M149.77,336.42a.54.54,0,0,1-.34-.12l-10.89-8.62a.55.55,0,0,1-.18-.6.56.56,0,0,1,.52-.37H167.5a.57.57,0,0,1,.52.36.55.55,0,0,1-.17.61l-10.42,8.51a.55.55,0,0,1-.77-.08.54.54,0,0,1,.08-.77L166,327.8H140.45l9.65,7.64a.55.55,0,0,1-.33,1Z" transform="translate(-138.31 -326.71)" style="fill:#3a2050"/></svg>