<svg id="Calque_1" data-name="Calque 1" xmlns="http://www.w3.org/2000/svg" width="48.14" height="26.2" viewBox="0 0 48.14 26.2"><title>tok</title><path d="M37.48,20.25c-.58,1.91-1.12,3.57-1.57,5.25a1.43,1.43,0,0,1-1.61,1.2,27.74,27.74,0,0,0-2.88.12c-1.09.1-1.42-.42-1.28-1.42a21.47,21.47,0,0,1,1.16-4.22c1.51-4.07,3.17-8.07,3.94-12.38.13-.74.27-1.48.36-2.22.19-1.58-.13-2-1.66-2.55-.92-.3-1-.8-.39-1.55C35,.78,38.92.11,40.89,1.24c1.36.78,1.57,2.08,1.41,3.48-.34,2.94-1.66,5.58-2.52,8.37-.38,1.19-.79,2.37-1.17,3.57-.08.26-.36.57-.08.8s.63,0,.92-.16A4.33,4.33,0,0,0,41,15.72a10.28,10.28,0,0,0,1.09-2.11c.76-2.29,2.58-2.94,4.68-3.07,1.75-.11,2.37,1,1.51,2.5A13.73,13.73,0,0,1,42.93,18c-1.55.93-1.56.92-.73,2.56,1.31,2.56,3,3,5.34,1.5.39-.25.78-.43,1.15-.14a1.11,1.11,0,0,1,.08,1.37,6.91,6.91,0,0,1-5.22,3.49c-2.89.47-4.42-.5-5.3-3.28C37.94,22.53,37.81,21.54,37.48,20.25Z" transform="translate(-0.83 -0.68)" style="fill:#249aab"/><path d="M30.79,15.45a5,5,0,0,0-3.6-4.74c-5.71-1.9-13.33,2.72-14,8.72-.19,1.76-1.2,2.3-2.38,2.92a1.85,1.85,0,0,1-2.13-.16,1.8,1.8,0,0,1-.53-2c.25-1.1.54-2.19.86-3.27.56-1.86.87-3.91,3.48-4.09.64,0,.88-.74.88-1.36,0-.44-.14-.67-.61-.77-1.82-.38-1.82-.4-1.28-2.14a11.62,11.62,0,0,0,.39-1.31c.13-.77,1-1.72.05-2.26-1.07-.64-1.61.52-2.16,1.19-1.82,2.25-3.82,4.21-6.91,4.56-.61.07-.68.68-.81,1.14A.19.19,0,0,1,2,12a.75.75,0,0,0,.5.93c1,.29.76.91.51,1.58a53.71,53.71,0,0,0-2,6.06c-1,4.28,1.69,7,6,6.07a12.43,12.43,0,0,0,5.71-2.95c.23-.2.5-.77.82-.08,1.28,2.76,3.71,3.26,6.71,3.26a13.63,13.63,0,0,0,2-.17C26.91,25.74,31.12,20.15,30.79,15.45ZM26.6,19.57a3.1,3.1,0,0,1-.17.73,3.66,3.66,0,0,1-3.85,2.87c-1.62-.24-2.65-1.7-2.63-4a7.29,7.29,0,0,1,3.74-6c.32-.19.74-.44,1-.11s-.15.58-.3.85c-.91,1.6-.69,2.53,1,3.31A2,2,0,0,1,26.6,19.57Z" transform="translate(-0.83 -0.68)" style="fill:#249aab"/></svg>