<svg id="Calque_1" data-name="Calque 1" xmlns="http://www.w3.org/2000/svg" width="15.02mm" height="13.85mm" viewBox="0 0 42.58 39.25"><title>presse</title><path d="M80.83,60.75H78.66a.63.63,0,0,1-.63-.63v-25C78,30.77,80.84,28,85.18,28H99.32a.63.63,0,0,1,.63.62V58a.63.63,0,0,1-.63.62H85.18c-2,0-3.13.55-3.79,1.84A.63.63,0,0,1,80.83,60.75ZM79.28,59.5h1.19c.91-1.48,2.42-2.18,4.71-2.18H98.7V29.21H85.18c-4.35,0-5.9,3-5.9,5.9Z" transform="translate(-57.37 -21.5)" style="fill:#2d2d2d"/><path d="M78.66,60.75H76.48a.62.62,0,0,1-.55-.34c-.66-1.29-1.8-1.84-3.8-1.84H58a.63.63,0,0,1-.63-.62V28.58A.63.63,0,0,1,58,28h2.17a.63.63,0,1,1,0,1.25H58.62V57.32H72.13c2.3,0,3.81.7,4.72,2.18h1.81a.63.63,0,0,1,0,1.25Z" transform="translate(-57.37 -21.5)" style="fill:#2d2d2d"/><path d="M78.66,60.75H76.48a.63.63,0,0,1-.61-.49c-.43-1.93-.87-2.9-2.4-3.49l-11.36-4.7a.63.63,0,0,1-.39-.58V22.12a.62.62,0,0,1,.28-.51.6.6,0,0,1,.58-.06l11.36,4.7c3.93,1.34,5.34,5.46,5.34,8.86v25A.63.63,0,0,1,78.66,60.75ZM77,59.5h1V35.11c0-3-1.19-6.55-4.53-7.7L63,23.06v28l11,4.54A4.82,4.82,0,0,1,77,59.5Z" transform="translate(-57.37 -21.5)" style="fill:#2d2d2d"/></svg>