<svg id="Calque_1" data-name="Calque 1" xmlns="http://www.w3.org/2000/svg" width="14.27mm" height="12.77mm" viewBox="0 0 40.44 36.2"><title>site_internet</title><path d="M99.62,81.24h-35a2.72,2.72,0,0,1-2.72-2.72V54.12a2.72,2.72,0,0,1,2.72-2.72h35a2.72,2.72,0,0,1,2.72,2.72v24.4A2.72,2.72,0,0,1,99.62,81.24Zm-35-28.64a1.52,1.52,0,0,0-1.52,1.52v24.4A1.53,1.53,0,0,0,64.62,80h35a1.53,1.53,0,0,0,1.52-1.52V54.12a1.52,1.52,0,0,0-1.52-1.52Z" transform="translate(-61.9 -51.4)" style="fill:#2d2d2d"/><path d="M91.14,87.6a.6.6,0,0,1-.43-.18l-1.94-1.94H77.6l-1.95,1.94a.6.6,0,1,1-.85-.84l2.12-2.13a.63.63,0,0,1,.43-.17H89a.61.61,0,0,1,.42.17l2.12,2.13a.6.6,0,0,1-.42,1Z" transform="translate(-61.9 -51.4)" style="fill:#2d2d2d"/><path d="M79.47,85.48a.6.6,0,0,1-.6-.6V80.64a.6.6,0,0,1,1.2,0v4.24A.6.6,0,0,1,79.47,85.48Z" transform="translate(-61.9 -51.4)" style="fill:#2d2d2d"/><path d="M86.89,85.27a.6.6,0,0,1-.6-.6v-4a.6.6,0,0,1,.6-.6.6.6,0,0,1,.6.6v4A.6.6,0,0,1,86.89,85.27Z" transform="translate(-61.9 -51.4)" style="fill:#2d2d2d"/><path d="M84.77,78.05H81.59a.6.6,0,0,1-.6-.6.6.6,0,0,1,.6-.6h3.18a.6.6,0,0,1,.6.6A.6.6,0,0,1,84.77,78.05Z" transform="translate(-61.9 -51.4)" style="fill:#2d2d2d"/><path d="M101.74,73.81H62.5a.6.6,0,1,1,0-1.2h39.24a.6.6,0,0,1,0,1.2Z" transform="translate(-61.9 -51.4)" style="fill:#2d2d2d"/></svg>