<svg id="icons" xmlns="http://www.w3.org/2000/svg" width="24" height="24" viewBox="0 0 24 24"><title>youtube</title><polygon points="9.35 13.42 9.35 12.71 6.52 12.71 6.52 13.4 7.4 13.4 7.4 18.16 8.29 18.16 8.29 13.42 9.35 13.42" style="fill:#fff"/><path d="M68.76,280.48V283a5.57,5.57,0,0,1,0,.62c-.07.19-.4.4-.52,0,0-.07,0-.27,0-.62v-2.55h-.88V283c0,.39,0,.67,0,.8s0,.5.22.66a1.09,1.09,0,0,0,1.36-.46v.53h.72v-4Z" transform="translate(-58.17 -266.36)" style="fill:#fff"/><path d="M70,276a.41.41,0,0,0,.39-.43v-2.23a.41.41,0,0,0-.39-.43.41.41,0,0,0-.39.43v2.23A.41.41,0,0,0,70,276Z" transform="translate(-58.17 -266.36)" style="fill:#fff"/><path d="M71.06,280.64v-1.57h-.88v5.41h.73l.07-.33c.92.85,1.51.26,1.51-.76v-2.11C72.47,280.47,71.87,280,71.06,280.64Zm.76,2.89a.36.36,0,0,1-.39.32.35.35,0,0,1-.38-.32v-2.36a.35.35,0,0,1,.38-.32.36.36,0,0,1,.39.32Z" transform="translate(-58.17 -266.36)" style="fill:#fff"/><path d="M70.17,266.36a12,12,0,1,0,12,12A12,12,0,0,0,70.17,266.36Zm1.57,6h.81v3.27a.33.33,0,0,0,.65,0v-3.27H74v4.2H73v-.35a.82.82,0,0,1-.24.32.59.59,0,0,1-.34.1.57.57,0,0,1-.36-.1.56.56,0,0,1-.22-.26,1.47,1.47,0,0,1-.08-.35c0-.13,0-.37,0-.73Zm-2.42.05a1,1,0,0,1,.66-.21,1.32,1.32,0,0,1,.59.13,1,1,0,0,1,.38.35,1.32,1.32,0,0,1,.18.43,3.07,3.07,0,0,1,.05.69v1.06a6,6,0,0,1,0,.86,1.39,1.39,0,0,1-.2.51.91.91,0,0,1-.38.35,1.25,1.25,0,0,1-.53.11,1.35,1.35,0,0,1-.57-.1.77.77,0,0,1-.37-.29,1.25,1.25,0,0,1-.18-.47,4.15,4.15,0,0,1-.06-.82v-1.11a3.82,3.82,0,0,1,.1-1A1,1,0,0,1,69.32,272.42Zm-2.59-1.7.59,2,.59-2h1l-1.1,2.75v3.22H66.9v-3.22l-1.17-2.76ZM76.54,284a2,2,0,0,1-2.08,2H65.89a2,2,0,0,1-2.08-2v-4.51a2,2,0,0,1,2.08-2h8.57a2,2,0,0,1,2.08,2Z" transform="translate(-58.17 -266.36)" style="fill:#fff"/><path d="M74.58,283.11v.46a.36.36,0,0,1-.36.35h-.13a.36.36,0,0,1-.36-.35v-1h1.51V282a10.47,10.47,0,0,0,0-1.08c-.11-.75-1.17-.87-1.71-.48a1.06,1.06,0,0,0-.37.5,2.93,2.93,0,0,0-.11.89v1.25c0,2.1,2.54,1.8,2.24,0Zm-.84-1.7a.4.4,0,0,1,.4-.4h0a.4.4,0,0,1,.4.4v.48h-.84Z" transform="translate(-58.17 -266.36)" style="fill:#fff"/></svg>