<svg id="Calque_1" data-name="Calque 1" xmlns="http://www.w3.org/2000/svg" width="30" height="30" viewBox="0 0 30 30"><title>Sans titre - 3</title><path d="M13.23,3.93H4.76a.4.4,0,0,1-.4-.4V1.39A.89.89,0,0,1,5.25.5h7.49a.89.89,0,0,1,.89.89V3.53A.4.4,0,0,1,13.23,3.93Zm-8.06-.8h7.66V1.39a.09.09,0,0,0-.09-.09H5.25a.09.09,0,0,0-.08.09Z" style="fill:#3a2050"/><path d="M10.34,10.24H1.88a.42.42,0,0,1-.34-.18.4.4,0,0,1,0-.38L4.11,4a.4.4,0,0,1,.73.33L2.5,9.44h7.84a.4.4,0,0,1,0,.8Z" style="fill:#3a2050"/><path d="M10.35,29.89H1.89a.4.4,0,0,1-.4-.4V11.23a.4.4,0,0,1,.4-.4h0a.4.4,0,0,1,.4.4V29.09h8.06a.4.4,0,0,1,0,.8Z" style="fill:#3a2050"/><path d="M11.13,29.57a.42.42,0,0,1-.28-.12.44.44,0,0,1-.12-.28V10.89a.33.33,0,0,1,0-.17L13.49,5a.41.41,0,0,1,.72,0l2.72,5.72a.41.41,0,0,1-.19.53.4.4,0,0,1-.53-.19l-2.36-5L11.53,11V28.76H13.9a.4.4,0,0,1,0,.8Z" style="fill:#3a2050"/><path d="M25.77,12.89H17.31a.4.4,0,0,1-.4-.4V10.35a.88.88,0,0,1,.88-.89h7.49a.89.89,0,0,1,.89.89v2.14A.4.4,0,0,1,25.77,12.89Zm-8.06-.8h7.66V10.35a.09.09,0,0,0-.09-.09H17.79a.09.09,0,0,0-.08.09Z" style="fill:#3a2050"/><path d="M22.88,19.2H14.42a.43.43,0,0,1-.34-.18.41.41,0,0,1,0-.39l2.59-5.69a.39.39,0,0,1,.53-.19.4.4,0,0,1,.2.53L15,18.4h7.84a.4.4,0,0,1,0,.8Z" style="fill:#3a2050"/><path d="M22.9,30.34H14.43a.4.4,0,0,1-.4-.4V19.74a.4.4,0,0,1,.4-.4h0a.4.4,0,0,1,.4.4v9.8H22.9a.4.4,0,1,1,0,.8Z" style="fill:#3a2050"/><path d="M23.67,30a.43.43,0,0,1-.28-.11.45.45,0,0,1-.12-.29V19.4a.39.39,0,0,1,0-.18L26,13.51a.39.39,0,0,1,.36-.23h0a.41.41,0,0,1,.36.23l2.72,5.71a.39.39,0,0,1,0,.18V29.61a.4.4,0,0,1-.4.4Zm.4-10.52v9.72H28.7V19.49l-2.32-4.88Z" style="fill:#3a2050"/></svg>