<svg id="Calque_1" data-name="Calque 1" xmlns="http://www.w3.org/2000/svg" width="30" height="30" viewBox="0 0 30 30"><title>Sans titre - 3</title><path d="M16,24.81h-.06c-.86,0-1.53-.58-2.24-1.86s-1.28-3.38-.44-4.76A2.81,2.81,0,0,1,15.92,17a3,3,0,0,1,2.81,1.37c.73,1.32.16,3.2-.62,4.52S17,24.81,16,24.81Zm-.19-7a2,2,0,0,0-1.87.83c-.61,1-.19,2.77.47,4S15.56,24,16,24h0c.47,0,.65-.2,1.45-1.56s1.08-2.88.61-3.72a2.27,2.27,0,0,0-2.13-1Z" style="fill:#3a2050"/><path d="M17.29,17.9a.4.4,0,0,1-.34-.61c.1-.16.21-.33.32-.53.77-1.3,1-2.63.56-3.39a2,2,0,0,0-1.92-.87,1.91,1.91,0,0,0-1.78.75c-.55.93-.17,2.52.43,3.61l.22.37a.4.4,0,1,1-.68.43q-.12-.19-.24-.42c-.67-1.23-1.19-3.12-.41-4.4a2.54,2.54,0,0,1,2.47-1.14A2.79,2.79,0,0,1,18.53,13c.68,1.22.15,3-.57,4.18-.12.21-.23.39-.33.55A.39.39,0,0,1,17.29,17.9Z" style="fill:#3a2050"/><path d="M14.48,12.7a.4.4,0,0,1-.35-.21c-.57-1-1-2.64-.34-3.73a2.32,2.32,0,0,1,2.11-1,2.37,2.37,0,0,1,2.22,1.09c.58,1,.14,2.51-.47,3.54a.41.41,0,0,1-.55.14A.39.39,0,0,1,17,12a3.06,3.06,0,0,0,.46-2.75,1.67,1.67,0,0,0-1.54-.68,1.46,1.46,0,0,0-1.41.59,3.31,3.31,0,0,0,.36,2.92.42.42,0,0,1-.16.55A.45.45,0,0,1,14.48,12.7Z" style="fill:#3a2050"/><path d="M16.74,8.69a.42.42,0,0,1-.21-.06.4.4,0,0,1-.13-.55l.15-.25A2.76,2.76,0,0,0,17,5.45,1.17,1.17,0,0,0,15.89,5a1.11,1.11,0,0,0-1.07.44,2.55,2.55,0,0,0,.29,2.27c.05.08.09.16.14.23a.41.41,0,0,1-.13.55.41.41,0,0,1-.56-.13l-.15-.26A3.31,3.31,0,0,1,14.14,5a1.91,1.91,0,0,1,1.77-.82,1.89,1.89,0,0,1,1.77.9,3.47,3.47,0,0,1-.42,3.15l-.18.29A.39.39,0,0,1,16.74,8.69Z" style="fill:#3a2050"/><path d="M16.88,5.11a.41.41,0,0,1-.21-.05.4.4,0,0,1-.13-.55l.13-.23a2.42,2.42,0,0,0,.39-2.16,1.26,1.26,0,0,0-1.17-.5,1.11,1.11,0,0,0-1.07.43,2.57,2.57,0,0,0,.29,2.28.4.4,0,0,1-.7.38,3.29,3.29,0,0,1-.27-3.07A1.78,1.78,0,0,1,15.91.82a2,2,0,0,1,1.85.92,3.15,3.15,0,0,1-.38,2.92l-.16.26A.37.37,0,0,1,16.88,5.11Z" style="fill:#3a2050"/><path d="M17.49,24a.39.39,0,0,1-.4-.39.4.4,0,0,1,.39-.41c3.3-.05,5.49-1.13,6-2.95a3,3,0,0,0-1.11-3.17c-1.85-1.15-3.57,1.55-3.58,1.58a.4.4,0,0,1-.55.12.39.39,0,0,1-.13-.55c.74-1.18,2.67-3.09,4.68-1.83a3.73,3.73,0,0,1,1.46,4.06c-.29,1-1.52,3.45-6.75,3.54Z" style="fill:#3a2050"/><path d="M22.15,16.74a.43.43,0,0,1-.26-.09.41.41,0,0,1-.05-.57,2.39,2.39,0,0,0,.51-1.91,2.26,2.26,0,0,0-1-1.53,1.39,1.39,0,0,0-1.1-.21,3.27,3.27,0,0,0-1.6,1.37.39.39,0,0,1-.54.15A.4.4,0,0,1,18,13.4a4,4,0,0,1,2.09-1.74,2.13,2.13,0,0,1,1.72.3A3,3,0,0,1,23.13,14a3.15,3.15,0,0,1-.67,2.55A.44.44,0,0,1,22.15,16.74Z" style="fill:#3a2050"/><path d="M20.8,12.24a.38.38,0,0,1-.25-.09.4.4,0,0,1-.06-.57,1.63,1.63,0,0,0,.35-1.31,1.53,1.53,0,0,0-.64-1c-1-.64-1.84.55-1.88.6a.39.39,0,0,1-.55.11.4.4,0,0,1-.11-.56,2.19,2.19,0,0,1,3-.83,2.34,2.34,0,0,1,1,1.59,2.44,2.44,0,0,1-.52,2A.4.4,0,0,1,20.8,12.24Z" style="fill:#3a2050"/><path d="M20.05,9a.43.43,0,0,1-.26-.09.4.4,0,0,1-.05-.56,2,2,0,0,0,.41-1.5,1.32,1.32,0,0,0-.54-.9,1.2,1.2,0,0,0-1.69.4.39.39,0,0,1-.55.12.4.4,0,0,1-.12-.55A2,2,0,0,1,20,5.22a2.12,2.12,0,0,1,.91,1.45,2.7,2.7,0,0,1-.58,2.13A.4.4,0,0,1,20.05,9Z" style="fill:#3a2050"/><path d="M19.21,5.63a.37.37,0,0,1-.26-.1.39.39,0,0,1,0-.56,1.11,1.11,0,0,0,.3-.89,1.08,1.08,0,0,0-.53-.76c-.49-.31-.7-.26-.89-.19a.4.4,0,1,1-.3-.74,1.67,1.67,0,0,1,1.62.25A1.89,1.89,0,0,1,20,4a1.91,1.91,0,0,1-.49,1.54A.39.39,0,0,1,19.21,5.63Z" style="fill:#3a2050"/><path d="M14.31,24h0c-5.23-.09-6.46-2.5-6.75-3.54A3.73,3.73,0,0,1,9,16.41c2-1.25,4,.67,4.84,1.86a.4.4,0,0,1-.67.45s-1.89-2.79-3.74-1.63a2.92,2.92,0,0,0-1.11,3.17c.51,1.82,2.69,2.9,6,2.95a.41.41,0,0,1,.4.41A.41.41,0,0,1,14.31,24Z" style="fill:#3a2050"/><path d="M9.65,16.74a.42.42,0,0,1-.31-.15A3.19,3.19,0,0,1,8.66,14,3.07,3.07,0,0,1,10,12a2.24,2.24,0,0,1,1.73-.31,4,4,0,0,1,2.14,1.7.39.39,0,0,1-.13.55.41.41,0,0,1-.55-.13,3.24,3.24,0,0,0-1.64-1.34,1.42,1.42,0,0,0-1.12.21,2.26,2.26,0,0,0-1,1.53A2.39,2.39,0,0,0,10,16.08a.41.41,0,0,1-.06.57A.38.38,0,0,1,9.65,16.74Z" style="fill:#3a2050"/><path d="M11,12.24a.39.39,0,0,1-.31-.15,2.44,2.44,0,0,1-.52-2,2.34,2.34,0,0,1,1-1.59,2.33,2.33,0,0,1,3.05.83.4.4,0,0,1-.09.56.41.41,0,0,1-.56-.08c0-.06-1-1.26-2-.63a1.53,1.53,0,0,0-.64,1,1.6,1.6,0,0,0,.35,1.31.41.41,0,0,1-.06.57A.38.38,0,0,1,11,12.24Z" style="fill:#3a2050"/><path d="M11.75,9a.39.39,0,0,1-.31-.15,2.7,2.7,0,0,1-.58-2.13,2.08,2.08,0,0,1,.9-1.45,2,2,0,0,1,2.78.65.4.4,0,0,1-.11.55.41.41,0,0,1-.56-.11,1.19,1.19,0,0,0-1.68-.41,1.28,1.28,0,0,0-.54.9,1.88,1.88,0,0,0,.41,1.5.4.4,0,0,1-.06.56A.38.38,0,0,1,11.75,9Z" style="fill:#3a2050"/><path d="M12.57,5.61a.39.39,0,0,1-.3-.13A1.85,1.85,0,0,1,11.79,4a1.91,1.91,0,0,1,.9-1.33,1.67,1.67,0,0,1,1.62-.25.4.4,0,0,1-.3.74c-.19-.07-.4-.12-.9.19a1.09,1.09,0,0,0-.53.76,1.09,1.09,0,0,0,.29.87.39.39,0,0,1-.3.66Z" style="fill:#3a2050"/><path d="M15.8,29A2.59,2.59,0,0,1,14,28.31a.4.4,0,0,1-.12-.29V23.91a.4.4,0,1,1,.8,0v3.93a1.9,1.9,0,0,0,2.27,0V23.91a.4.4,0,0,1,.8,0V28a.39.39,0,0,1-.16.32A3,3,0,0,1,15.8,29Z" style="fill:#3a2050"/></svg>