<svg id="Calque_1" data-name="Calque 1" xmlns="http://www.w3.org/2000/svg" width="30" height="30" viewBox="0 0 30 30"><title>Sans titre - 3</title><path d="M24,23.12a.41.41,0,0,1-.19,0l-5.46-2.93a.4.4,0,0,1,.38-.71l5.19,2.79.38-.38-2.89-5.08a.4.4,0,0,1,.15-.54.41.41,0,0,1,.55.15l3,5.34a.39.39,0,0,1-.07.48l-.8.81A.43.43,0,0,1,24,23.12Z" style="fill:#3a2050"/><path d="M12,13.18a.39.39,0,0,1-.28-.12L7,8.29A.38.38,0,0,1,6.84,8,.36.36,0,0,1,7,7.73l5.23-5.24a.42.42,0,0,1,.57,0l4.77,4.78a.4.4,0,0,1,.12.28.42.42,0,0,1-.12.28L12.3,13.06A.4.4,0,0,1,12,13.18ZM7.81,8l4.2,4.2,4.67-4.66L12.47,3.34Z" style="fill:#3a2050"/><path d="M16.44,30.19a4.62,4.62,0,0,1-2.93-1,.65.65,0,0,0-.84-.06,4.72,4.72,0,0,1-6,.06.63.63,0,0,0-.84-.05,2.64,2.64,0,0,1-3.7-.38l-.65-.8a.4.4,0,0,1,0-.49,7,7,0,0,1,4.67-2.89,4,4,0,0,1,3,.67.64.64,0,0,0,.83.05,4.72,4.72,0,0,1,6-.05.66.66,0,0,0,.84.05,4.75,4.75,0,0,1,5.93-.08,1.32,1.32,0,0,0,1.12.31c.91-.2,1.56-1.4,1.57-1.41a.39.39,0,0,1,.3-.21.41.41,0,0,1,.35.13,3.93,3.93,0,0,1,1,1.91,3.3,3.3,0,0,1-1,3,5,5,0,0,1-5.85.23.69.69,0,0,0-.81,0A4.83,4.83,0,0,1,16.44,30.19Zm-3.36-2a1.37,1.37,0,0,1,.88.31,3.9,3.9,0,0,0,4.94.05,1.51,1.51,0,0,1,1.88,0,4.2,4.2,0,0,0,4.78-.16,2.51,2.51,0,0,0,.75-2.3A2.41,2.41,0,0,0,25.85,25a3.3,3.3,0,0,1-1.78,1.31,2.09,2.09,0,0,1-1.77-.45,4,4,0,0,0-4.88,0,1.44,1.44,0,0,1-1.86.05,3.92,3.92,0,0,0-4.94-.05,1.45,1.45,0,0,1-1.86.06,3.23,3.23,0,0,0-2.49-.55,6.24,6.24,0,0,0-3.94,2.32l.45.56h0A1.83,1.83,0,0,0,4,28.89a1.91,1.91,0,0,0,1.34-.4,1.4,1.4,0,0,1,1.79,0,3.9,3.9,0,0,0,4.94.05A1.61,1.61,0,0,1,13.08,28.18Z" style="fill:#3a2050"/><path d="M14.32,20.16a.58.58,0,0,1-.41-.16L2.2,8.4a.5.5,0,0,1-.08-.12c-.46-1,2.68-4.2,3.32-4.84,1-1,4.16-4,5-3.19l11.7,11.6a.32.32,0,0,1,.08.12c.14.27.13.75-.95,2.17a29.05,29.05,0,0,1-2.36,2.67,25.66,25.66,0,0,1-2.76,2.42A3.78,3.78,0,0,1,14.32,20.16Zm.15-.73ZM2.88,7.94,14.39,19.35a5.14,5.14,0,0,0,1.28-.76,25.08,25.08,0,0,0,2.66-2.35,24.93,24.93,0,0,0,2.29-2.59,4.92,4.92,0,0,0,.83-1.34L10,.9A14.17,14.17,0,0,0,6,4,14.87,14.87,0,0,0,2.88,7.94Zm7-7.12Z" style="fill:#3a2050"/><path d="M17.67,21a.38.38,0,0,1-.29-.13l-1.69-1.69a.4.4,0,0,1,.57-.57l1.53,1.53a16.09,16.09,0,0,0,2.4-2.08,15.71,15.71,0,0,0,2.08-2.39l-1.53-1.54a.4.4,0,0,1,0-.56.4.4,0,0,1,.57,0L23,15.31a.44.44,0,0,1,.1.16c.05.16.19.63-2.37,3.19C18.79,20.63,18,21,17.67,21Z" style="fill:#3a2050"/></svg>