<svg id="Calque_1" data-name="Calque 1" xmlns="http://www.w3.org/2000/svg" width="30" height="30" viewBox="0 0 30 30"><title>Sans titre - 3</title><path d="M11.24,29A10.55,10.55,0,0,1,.5,18.66C.5,10.58,7.16.35,11.24.35c2,0,4.64,2.38,7,6.21a.41.41,0,0,1-.06.49c-2.83,2.82-5.75,8.61-5.75,13.41a8,8,0,0,0,3.71,6.71.4.4,0,0,1,.18.36.39.39,0,0,1-.22.34A11,11,0,0,1,11.24,29Zm0-27.82C8,1.15,1.31,10.78,1.31,18.66a9.74,9.74,0,0,0,9.93,9.51,10.24,10.24,0,0,0,3.83-.74,8.8,8.8,0,0,1-3.49-7c0-4.89,2.89-10.74,5.76-13.75C15.25,3.32,12.87,1.15,11.24,1.15Z" style="fill:#3a2050"/><path d="M18.34,26.36a.34.34,0,0,1-.22-.07,8.84,8.84,0,0,1-4.07-7.38.4.4,0,1,1,.8,0,8,8,0,0,0,3.71,6.71.4.4,0,0,1-.22.74Z" style="fill:#3a2050"/><path d="M20.89,29.39a9.49,9.49,0,0,1-5.24-1.55.4.4,0,0,1-.11-.55.39.39,0,0,1,.55-.12,8.73,8.73,0,0,0,4.8,1.42,8.34,8.34,0,0,0,8.51-8.13c0-6.93-5.62-15-8.51-15a4.58,4.58,0,0,0-2.76,1.64.42.42,0,0,1-.57,0,.4.4,0,0,1,0-.57,5.17,5.17,0,0,1,3.33-1.87c3.54,0,9.31,8.85,9.31,15.85A9.14,9.14,0,0,1,20.89,29.39Z" style="fill:#3a2050"/></svg>