<svg id="Calque_1" data-name="Calque 1" xmlns="http://www.w3.org/2000/svg" width="30" height="30" viewBox="0 0 30 30"><title>Sans titre - 3</title><path d="M24.2,6.6a1.18,1.18,0,0,1-.9-.42A1.16,1.16,0,0,1,23,5.32a.93.93,0,0,1,.34-.66h0a1.1,1.1,0,0,1,1.52.21,1.14,1.14,0,0,1,.29.85,1,1,0,0,1-.34.67A1,1,0,0,1,24.2,6.6Zm-.34-1.32a.17.17,0,0,0-.06.11.41.41,0,0,0,.1.27.33.33,0,0,0,.41.11.17.17,0,0,0,.05-.12.35.35,0,0,0-.09-.26.33.33,0,0,0-.41-.11Z" style="fill:#3a2050"/><path d="M25.93,11.82a3.05,3.05,0,0,1-.6-.06c-1.73-.36-3-2.22-5-5.23A.39.39,0,0,1,20.46,6a.4.4,0,0,1,.55.11c1.85,2.84,3.06,4.59,4.48,4.88a3.7,3.7,0,0,0,2.74-.84.4.4,0,1,1,.44.66A5,5,0,0,1,25.93,11.82Z" style="fill:#3a2050"/><path d="M14.65,17a1,1,0,0,1-.58-.22c-.29-.22-.38-.64-.26-1.25a9.62,9.62,0,0,1,6.94-6.43.39.39,0,0,1,.48.3.41.41,0,0,1-.3.48,9,9,0,0,0-6,4.8,2.59,2.59,0,0,0-.38,1.49c.12.08.24,0,.9-.8a9,9,0,0,1,7.41-3.76.39.39,0,0,1,.42.38.4.4,0,0,1-.39.41,8.36,8.36,0,0,0-6.82,3.47C15.63,16.4,15.18,17,14.65,17Z" style="fill:#3a2050"/><path d="M13.19,9.46h-.11a.41.41,0,0,1-.27-.5c.47-1.63,0-2.87-1.81-4.41a.41.41,0,0,1-.11-.44.41.41,0,0,1,.37-.27l6.88-.05h0a.4.4,0,1,1,0,.8l-5.88,0a4.28,4.28,0,0,1,1.32,4.54A.4.4,0,0,1,13.19,9.46Z" style="fill:#3a2050"/><path d="M27.88,17.25a.38.38,0,0,1-.25-.09c-.84-.67-1.07-.69-1.59-.73a6.66,6.66,0,0,1-.67-.07A.41.41,0,0,1,25,15.9a.4.4,0,0,1,.46-.33,5.26,5.26,0,0,0,.6.06,3,3,0,0,1,.94.19l-.55-1.33a.4.4,0,1,1,.74-.31l1,2.52a.39.39,0,0,1-.13.47A.41.41,0,0,1,27.88,17.25Z" style="fill:#3a2050"/><path d="M10.51,30.11h-.07a.45.45,0,0,1-.28-.2L6.45,23.12l-6-4.83A.46.46,0,0,1,.26,18a.41.41,0,0,1,.14-.31c1.31-1.12,2.94-.35,4.52.39a7,7,0,0,0,3.66,1C11.74,8.74,16.33-.25,28.16,3.28a.39.39,0,0,1,.25.2.4.4,0,0,1,0,.32l-1,2.55,1.63-1.27a.38.38,0,0,1,.43,0,.39.39,0,0,1,.21.38l-.05.7C28.54,18.58,19.41,20.89,10.55,21.44a5.57,5.57,0,0,0,.7,3.27c.71,1.71,1.52,3.64-.48,5.31A.39.39,0,0,1,10.51,30.11ZM1.35,18,7,22.55a.4.4,0,0,1,.1.12l3.5,6.39c1.09-1.2.53-2.52-.1-4-.55-1.32-1.13-2.69-.64-4.1a.4.4,0,0,1,.36-.26c8.55-.5,17.44-2.6,18.63-14.39l-2,1.59a.4.4,0,0,1-.62-.46l1.31-3.47C16.58.91,12.28,9.63,9.27,19.54a.4.4,0,0,1-.29.27c-1.52.33-3.05-.39-4.4-1S2.22,17.67,1.35,18Z" style="fill:#3a2050"/><path d="M25.93,11.82a3.05,3.05,0,0,1-.6-.06c-1.73-.36-3-2.22-5-5.23A.39.39,0,0,1,20.46,6a.4.4,0,0,1,.55.11c1.85,2.84,3.06,4.59,4.48,4.88a3.7,3.7,0,0,0,2.74-.84.4.4,0,1,1,.44.66A5,5,0,0,1,25.93,11.82Z" style="fill:#3a2050"/><path d="M14.65,17a1,1,0,0,1-.58-.22c-.29-.22-.38-.64-.26-1.25a9.62,9.62,0,0,1,6.94-6.43.39.39,0,0,1,.48.3.41.41,0,0,1-.3.48,9,9,0,0,0-6,4.8,2.59,2.59,0,0,0-.38,1.49c.12.08.24,0,.9-.8a9,9,0,0,1,7.41-3.76.39.39,0,0,1,.42.38.4.4,0,0,1-.39.41,8.36,8.36,0,0,0-6.82,3.47C15.63,16.4,15.18,17,14.65,17Z" style="fill:#3a2050"/><path d="M13.19,9.46h-.11a.41.41,0,0,1-.27-.5c.47-1.63,0-2.87-1.81-4.41a.41.41,0,0,1-.11-.44.41.41,0,0,1,.37-.27l6.88-.05h0a.4.4,0,1,1,0,.8l-5.88,0a4.28,4.28,0,0,1,1.32,4.54A.4.4,0,0,1,13.19,9.46Z" style="fill:#3a2050"/><path d="M27.88,17.25a.38.38,0,0,1-.25-.09c-.84-.67-1.07-.69-1.59-.73a6.66,6.66,0,0,1-.67-.07A.41.41,0,0,1,25,15.9a.4.4,0,0,1,.46-.33,5.26,5.26,0,0,0,.6.06,3,3,0,0,1,.94.19l-.55-1.33a.4.4,0,1,1,.74-.31l1,2.52a.39.39,0,0,1-.13.47A.41.41,0,0,1,27.88,17.25Z" style="fill:#3a2050"/><path d="M10.51,30.11h-.07a.45.45,0,0,1-.28-.2L6.45,23.12l-6-4.83A.46.46,0,0,1,.26,18a.41.41,0,0,1,.14-.31c1.31-1.12,2.94-.35,4.52.39a7,7,0,0,0,3.66,1C11.74,8.74,16.33-.25,28.16,3.28a.39.39,0,0,1,.25.2.4.4,0,0,1,0,.32l-1,2.55,1.63-1.27a.38.38,0,0,1,.43,0,.39.39,0,0,1,.21.38l-.05.7C28.54,18.58,19.41,20.89,10.55,21.44a5.57,5.57,0,0,0,.7,3.27c.71,1.71,1.52,3.64-.48,5.31A.39.39,0,0,1,10.51,30.11ZM1.35,18,7,22.55a.4.4,0,0,1,.1.12l3.5,6.39c1.09-1.2.53-2.52-.1-4-.55-1.32-1.13-2.69-.64-4.1a.4.4,0,0,1,.36-.26c8.55-.5,17.44-2.6,18.63-14.39l-2,1.59a.4.4,0,0,1-.62-.46l1.31-3.47C16.58.91,12.28,9.63,9.27,19.54a.4.4,0,0,1-.29.27c-1.52.33-3.05-.39-4.4-1S2.22,17.67,1.35,18Z" style="fill:#3a2050"/></svg>