<svg id="Calque_1" data-name="Calque 1" xmlns="http://www.w3.org/2000/svg" width="30" height="30" viewBox="0 0 30 30"><title>Sans titre - 3</title><path d="M26.93,13.18c-.46,0-.9,0-1.2,0a.39.39,0,0,1-.37-.43.38.38,0,0,1,.43-.36,12.71,12.71,0,0,0,1.83,0c-.44-.23-.91-.53-1.35-.8a8.42,8.42,0,0,0-.93-.54c-.26,0-1.19,0-1.52,0a.4.4,0,0,1-.4-.41.37.37,0,0,1,.41-.39c.13,0,1.26,0,1.63.06a4.27,4.27,0,0,1,1.23.65,9.33,9.33,0,0,0,2.1,1.1.46.46,0,0,1,.4.51C29.12,13.05,28,13.18,26.93,13.18Z" style="fill:#3a2050"/><path d="M27.69,12.18a.4.4,0,0,1-.35-.21.42.42,0,0,1,0-.29,7.58,7.58,0,0,1-1-.2A.39.39,0,0,1,26,11a.4.4,0,0,1,.49-.28,5.06,5.06,0,0,0,1.91.16.46.46,0,0,1,.51.25c.15.38-.15.54-1,1A.43.43,0,0,1,27.69,12.18Z" style="fill:#3a2050"/><path d="M22.31,19A12.16,12.16,0,0,1,21,19a.4.4,0,1,1,.09-.79A24,24,0,0,0,25.87,18a.74.74,0,0,0,.22-.08,1.52,1.52,0,0,1,.44-.14c.95-.12,1.8-.16,2.16-.18h.08a2.94,2.94,0,0,0,.57-1.18c-2.18-.11-2.93-2.34-3-3.51a.41.41,0,0,1,.37-.43.39.39,0,0,1,.43.37c0,.11.23,2.72,2.39,2.78a.71.71,0,0,1,.63.79c0,.55-.66,1.91-1.19,2h-.22c-.35,0-1.18.06-2.1.17a.91.91,0,0,0-.2.08,1.86,1.86,0,0,1-.47.15A34.31,34.31,0,0,1,22.31,19Zm7.11-2.62h0Z" style="fill:#3a2050"/><path d="M19.66,23.46a.39.39,0,0,1-.38-.31c-.13-.5-1.23-4.95-.93-6.42a.4.4,0,0,1,.47-.32.4.4,0,0,1,.31.47c-.2,1,.48,4.26.85,5.77l.63,0c-.76-1.9.11-5.34.23-5.77a.4.4,0,1,1,.77.21c-.32,1.21-.95,4.58,0,5.68a.4.4,0,0,1,.06.42.38.38,0,0,1-.35.24l-1.64.05Z" style="fill:#3a2050"/><path d="M18.88,23.23a1.3,1.3,0,0,1-.79-.15c-.15-.11-.34-.24-1-4.21a.4.4,0,0,1,.34-.45.39.39,0,0,1,.45.33c.24,1.52.55,3.21.69,3.68a7.36,7.36,0,0,0,.87,0,.4.4,0,0,1,.44.36.41.41,0,0,1-.36.44Z" style="fill:#3a2050"/><path d="M13.18,19.69A28.4,28.4,0,0,1,5,18.39a.4.4,0,0,1,.23-.77C14,20.23,18.48,18,18.53,18a.4.4,0,0,1,.37.71A13.1,13.1,0,0,1,13.18,19.69Z" style="fill:#3a2050"/><path d="M4,23.33H2.47a.42.42,0,0,1-.39-.3c0-.15-.91-3.56-.14-5.64.14-.4-.13-.86-.39-1.31a2.5,2.5,0,0,1-.37-.83l0-.1a5.68,5.68,0,0,1,.75-4.4C2.61,9.7,3.82,8.4,7.06,7.62a24.88,24.88,0,0,1,5.82-.29h.62a29.6,29.6,0,0,1,7.14.79,16.86,16.86,0,0,1,4.56,2.06.39.39,0,0,1,.21.51.42.42,0,0,1-.53.23l-.13-.07a15.66,15.66,0,0,0-4.33-2,29.3,29.3,0,0,0-6.94-.76h-.62a24.13,24.13,0,0,0-5.62.27c-2.94.71-4,1.81-4.67,2.8A4.93,4.93,0,0,0,1.94,15l0,.12a2.33,2.33,0,0,0,.27.57,2.36,2.36,0,0,1,.45,2c-.56,1.51-.09,4,.1,4.86h.64c-.27-.88-.62-2.6.35-3.65,3.49-3.1,3.88-4.83,3.89-4.85a.4.4,0,0,1,.46-.31.39.39,0,0,1,.32.46c0,.08-.39,2-4.11,5.26-.78.86-.24,2.7,0,3.33a.4.4,0,0,1,0,.38A.38.38,0,0,1,4,23.33Z" style="fill:#3a2050"/><path d="M4.9,23.05a.4.4,0,0,1-.38-.26A18,18,0,0,1,3.84,19,.4.4,0,1,1,4.63,19a21.73,21.73,0,0,0,.55,3.28l.62,0c-.27-.9-.69-2.74,0-4a.4.4,0,0,1,.54-.17.39.39,0,0,1,.17.54c-.7,1.35.26,3.84.27,3.87a.44.44,0,0,1,0,.37.43.43,0,0,1-.33.17l-1.46,0Z" style="fill:#3a2050"/><path d="M17.15,18.18a6.64,6.64,0,0,1-3.24-.83,17.1,17.1,0,0,0-2.12-.87c-2.39-.78-3.44,0-3.45,0a.41.41,0,0,1-.56-.06.4.4,0,0,1,0-.56s1.36-1.1,4.21-.17a16.09,16.09,0,0,1,2.21.91,5.9,5.9,0,0,0,3.34.74.42.42,0,0,1,.42.38.4.4,0,0,1-.38.42Z" style="fill:#3a2050"/><ellipse cx="26.09" cy="14.78" rx="0.45" ry="0.52" transform="translate(-2.82 6.82) rotate(-14.13)" style="fill:#3a2050"/><path d="M1.35,11.41l-.27,0a1,1,0,0,1-.8-.7,1,1,0,0,1,.41-1,1.06,1.06,0,0,1,.54-.3l0-.05a.41.41,0,0,1,.11-.56.4.4,0,0,1,.56.12,3.76,3.76,0,0,1,.44.94,3.07,3.07,0,0,1,.45.86.4.4,0,0,1-.63.44A1,1,0,0,1,1.35,11.41Zm.09-1.3a.4.4,0,0,0-.22.12c-.15.14-.17.23-.17.25a.3.3,0,0,0,.2.12c.11,0,.24,0,.29-.06a.45.45,0,0,0,0-.36.24.24,0,0,0-.11-.06Z" style="fill:#3a2050"/></svg>