<svg id="Calque_1" data-name="Calque 1" xmlns="http://www.w3.org/2000/svg" width="30" height="30" viewBox="0 0 30 30"><title>Sans titre - 3</title><path d="M15,17.9h0a.43.43,0,0,1-.22-.06c-.2-.13-4.95-3.2-4.95-7.49S14.55,3,14.75,2.85a.42.42,0,0,1,.43,0c.21.13,5,3.2,5,7.5s-4.75,7.36-5,7.49A.43.43,0,0,1,15,17.9Zm0-.4h0ZM15,3.67c-.91.64-4.37,3.31-4.37,6.68s3.47,6,4.37,6.67c.9-.64,4.37-3.31,4.37-6.67S15.88,4.31,15,3.67Z" style="fill:#3a2050"/><path d="M21.61,24.74a13.75,13.75,0,0,1-4.85-1,.38.38,0,0,1-.19-.16h0a.33.33,0,0,1-.06-.19c0-.24-.18-5.89,3.35-8.33s8.76-.27,9-.18a.4.4,0,0,1,.25.35c0,.24.18,5.9-3.35,8.34A7.21,7.21,0,0,1,21.61,24.74Zm-4.3-1.63c1,.39,5.2,1.73,8-.19s3-6.28,3-7.39c-1-.38-5.21-1.72-8,.2S17.32,22,17.31,23.11Z" style="fill:#3a2050"/><path d="M7.45,24.61a6.68,6.68,0,0,1-3.2-.75C.47,21.83,0,16.19,0,16a.41.41,0,0,1,.2-.38c.21-.12,5.17-2.85,9-.82s4.24,7.67,4.25,7.91a.37.37,0,0,1-.2.38A13.19,13.19,0,0,1,7.45,24.61ZM.83,16.15c.13,1.1.84,5.41,3.8,7s7-.2,8-.69c-.13-1.1-.84-5.42-3.81-7S1.82,15.65.83,16.15ZM13,22.7h0Z" style="fill:#3a2050"/></svg>