<svg id="Calque_1" data-name="Calque 1" xmlns="http://www.w3.org/2000/svg" width="30" height="30" viewBox="0 0 30 30"><title>Sans titre - 3</title><path d="M15.27,23.44a3.31,3.31,0,0,1-2.69-1.24c-1.19-1.56-.63-4,1.24-5.42h0c1.87-1.42,4.36-1.32,5.55.24s.63,4-1.24,5.41A4.73,4.73,0,0,1,15.27,23.44Zm-1-6c-1.52,1.16-2,3.09-1.09,4.3s2.91,1.24,4.43.08,2-3.09,1.09-4.3-2.9-1.24-4.43-.08Z" style="fill:#3a2050"/><path d="M6,27.29a2.41,2.41,0,0,1-2.15-1.13A2.77,2.77,0,0,1,5.2,22.51a3.26,3.26,0,0,1,2.15-.43A2.33,2.33,0,0,1,9,23.18a2.29,2.29,0,0,1,.11,2A3.25,3.25,0,0,1,7.7,26.83,3.41,3.41,0,0,1,6,27.29Zm.86-4.45a2.54,2.54,0,0,0-1.28.36h0a2,2,0,0,0-1,2.56,2,2,0,0,0,2.74.38A2.51,2.51,0,0,0,8.39,24.9a1.43,1.43,0,0,0-1.17-2A2,2,0,0,0,6.88,22.84Zm-1.48,0h0Z" style="fill:#3a2050"/><path d="M23.8,14.74a2.49,2.49,0,0,1-1.25-.33c-1.42-.82-1.73-2.94-.7-4.74h0c1-1.79,3-2.58,4.45-1.76s1.74,2.95.7,4.74a4.28,4.28,0,0,1-2,1.84A2.94,2.94,0,0,1,23.8,14.74Zm-1.25-4.67c-.82,1.41-.63,3,.4,3.65a1.92,1.92,0,0,0,1.72,0,3.47,3.47,0,0,0,1.64-1.5c.81-1.41.63-3.05-.41-3.65s-2.54.06-3.35,1.47Z" style="fill:#3a2050"/><path d="M4.91,29.54A7.6,7.6,0,0,1,.56,28.25a.4.4,0,0,1-.17-.35c0-.19.3-4.53,3.16-7A7.06,7.06,0,0,1,8.66,19.3,8.92,8.92,0,0,1,11.35,14a8.35,8.35,0,0,1,6.11-1.92,10.89,10.89,0,0,1,5.72-6.49c3.79-1.93,4-3.25,4-3.26A.39.39,0,0,1,27.48,2a.4.4,0,0,1,.43.17l.19.34.15.29c.89,1.74,2.8,6.23,1.33,10.37A10,10,0,0,1,24,18.79c-.38,1.42-3,9.78-12.23,8.63A14,14,0,0,1,4.91,29.54Zm-3.7-1.82c4.39,2.74,10.14-1,10.19-1a.41.41,0,0,1,.28-.07c9.42,1.27,11.45-7.79,11.53-8.18a.43.43,0,0,1,.23-.28,9.32,9.32,0,0,0,5.39-5.29c1.33-3.76-.37-7.9-1.23-9.62a10.76,10.76,0,0,1-4.06,3.05,9.87,9.87,0,0,0-5.37,6.26.41.41,0,0,1-.42.32,7.79,7.79,0,0,0-5.86,1.71,8.27,8.27,0,0,0-2.47,5.18.47.47,0,0,1-.14.29.4.4,0,0,1-.3.09,6.38,6.38,0,0,0-4.91,1.38C1.82,23.45,1.31,26.82,1.21,27.72Z" style="fill:#3a2050"/></svg>