<svg id="Calque_1" data-name="Calque 1" xmlns="http://www.w3.org/2000/svg" width="30" height="30" viewBox="0 0 30 30"><title>Sans titre - 3</title><path d="M15.49,22.32a5.63,5.63,0,1,1,5.62-5.62A5.62,5.62,0,0,1,15.49,22.32Zm0-10.45a4.83,4.83,0,1,0,4.82,4.83A4.83,4.83,0,0,0,15.49,11.87Z" style="fill:#3a2050"/><path d="M15,8.26a4.1,4.1,0,1,1,4.1-4.1A4.11,4.11,0,0,1,15,8.26Zm0-7.4a3.3,3.3,0,1,0,3.3,3.3A3.3,3.3,0,0,0,15,.86Z" style="fill:#3a2050"/><path d="M4.47,26.94a4.1,4.1,0,1,1,4.1-4.09A4.1,4.1,0,0,1,4.47,26.94Zm0-7.39a3.3,3.3,0,1,0,3.3,3.3A3.29,3.29,0,0,0,4.47,19.55Z" style="fill:#3a2050"/><path d="M25.88,27.35a4.1,4.1,0,1,1,4.1-4.1A4.11,4.11,0,0,1,25.88,27.35Zm0-7.39a3.3,3.3,0,1,0,3.3,3.29A3.29,3.29,0,0,0,25.88,20Z" style="fill:#3a2050"/><polygon points="7.26 20.45 6.83 19.78 9.87 17.83 10.3 18.5 7.26 20.45" style="fill:#3a2050"/><polygon points="8.54 22.67 8.11 22 11.15 20.04 11.58 20.72 8.54 22.67" style="fill:#3a2050"/><polygon points="23.44 20.45 20.4 18.5 20.83 17.83 23.87 19.78 23.44 20.45" style="fill:#3a2050"/><rect x="20.26" y="19.71" width="0.8" height="3.61" transform="translate(-8.6 27.28) rotate(-57.3)" style="fill:#3a2050"/><rect x="13.48" y="7.91" width="0.8" height="3.61" transform="translate(-0.38 0.56) rotate(-2.28)" style="fill:#3a2050"/><rect x="16.17" y="7.91" width="0.8" height="3.61" transform="translate(-0.37 0.67) rotate(-2.28)" style="fill:#3a2050"/></svg>