<svg id="Calque_1" data-name="Calque 1" xmlns="http://www.w3.org/2000/svg" width="30" height="30" viewBox="0 0 30 30"><title>Sans titre - 3</title><ellipse cx="26.3" cy="10.89" rx="0.42" ry="0.49" transform="translate(-1.86 6.75) rotate(-14.13)" style="fill:#3a2050"/><path d="M26.44,14.58a4.43,4.43,0,0,1-1.88-.52.35.35,0,0,1,.37-.59,3.41,3.41,0,0,0,1.75.38,3.88,3.88,0,0,1,1.19-.12h.64a1.09,1.09,0,0,0,.29,0s.05-.23.34-.27a1.19,1.19,0,0,0,.28-.61c0-.05,0-.12-.18-.19a4.33,4.33,0,0,1-1.76-1.73l-.05-.08a1.31,1.31,0,0,1-.14-.41,1.79,1.79,0,0,0-.71-1.21.35.35,0,0,1-.09-.49A.34.34,0,0,1,27,8.61a2.44,2.44,0,0,1,1,1.63,1.93,1.93,0,0,0,.05.2l.06.08A3.71,3.71,0,0,0,29.5,12a.91.91,0,0,1,.61,1,1.6,1.6,0,0,1-.75,1.12c-.13.23-.37.33-.81.35h-.69a3.17,3.17,0,0,0-1,.09A1.61,1.61,0,0,1,26.44,14.58Z" style="fill:#3a2050"/><path d="M24.4,10h-.1c-.12,0-1.2-.37-1.43-1.09a1,1,0,0,1,.2-1,.73.73,0,0,1,.51-.29c.5-.06,1,.41,1.37.71l.18.15a.34.34,0,0,1,.15.46.36.36,0,0,1-.48.16,2,2,0,0,1-.32-.25c-.17-.15-.62-.56-.83-.54-.16.21-.13.3-.12.34.09.27.62.54,1,.64a.34.34,0,0,1,.23.43A.33.33,0,0,1,24.4,10Z" style="fill:#3a2050"/><path d="M20,20.52a.36.36,0,0,1-.35-.32.36.36,0,0,1,.32-.38s1.19-.16,2.32-2.2c1.24-2.24,2.44-3.7,2.94-3.93a.36.36,0,0,1,.47.18.35.35,0,0,1-.18.46A12.39,12.39,0,0,0,22.85,18C21.51,20.37,20,20.52,20,20.52Z" style="fill:#3a2050"/><path d="M20.2,27.84H18.87a.34.34,0,0,1-.35-.32c-.13-1.39-.34-3.46-.41-3.7a21.19,21.19,0,0,1-.75-5.15.35.35,0,1,1,.7,0,21,21,0,0,0,.71,4.92c.1.26.31,2.37.41,3.55h.56a11.73,11.73,0,0,1-.61-3.57c.12-.38.39-3.32.54-5.09a.35.35,0,0,1,.7.06c0,.47-.39,4.66-.58,5.24a17,17,0,0,0,.74,3.62.33.33,0,0,1-.06.3A.32.32,0,0,1,20.2,27.84Z" style="fill:#3a2050"/><path d="M18.55,27.28H17.36a.38.38,0,0,1-.29-.15c-.13-.18-.17-.58-.28-2.36,0-.52-.07-1.17-.1-1.34a14.24,14.24,0,0,1-.47-2.52.35.35,0,0,1,.3-.39.36.36,0,0,1,.4.29c.13,1,.31,2,.39,2.29s.1.34.18,1.63c0,.56.09,1.44.14,1.85h.47c-.23-.93-.64-3-.21-3.8a.35.35,0,0,1,.62.32c-.31.6.07,2.61.38,3.74a.36.36,0,0,1-.06.3A.35.35,0,0,1,18.55,27.28Z" style="fill:#3a2050"/><path d="M12.08,21.71a13,13,0,0,1-7.25-1.92.35.35,0,1,1,.41-.57s4.76,3.3,12.36.9a.34.34,0,0,1,.44.23.35.35,0,0,1-.22.44A19.29,19.29,0,0,1,12.08,21.71Z" style="fill:#3a2050"/><path d="M1.81,27.84a.35.35,0,0,1-.34-.31S1.05,24,.91,22.92A7.94,7.94,0,0,1,1.45,20c.1-.33.19-.6.23-.8a9,9,0,0,0-.12-2.55c-.28-2.21-.63-5,1.34-6.08A4.75,4.75,0,0,1,5,10c1.3-.05,3,0,5,.13,4.58.22,10.29.49,13.41-.9a.36.36,0,0,1,.47.18.35.35,0,0,1-.18.46c-3.28,1.46-9.08,1.18-13.74,1-2-.1-3.64-.18-4.91-.13a4,4,0,0,0-1.8.52c-1.56.87-1.26,3.27-1,5.39a9.09,9.09,0,0,1,.12,2.78c-.05.21-.14.51-.25.86a7.41,7.41,0,0,0-.52,2.59c.12.86.42,3.39.52,4.3L3,27.06c-.34-1.23-1.12-4.58,0-5.66,2.18-2.19,2.24-3,2.24-3A.34.34,0,0,1,5.49,18a.37.37,0,0,1,.38.32c0,.17,0,1.13-2.44,3.56-.74.73-.19,3.7.33,5.39a.35.35,0,0,1,0,.3.31.31,0,0,1-.26.15l-1.61.11Z" style="fill:#3a2050"/><path d="M6,27.56H4.26a.34.34,0,0,1-.34-.29s-.49-3-.6-3.68a6.18,6.18,0,0,0-.5-1.41.35.35,0,1,1,.63-.31A7.16,7.16,0,0,1,4,23.48c.09.51.42,2.6.55,3.38h.87c-.14-.33-.35-.85-.66-1.66-.92-2.45,1-5.06,1.07-5.17A.35.35,0,0,1,6.33,20a.36.36,0,0,1,.07.49s-1.76,2.41-1,4.5A22.19,22.19,0,0,0,6.28,27a.35.35,0,0,1-.3.52Z" style="fill:#3a2050"/><path d="M15.82,21.3a.34.34,0,0,1-.34-.29,3.73,3.73,0,0,0-1.4-1.41.89.89,0,0,0-.43,0c-.57.07-1.35.16-3.57-1.08a1.63,1.63,0,0,0-1.61-.23c-.73.4-.94,1.77-1,2.25a.36.36,0,0,1-.37.34.35.35,0,0,1-.33-.36c0-.09.1-2.16,1.32-2.84a2.26,2.26,0,0,1,2.29.23c2,1.13,2.67,1.05,3.14,1a1.58,1.58,0,0,1,.71,0,3.85,3.85,0,0,1,1.9,2,.35.35,0,0,1-.29.4Z" style="fill:#3a2050"/><path d="M2.14,19.16a.35.35,0,0,1-.34-.27.36.36,0,0,1,.26-.42,5,5,0,0,0,1.4-.54,3.24,3.24,0,0,0,.38-.37,2.27,2.27,0,0,1,1.45-.9,1.7,1.7,0,0,0,.24-.52,3.39,3.39,0,0,1,1.54-2.05c.25-.14.49-.26.7-.36,1.1-.55,1.43-.72,1.12-2.46a1.44,1.44,0,0,0-.22-.62.36.36,0,0,1,0-.49.34.34,0,0,1,.48,0,1.91,1.91,0,0,1,.4,1c.38,2.16-.25,2.58-1.49,3.2l-.68.35a2.68,2.68,0,0,0-1.22,1.67c-.16.47-.33,1-.87,1-.34,0-.66.35-1,.68a4.83,4.83,0,0,1-.47.45,5.29,5.29,0,0,1-1.66.66Z" style="fill:#3a2050"/><path d="M12.09,18.17A1.52,1.52,0,0,1,11,17.78a2.21,2.21,0,0,1-.46-1.87c0-.19.16-.68.38-1.47s.51-1.84.56-2.2a2.86,2.86,0,0,0-.28-1.33.35.35,0,0,1,.16-.47.36.36,0,0,1,.47.16,3.47,3.47,0,0,1,.34,1.75c-.06.4-.33,1.39-.57,2.27-.17.61-.34,1.24-.37,1.41a1.58,1.58,0,0,0,.25,1.24,1.15,1.15,0,0,0,1,.15,4.54,4.54,0,0,0,2-1.07,2.28,2.28,0,0,1,1.64-.76c1.17.07,2.08.08,2.35-.5a5.25,5.25,0,0,1,2.31-2.39.93.93,0,0,0,.45-.65,1.72,1.72,0,0,0-.43-1.57.35.35,0,0,1,.52-.47A2.42,2.42,0,0,1,22,12.22a1.55,1.55,0,0,1-.9,1.14,4.57,4.57,0,0,0-1.9,2c-.49,1.07-1.9,1-3,.91-.35,0-.66.2-1.15.6a5.19,5.19,0,0,1-2.29,1.22A3.09,3.09,0,0,1,12.09,18.17Z" style="fill:#3a2050"/><path d="M.8,18.32A.36.36,0,0,1,.45,18c-.32-4.77,1.27-6.31,1.34-6.37a.34.34,0,0,1,.49,0,.36.36,0,0,1,0,.49S.85,13.57,1.15,17.94a.36.36,0,0,1-.33.38Z" style="fill:#3a2050"/><path d="M.41,19.19h0a.35.35,0,0,1-.3-.4L.24,17.5a.37.37,0,0,1,.4-.3.36.36,0,0,1,.3.39l-.18,1.3A.35.35,0,0,1,.41,19.19Z" style="fill:#3a2050"/><path d="M1,19a.36.36,0,0,1-.35-.3L.52,17.7a.37.37,0,0,1,.3-.4.37.37,0,0,1,.4.3l.14.95a.35.35,0,0,1-.3.39Z" style="fill:#3a2050"/><path d="M1.81,26.81a.35.35,0,0,1,0-.7L3,26.05a.36.36,0,0,1,.36.33.35.35,0,0,1-.33.37l-1.22.06Z" style="fill:#3a2050"/><path d="M5.35,26.32H4.08A.35.35,0,0,1,3.73,26a.35.35,0,0,1,.35-.35H5.35a.35.35,0,0,1,.34.35A.34.34,0,0,1,5.35,26.32Z" style="fill:#3a2050"/><path d="M18.34,26.22h-1a.35.35,0,0,1-.35-.35.35.35,0,0,1,.35-.35h1a.35.35,0,0,1,.34.35A.34.34,0,0,1,18.34,26.22Z" style="fill:#3a2050"/><path d="M19.71,26.57h-.89a.35.35,0,0,1-.35-.35.34.34,0,0,1,.35-.35h.89a.34.34,0,0,1,.35.35A.35.35,0,0,1,19.71,26.57Z" style="fill:#3a2050"/><path d="M25,9.18h0a.34.34,0,0,1-.34-.35c0-.47.95-1,1.28-1.09a2,2,0,0,0,.49-.33c.27-.23.64-.55,1.05-.31a.46.46,0,0,1,.23.34c.09.43-.43,1.17-.75,1.57a.35.35,0,1,1-.55-.43c.15-.19.29-.4.41-.58a2.31,2.31,0,0,1-.64.4,2.41,2.41,0,0,0-.84.53A.33.33,0,0,1,25,9.18Z" style="fill:#3a2050"/></svg>